<?xml version="1.0" encoding="UTF-8" standalone="no"?>
<!DOCTYPE svg PUBLIC "-//W3C//DTD SVG 1.1//EN" "http://www.w3.org/Graphics/SVG/1.1/DTD/svg11.dtd">
<svg width="100%" height="100%" viewBox="0 0 1647 658" version="1.1" xmlns="http://www.w3.org/2000/svg" xmlns:xlink="http://www.w3.org/1999/xlink" xml:space="preserve" xmlns:serif="http://www.serif.com/" style="fill-rule:evenodd;clip-rule:evenodd;stroke-linejoin:round;stroke-miterlimit:2;">
    <g transform="matrix(1,0,0,1,-8779.66,-8985.52)">
        <g transform="matrix(8.33333,0,0,8.33333,0,0)">
            <g transform="matrix(1,0,0,1,1075.44,1090.08)">
                <path d="M0,55.113C-1.118,57.684 -3.692,59.415 -6.678,59.415C-10.696,59.415 -13.964,56.146 -13.964,52.129C-13.964,48.112 -10.696,44.843 -6.678,44.843C-3.889,44.843 -1.461,46.337 -0.242,48.604L7.742,48.604C6.227,42.203 0.185,37.294 -6.678,37.294C-14.858,37.294 -21.513,43.949 -21.513,52.129C-21.513,60.29 -14.858,66.929 -6.678,66.929C0.373,66.929 6.564,61.763 7.884,55.113L0,55.113ZM169.251,62.615C167.474,62.615 166.082,61.223 166.082,59.446C166.082,57.676 167.474,56.291 169.251,56.291C171.021,56.291 172.406,57.676 172.406,59.446C172.406,61.223 171.021,62.615 169.251,62.615M169.251,53.004C165.631,53.004 162.794,55.833 162.794,59.446C162.794,63.066 165.631,65.903 169.251,65.903C172.864,65.903 175.694,63.066 175.694,59.446C175.694,55.833 172.864,53.004 169.251,53.004M155.892,38.81L155.892,65.856L147.624,65.856L131.937,49.667L131.937,65.856L122.857,65.856L122.857,38.81L132.826,38.81L146.774,53.492L146.774,38.81L155.892,38.81ZM119.964,38.81L110.111,65.856L100.877,65.856L95.352,48.508L89.788,65.856L80.554,65.856L70.701,38.81L80.168,38.81L85.422,56.119L91.179,38.81L99.641,38.81L105.398,56.119L110.652,38.81L119.964,38.81ZM38.146,58.631L38.146,65.856L11.371,65.856L11.371,38.81L20.799,38.81L20.799,58.631L38.146,58.631ZM11.366,17.525C11.366,15.014 9.469,14.01 6.402,14.01L-8.494,14.01L-8.494,21.095L6.402,21.095C9.469,21.095 11.366,20.035 11.366,17.525M-8.494,6.088L4.783,6.088C7.573,6.088 9.581,5.251 9.581,2.797C9.581,0.398 7.573,-0.439 4.783,-0.439L-8.494,-0.439L-8.494,6.088ZM25.313,19.198C25.313,25.725 19.065,29.853 9.246,29.853L-21.882,29.853L-21.882,-9.198L7.015,-9.198C16.833,-9.198 23.082,-5.181 23.082,0.956C23.082,5.363 19.789,9.212 13.876,9.603C20.125,9.993 25.313,13.285 25.313,19.198M172.117,46.474C171.633,47.587 170.518,48.336 169.225,48.336C167.486,48.336 166.071,46.921 166.071,45.182C166.071,43.443 167.486,42.028 169.225,42.028C170.433,42.028 171.484,42.674 172.012,43.656L175.468,43.656C174.812,40.885 172.197,38.759 169.225,38.759C165.684,38.759 162.803,41.64 162.803,45.182C162.803,48.715 165.684,51.59 169.225,51.59C172.278,51.59 174.958,49.353 175.53,46.474L172.117,46.474ZM43.046,28.251C43.175,27.977 43.174,27.931 43.037,27.702C42.837,27.367 42.379,27.129 41.971,27.148C41.795,27.155 41.605,27.139 41.548,27.111C41.369,27.022 41.455,26.63 41.739,26.23C42.075,25.756 42.079,25.661 41.777,25.384C41.553,25.177 41.519,25.168 41.25,25.242C40.619,25.416 40.437,24.971 40.894,24.377C41.181,24.002 41.153,23.84 40.749,23.514C40.465,23.284 40.44,23.278 40.151,23.362C39.778,23.469 39.502,23.372 39.513,23.138C39.517,23.051 39.664,22.798 39.839,22.575C40.327,21.952 40.276,21.59 39.698,21.534C39.558,21.521 39.4,21.488 39.348,21.461C39.191,21.379 39.26,21.055 39.503,20.728C39.629,20.558 39.873,20.295 40.046,20.143C40.433,19.802 40.69,19.366 40.774,18.909C40.833,18.588 40.824,18.561 40.66,18.561C40.562,18.561 40.313,18.598 40.107,18.644C39.807,18.71 39.707,18.708 39.604,18.635C39.396,18.486 39.464,18.344 39.904,18.003C40.41,17.608 41.444,17.245 42.862,16.964C43.678,16.801 43.836,16.748 43.923,16.604C43.98,16.51 44.151,16.011 44.304,15.493C44.661,14.267 45.683,11.699 46.218,10.682C47.039,9.092 47.327,8.616 49.395,5.384C50.068,4.299 50.242,3.952 50.348,3.501C50.46,3.019 50.8,2.664 51.151,2.664C51.475,2.664 51.944,2.896 52.414,3.286C52.981,3.755 53.516,4.128 53.618,4.128C53.753,4.128 53.68,3.12 53.509,2.586C53.376,2.173 53.371,2.097 53.459,1.854C53.633,1.374 54.078,1.296 54.56,1.661C54.94,1.947 55.199,2.315 56.187,3.956C57.388,5.906 57.459,6.046 58.31,8.137C59.577,11.166 60.214,13.325 60.744,16.467C60.855,17.122 60.966,17.271 61.39,17.342C63.062,17.624 64.709,18.427 65.579,19.384C66.05,19.897 65.936,20.133 65.11,20.341C64.745,20.433 64.539,20.563 63.931,21.082C63.166,21.731 62.704,21.973 62.235,21.976C61.668,21.979 61.687,21.897 61.849,23.71C61.93,24.617 62.003,25.89 62.012,26.539C62.019,27.124 61.976,27.864 61.903,28.569L79.463,28.569L59.633,-10.531L44.832,-10.531L25.002,28.569L42.93,28.569C42.953,28.474 42.99,28.367 43.046,28.251M175.528,15.945C175.528,24.379 167.987,29.853 153.521,29.853C143.354,29.853 134.528,27.172 128.216,22.425L134.976,14.605C139.443,17.956 146.092,20.246 153.743,20.246C159.329,20.246 162.067,19.296 162.067,17.342C162.067,15.442 159.832,14.772 152.571,14.157C140.561,13.096 129.892,10.359 129.892,1.422C129.892,-7.124 139.221,-11.816 151.9,-11.816C160.112,-11.816 168.21,-9.917 173.852,-6.174L167.372,1.758C162.96,-1.147 157.765,-2.32 151.9,-2.32C147.935,-2.32 143.354,-1.818 143.354,0.305C143.354,2.204 146.872,2.595 153.184,3.098C166.255,4.159 175.528,6.673 175.528,15.945M125.652,15.945C125.652,24.379 118.111,29.853 103.644,29.853C93.479,29.853 84.653,27.172 78.341,22.425L85.101,14.605C89.568,17.956 96.215,20.246 103.868,20.246C109.453,20.246 112.19,19.296 112.19,17.342C112.19,15.442 109.956,14.772 102.694,14.157C90.686,13.096 80.017,10.359 80.017,1.422C80.017,-7.124 89.345,-11.816 102.025,-11.816C110.235,-11.816 118.335,-9.917 123.976,-6.174L117.497,1.758C113.083,-1.147 107.889,-2.32 102.025,-2.32C98.058,-2.32 93.479,-1.818 93.479,0.305C93.479,2.204 96.997,2.595 103.309,3.098C116.38,4.159 125.652,6.673 125.652,15.945" style="fill:rgb(237,233,217);fill-rule:nonzero;"/>
            </g>
        </g>
        <g transform="matrix(8.33333,0,0,8.33333,0,0)">
            <g transform="matrix(-1,0,0,1,1130.93,1157.15)">
                <path d="M-0.033,-29.668C8.295,-29.668 14.818,-23.159 14.818,-14.851C14.818,-6.522 8.295,0 -0.033,0C-8.342,0 -14.851,-6.522 -14.851,-14.851C-14.851,-23.159 -8.342,-29.668 -0.033,-29.668" style="fill:rgb(237,233,217);fill-rule:nonzero;"/>
            </g>
        </g>
    </g>
</svg>
