<?xml version="1.0" encoding="UTF-8" standalone="no"?>
<!DOCTYPE svg PUBLIC "-//W3C//DTD SVG 1.1//EN" "http://www.w3.org/Graphics/SVG/1.1/DTD/svg11.dtd">
<svg width="100%" height="100%" viewBox="0 0 300 850" version="1.1" xmlns="http://www.w3.org/2000/svg" xmlns:xlink="http://www.w3.org/1999/xlink" xml:space="preserve" xmlns:serif="http://www.serif.com/" style="fill-rule:evenodd;clip-rule:evenodd;stroke-linejoin:round;stroke-miterlimit:2;">
    <g transform="matrix(2,0,0,2,172.307,169.151)">
        <path d="M0,-72.642C8.497,-71.324 8.905,-84.971 0.056,-82.962C-4.838,-81.85 -5.581,-73.508 0,-72.642M27.84,-52.854C25.389,-51.204 25.877,-50.563 25.647,-47.9L24.502,-48.662C23.369,-47.251 24.21,-47.583 24.295,-46.41C24.334,-45.867 24.094,-45.348 24.104,-44.806L23.339,-45.196C23.011,-36.982 34.379,-32.499 39.334,-39.426C45.178,-47.597 36.877,-58.937 27.84,-52.854M17.54,4.24L17.156,2.694L14.458,2.694C14.35,1.779 14.861,1.603 15.582,1.885L15.615,0.765C16.561,0.531 16.467,1.492 16.89,1.803C17.277,2.087 17.993,1.965 18.315,2.506C17.284,2.811 17.475,3.273 17.54,4.24M22.182,-13.523L21.78,-11.595L18.318,-11.59C18.527,-10.813 20.169,-10.95 19.278,-9.658L17.926,-10.241L18.7,-10.817C17.36,-10.64 17.224,-12.254 15.613,-11.983C15.398,-12.99 15.836,-12.582 16.171,-12.791C17.961,-13.908 18.776,-12.743 20.671,-13.318C20.582,-14.11 21.387,-15.24 21.398,-15.65C21.412,-16.15 19.219,-19.029 18.717,-19.525C17.951,-20.281 15.704,-21.797 14.711,-22.237C2.264,-27.753 -8.894,-18.422 -7.933,-5.226C-7.425,1.757 -1.695,12.329 6.517,8.502L7.118,9.258L5.571,9.846C5.614,11.695 11.193,10.386 12.229,9.936C14.012,9.163 12.714,7.943 12.912,7.72C14.995,8.166 20.594,8.177 19.87,4.874C19.787,4.494 18.716,4.875 19.092,3.856L20.825,5.394C25.718,1.338 25.674,-6.768 23.362,-12.198C23.204,-12.569 22.465,-13.746 22.182,-13.523" style="fill:rgb(45,42,43);fill-rule:nonzero;"/>
    </g>
    <g transform="matrix(1.99949,-0.0453074,-0.0453074,-1.99949,201.647,611.054)">
        <path d="M-0.054,-0.011C-0.741,1.06 -2.703,1.599 -2.109,3.197C-1.719,4.249 -0.412,3.164 -0.054,3.344C0.216,3.479 -0.043,4.781 1.246,4.159C1.637,2.569 1.345,1.014 -0.054,-0.011" style="fill:rgb(45,42,43);fill-rule:nonzero;"/>
    </g>
    <g transform="matrix(2,0,0,2,71.1081,804.443)">
        <path d="M0,5.529L1.021,5.283C3.063,-20.37 -35.507,-20.253 -35.554,4.284C-35.579,16.945 -22.933,25.899 -11.281,21.754L-12.259,21.169L-11.476,18.222L-9.697,19.446L-6.617,15.445C-6.135,15.297 -6.266,19.674 -4.728,18.334C-4.143,17.824 -1.3,14.5 -1.349,14.066C-1.551,12.259 -4.675,14.654 -3.899,12.46L-0.346,12.279C0.013,10.214 2.306,6.513 0,5.529" style="fill:rgb(45,42,43);fill-rule:nonzero;"/>
    </g>
    <g transform="matrix(2,0,0,2,213.342,317.976)">
        <path d="M0,2.988L-1.125,3.41C7.716,20.961 33.413,6.744 24.774,-10.554C23.826,-12.452 23.07,-14.376 20.573,-14.25L21.189,-15.232L15.531,-17.973L15.854,-15.782C13.946,-17.11 12.806,-15.291 11.001,-14.47L10.4,-12.521L10.328,-14.406L9.282,-14.776L7.421,-12.034L11.785,-7.244L7.927,-3.567C7.056,-6.534 4.802,-5.095 2.405,-5.173C3.362,-8.179 4.874,-6.188 5.677,-6.551C5.886,-6.646 6.739,-8.405 7.858,-8.421L9.575,-6.65L7.247,-10.649L6.615,-9.637L5.553,-9.744L5.553,-10.744C3.203,-10.069 4.343,-11.103 3.606,-11.785C2.037,-13.239 -1.237,-10.185 -1.087,-8.209L1.426,-9.035C3.314,-7.188 0.566,-7.824 0.843,-5.857L-1.726,-7.183C-1.977,-3.741 -3.243,0.832 0,2.988" style="fill:rgb(45,42,43);fill-rule:nonzero;"/>
    </g>
    <g transform="matrix(2,0,0,2,278.759,514.825)">
        <path d="M0,-20.499C-14.562,-19.878 -15.159,0.61 0.563,-0.084C13.292,-0.647 14.299,-21.109 0,-20.499" style="fill:rgb(45,42,43);fill-rule:nonzero;"/>
    </g>
    <g transform="matrix(2,0,0,2,91.0657,762.581)">
        <path d="M0,7.371C0.279,11.846 4.6,15.755 9.066,15.447C10.965,15.316 14.241,14.56 13.566,12.218L15.116,12.903L13.766,10.079L15.749,11.884L16.706,7.647L17.717,8.292C21.782,-7.121 -0.982,-8.384 0,7.371" style="fill:rgb(45,42,43);fill-rule:nonzero;"/>
    </g>
    <g transform="matrix(2,0,0,2,187.751,391.155)">
        <path d="M0,-2.806C-0.401,-5.897 -4.72,-9.122 -7.66,-9.37C-9.645,-9.538 -9.569,-8.052 -10.809,-7.132C-11.654,-6.505 -13.452,-6.816 -14.234,-5.354L-11.664,-4.032L-12.708,-3.607L-11.944,-1.092L-14.62,-1.348L-13.428,-2.574C-14.558,-3.631 -15.059,-4.619 -14.703,-6.216C-15.504,-6.408 -15.659,-5.056 -15.751,-4.525C-15.854,-3.932 -15.495,0.549 -15.34,0.931C-15.141,1.425 -13.578,3.455 -13.201,3.518C-12.188,3.688 -8.781,0.846 -10.414,5.548C-4.663,6.732 0.862,3.832 0,-2.806" style="fill:rgb(45,42,43);fill-rule:nonzero;"/>
    </g>
</svg>
