<?xml version="1.0" encoding="UTF-8" standalone="no"?>
<!DOCTYPE svg PUBLIC "-//W3C//DTD SVG 1.1//EN" "http://www.w3.org/Graphics/SVG/1.1/DTD/svg11.dtd">
<svg width="100%" height="100%" viewBox="0 0 300 300" version="1.1" xmlns="http://www.w3.org/2000/svg" xmlns:xlink="http://www.w3.org/1999/xlink" xml:space="preserve" xmlns:serif="http://www.serif.com/" style="fill-rule:evenodd;clip-rule:evenodd;stroke-linejoin:round;stroke-miterlimit:2;">
    <g transform="matrix(1.9803,0,0,1.9803,-137.728,100.322)">
        <path d="M119.74,78.584C120.099,77.824 120.097,77.695 119.716,77.059C119.159,76.127 117.885,75.463 116.75,75.516C116.263,75.538 115.733,75.492 115.574,75.413C115.077,75.166 115.315,74.076 116.104,72.965C117.039,71.643 117.051,71.382 116.212,70.61C115.589,70.035 115.492,70.009 114.746,70.216C112.991,70.7 112.484,69.461 113.756,67.808C114.553,66.766 114.476,66.315 113.351,65.407C112.562,64.769 112.493,64.751 111.688,64.984C110.652,65.283 109.882,65.015 109.913,64.364C109.924,64.121 110.333,63.416 110.821,62.796C112.177,61.063 112.037,60.055 110.427,59.901C110.037,59.864 109.6,59.772 109.454,59.696C109.016,59.469 109.208,58.567 109.885,57.657C110.236,57.185 110.915,56.454 111.396,56.032C112.473,55.084 113.188,53.871 113.421,52.6C113.584,51.705 113.56,51.63 113.103,51.63C112.831,51.63 112.14,51.734 111.567,51.86C110.731,52.045 110.452,52.04 110.168,51.837C109.589,51.422 109.777,51.028 111.001,50.078C112.409,48.981 115.285,47.971 119.229,47.188C121.5,46.736 121.94,46.587 122.182,46.186C122.339,45.927 122.816,44.537 123.24,43.097C124.233,39.686 127.077,32.544 128.564,29.714C130.849,25.289 131.651,23.968 137.403,14.974C139.273,11.959 139.76,10.993 140.053,9.737C140.364,8.397 141.31,7.41 142.286,7.41C143.188,7.41 144.493,8.054 145.801,9.141C147.378,10.444 148.866,11.483 149.149,11.483C149.525,11.483 149.323,8.679 148.845,7.194C148.477,6.044 148.462,5.833 148.708,5.157C149.191,3.822 150.427,3.604 151.771,4.62C152.828,5.416 153.548,6.439 156.296,11.005C159.635,16.428 159.833,16.817 162.201,22.635C165.726,31.06 167.496,37.065 168.971,45.805C169.282,47.628 169.588,48.043 170.768,48.242C175.419,49.024 180.001,51.257 182.421,53.918C183.732,55.348 183.414,56.002 181.116,56.582C180.103,56.837 179.528,57.199 177.838,58.642C175.708,60.448 174.424,61.122 173.118,61.129C171.543,61.138 171.594,60.91 172.045,65.955C172.27,68.477 172.475,72.018 172.499,73.824C172.519,75.45 172.398,77.509 172.197,79.468L221.041,79.468L165.882,-29.296L124.708,-29.296L69.549,79.468L119.419,79.468C119.483,79.205 119.586,78.909 119.74,78.584" style="fill:rgb(237,233,217);fill-rule:nonzero;"/>
    </g>
</svg>
