<?xml version="1.0" encoding="UTF-8" standalone="no"?>
<!DOCTYPE svg PUBLIC "-//W3C//DTD SVG 1.1//EN" "http://www.w3.org/Graphics/SVG/1.1/DTD/svg11.dtd">
<svg width="100%" height="100%" viewBox="0 0 750 200" version="1.1" xmlns="http://www.w3.org/2000/svg" xmlns:xlink="http://www.w3.org/1999/xlink" xml:space="preserve" xmlns:serif="http://www.serif.com/" style="fill-rule:evenodd;clip-rule:evenodd;stroke-linejoin:round;stroke-miterlimit:2;">
    <g transform="matrix(2,0,0,2,158.244,23.7121)">
        <path d="M0,76.44C-0.207,76.463 -0.368,76.698 -0.592,76.702C-0.419,77.729 1.06,76.324 0,76.44M-52.465,75.718C-52.62,75.217 -51.154,74.745 -51.029,74.871C-50.614,75.622 -52.299,76.255 -52.465,75.718M-51.731,72.511C-52.187,72.372 -52.05,71.611 -51.512,71.749C-50.907,71.904 -51.274,72.649 -51.731,72.511M-47.694,74.085C-47.304,74.312 -47.166,74.403 -46.718,74.217C-46.693,74.549 -46.758,74.929 -47.061,75.124C-47.411,75.225 -48.246,74.38 -47.694,74.085M-45.37,76.981C-45.042,77.077 -44.655,77.856 -45.099,77.996C-45.947,78.194 -46.311,76.704 -45.37,76.981M-45.07,72.115C-45.542,71.967 -45.133,71.219 -44.696,71.344C-44.34,71.445 -44.393,72.326 -45.07,72.115M-42.536,74.218C-42.456,74.691 -42.667,74.919 -43.121,75.002C-43.627,74.56 -43.043,74.114 -42.536,74.218M-43.06,72.325L-42.797,64.548C-42.582,64.336 -39.301,65.508 -38.748,65.661C-36.407,66.308 -33.7,67.11 -31.329,67.518C-30.914,67.59 -29.573,67.863 -29.281,67.817C-28.868,67.752 -28.509,66.972 -28.23,67.031L-28.034,67.486L-28.558,67.751C-27.864,69.98 -28.6,72.382 -28.538,74.657L-28.429,74.813C-27.74,74.743 -27.963,75.194 -27.781,75.335C-27.59,75.483 -26.627,75.237 -26.726,75.718C-26.803,76.088 -28.749,76.269 -28.294,75.131C-29.291,75.363 -30.302,74.667 -31.354,74.626C-31.859,74.868 -31.303,75.675 -31.484,75.92L-32.407,76.438C-32.892,76.085 -32.266,75.968 -32.21,75.582C-32.158,75.228 -32.4,74.856 -32.212,74.479C-32.724,74.249 -33.243,74.562 -33.711,74.48C-34.044,74.421 -34.456,73.823 -34.957,73.957L-34.835,74.527C-34.94,74.902 -35.6,74.722 -35.816,74.479L-35.742,73.827L-43.06,72.325ZM-37.962,75.523L-37.94,75.021C-37.445,75.064 -36.43,73.695 -36.089,74.508C-35.441,76.053 -37.164,75.226 -37.962,75.523M-36.061,77.484C-35.164,77.333 -35.184,78.106 -35.219,78.791C-35.92,79.09 -37.027,77.647 -36.061,77.484M-35.425,76.169C-34.661,75.957 -33.131,75.254 -32.833,76.352C-32.655,77.011 -33.714,76.714 -34.134,77.004C-34.278,77.104 -34.424,77.617 -34.823,77.425C-35.073,77.304 -35.624,76.428 -35.425,76.169M-34.565,79.314C-33.835,79.212 -33.274,80.003 -33.977,80.486L-34.565,79.314ZM-33.256,78.403C-32.883,78.029 -32.303,78.82 -32.145,78.533C-31.818,78.057 -32.458,77.537 -32.333,77.177C-31.845,76.899 -31.885,76.605 -31.625,76.18C-31.515,76.18 -30.836,77.24 -30.778,77.421C-30.661,77.788 -31.175,77.42 -31.401,77.641C-31.557,77.794 -31.497,78.074 -31.417,78.256C-31.229,78.384 -30.336,78.02 -30.385,78.659C-30.705,78.571 -32.173,79.168 -32.207,79.393C-32.236,79.583 -31.604,79.969 -32.28,80.097C-33.569,80.34 -32.863,79.217 -33.256,78.403M-30.219,76.416C-31.296,76.625 -30.584,75.286 -29.929,75.132C-29.662,75.188 -29.486,76.273 -30.219,76.416M-30.646,77.221L-30.646,76.701C-29.832,76.839 -29.632,76.466 -29.129,75.995C-29.036,75.908 -28.985,75.69 -28.872,75.664L-28.351,75.916L-28.447,76.804C-28.696,77.055 -28.935,76.735 -29.012,76.739C-29.124,76.745 -29.378,77.122 -29.693,77.195C-30.002,77.266 -30.333,77.211 -30.646,77.221M-26.707,65.817C-26.619,65.499 -26.185,65.381 -25.895,65.478C-25.152,65.726 -26.468,67.652 -26.707,65.817M-25.097,69.123C-24.752,69.223 -24.758,70.257 -25.47,70.024C-25.942,69.869 -25.587,68.98 -25.097,69.123M-25.22,73.176C-25.094,72.896 -24.118,71.709 -23.817,71.753C-23.654,71.777 -23.426,71.923 -23.338,72.075C-23.303,72.227 -24.509,73.684 -24.634,73.761C-25.062,74.025 -25.448,73.686 -25.22,73.176M-23.459,61.219C-23.283,60.96 -23.039,60.994 -22.771,61.047C-22.457,61.11 -21.673,61.548 -22.149,61.872C-22.792,62.094 -23.321,61.909 -23.459,61.219M-23.27,79.173C-23.201,79.079 -22.967,79.09 -22.851,79.006C-22.522,78.766 -22.415,78.753 -22.156,78.59C-21.966,78.469 -21.896,78.004 -21.641,77.799C-21.357,77.572 -20.706,77.604 -20.708,77.155C-20.712,76.501 -22.666,76.747 -22.783,76.231C-22.577,75.081 -22.352,73.88 -22.284,72.713C-22.253,72.182 -22.403,69.349 -22.161,69.177C-21.387,68.919 -19.726,69.732 -19.097,69.612C-18.644,69.525 -18.651,68.63 -17.934,68.858C-17.677,68.941 -17.693,69.825 -16.926,69.514L-16.844,69.886L-15.88,69.906L-15.687,69.384L-15.619,70.035L-14.648,70.152C-14.401,70.088 -14.45,69.5 -14.244,69.255C-13.855,68.793 -13.189,68.93 -13.147,69.565L-14.181,70.165C-13.496,70.313 -13.014,69.661 -12.338,69.967L-12.145,70.409L-9.74,70.558C-9.577,69.922 -10.406,70.173 -10.392,69.645C-9.613,69.642 -8.78,69.419 -9.184,70.499L-9.003,70.671C-7.735,70.883 -5.024,70.611 -4.121,71.543C-3.992,71.676 -4.043,71.908 -3.898,71.999C-3.772,72.079 -2.897,72.185 -2.814,72.125C-3.172,71.735 -3.244,71.62 -3.067,71.09L-2.633,71.096C-2.219,71.24 -2.639,72.1 -2.159,72.331C-1.134,72.366 -0.067,72.269 0.897,72.657C1.181,72.612 0.925,71.502 1.461,71.361L8.293,71.865C8.425,71.729 7.985,70.884 8.359,70.821C8.89,70.73 8.798,71.992 9.271,71.997C10.397,71.91 11.558,72.258 12.678,72.136C13.388,72.058 13.442,72.004 14.232,72.002C14.573,72.001 16.392,72.098 16.391,71.8C16.012,71.599 15.59,70.861 16.197,70.689C16.522,70.597 17.704,70.689 18.157,70.689C18.209,70.689 18.348,70.48 18.484,70.621L18.613,71.015L17.702,71.408C17.994,71.759 18.256,72.021 18.742,71.798C19.185,71.595 19.237,70.656 19.79,71.279C19.404,71.718 19.448,72.387 18.867,72.462C18.764,72.915 18.994,73.502 18.979,73.89C18.941,74.919 18.773,76.192 18.621,77.164C18.555,77.585 18.75,78.946 18.492,79.125C16.737,79.274 15.01,79.319 13.257,79.184L13.78,80.488C13.192,80.277 12.636,80.939 12.145,80.886C11.216,80.784 12.549,79.989 12.563,79.909C12.726,78.931 11.411,79.14 10.766,79.239C10.386,79.51 11.135,80.244 9.924,80.237C9.098,80.232 8.94,79.974 9.206,79.183L6.938,79.2C6.533,79.335 7.066,80.428 5.864,80.481C5.158,80.512 4.997,79.955 4.673,79.861C4.412,79.787 4.128,79.891 3.851,79.769C3.634,79.673 3.508,79.301 3.103,79.21C2.408,79.053 1.109,79.173 0.398,79.318L-0.002,78.914L-0.723,79.182C-0.931,78.131 0.531,78.531 0.451,77.617C-0.148,77.413 -0.489,77.27 -1.103,77.563C-1.397,77.704 -1.899,78.356 -2.224,78.268C-2.786,78.115 -2.076,77.379 -1.977,77.21C-1.787,76.885 -1.853,76.599 -1.377,76.309C-1.606,76.336 -2.014,76.368 -2.203,76.466C-2.398,76.568 -2.402,76.821 -2.508,76.84C-2.767,76.885 -4.099,76.377 -4.118,76.112C-3.772,75.642 -3.68,76.163 -3.463,76.245C-3.269,76.318 -2.903,76.149 -2.622,76.44L-2.489,76.183C-3.045,75.542 -2.314,75.458 -1.77,75.655C-1.902,75.147 -1.228,74.51 -0.766,74.508C-0.509,74.507 0.37,75.073 0.722,74.816C0.829,74.563 1.075,73.641 0.845,73.495C0.31,73.686 -0.298,73.547 -0.765,73.592C-1.156,73.629 -1.496,74.505 -2.068,74.33C-2.267,74.27 -2.4,73.917 -2.601,73.964C-3.362,74.613 -4.24,74.804 -5.208,74.894C-5.634,75.061 -5.578,76.864 -5.688,77.352C-5.177,77.328 -5.073,76.59 -4.514,76.7L-4.503,78.711C-4.538,78.833 -5.287,78.866 -5.166,79.311L-4.444,79.572L-4.382,79.183C-4.071,79.147 -3.985,79.336 -4.121,79.573C-3.779,79.781 -3.103,78.855 -2.944,79.777C-2.907,79.996 -2.924,80.254 -3.064,80.435C-3.448,80.893 -3.823,80.389 -4.179,80.375C-4.536,80.36 -5.106,80.634 -5.538,80.47C-5.733,79.375 -5.258,78.724 -6.864,78.922L-6.335,79.894C-6.347,80.013 -6.824,80.676 -6.926,80.754C-6.995,80.807 -8.301,81.269 -8.378,81.277C-8.715,81.31 -8.785,80.984 -9.086,81.012L-8.955,81.796C-8.313,81.634 -7.859,81.571 -7.402,82.138C-7.272,82.63 -8.716,83.172 -8.958,83.567C-9.223,83.713 -9.424,83.34 -9.655,83.382C-9.867,83.421 -10.058,83.921 -10.312,83.879C-10.769,83.804 -10.807,82.752 -10.259,82.517C-9.948,82.384 -9.48,82.567 -9.348,82.189L-10.916,81.795C-11.336,81.015 -9.45,81.166 -10.083,80.609C-10.179,80.524 -10.445,80.518 -10.474,80.299C-10.548,79.751 -9.78,78.816 -10.475,78.284L-12.657,78.15C-13.042,79.022 -14.244,78.699 -14.444,79.573C-13.792,79.494 -13.929,80.304 -13.547,80.707L-13.982,81.139C-15.06,81.161 -15.179,79.56 -15.487,79.369C-15.755,79.202 -16.237,79.677 -16.383,79.227C-16.529,78.776 -16.348,78.135 -15.93,77.883L-15.427,78.138L-15.228,77.746L-20.326,77.022L-20.448,77.346C-20.171,77.324 -20.101,77.707 -19.966,77.745C-19.373,77.91 -18.917,77.568 -19.016,78.659C-19.77,78.378 -19.894,79.111 -20.256,79.184C-20.677,79.268 -21.109,79.058 -21.417,79.09C-21.816,79.131 -22.207,79.525 -22.805,79.183L-22.676,79.966C-23.125,80.073 -23.526,79.521 -23.27,79.173M-18.233,80.49C-18.173,80.911 -18.344,81.301 -18.818,81.273C-19.384,80.983 -18.411,80.307 -18.233,80.49M-18.101,81.404C-17.591,81.314 -17.144,82.108 -17.646,82.317C-18.109,82.511 -18.075,81.656 -18.101,81.404M-17.289,80.646C-17.2,80.488 -16.284,80.036 -16.069,80.351C-15.607,81.027 -16.791,81.582 -17.3,81.255C-17.358,81.16 -17.35,80.754 -17.289,80.646M-12.745,80.619L-11.7,80.621L-11.569,81.664L-12.738,81.528L-12.745,80.619ZM-0.861,81.342C-0.821,81.066 -0.249,80.624 -0.016,80.413C0.29,80.136 0.645,79.903 0.912,79.575C1.521,79.684 1.03,80.109 1.001,80.453C0.961,80.927 1.39,81.343 0.703,81.719C0.118,82.04 -0.527,81.966 -0.861,81.342M2.581,81.693C2.738,81.74 2.831,81.881 2.934,81.993C3.03,82.456 1.596,82.431 1.499,82.121C1.327,81.575 2.244,81.591 2.581,81.693M6.107,83.256C6.848,83.476 6.179,84.568 5.472,84.027C4.987,83.656 5.521,83.081 6.107,83.256M7.389,80.892L8.49,81.272L8.814,82.71C7.893,82.772 6.961,81.786 7.389,80.892M9.46,81.199L10.513,81.141L10.273,80.816L10.708,80.488L10.775,81.012C11.212,81.038 10.89,80.623 11.489,80.749C11.56,80.764 11.632,80.768 11.694,80.812C12.24,81.153 10.925,81.473 10.778,81.608C10.641,81.734 10.668,81.963 10.607,82.018C9.808,82.747 9.012,82.182 9.46,81.199M17.979,82.729L18.875,82.58C19.201,82.899 17.629,84.098 17.979,82.729M19.3,74.13C19.29,73.977 19.341,73.848 19.439,73.734C19.612,73.53 20.044,73.391 20.312,73.433C20.74,74.561 19.897,75.299 19.3,74.13M20.502,75.39C20.853,75.14 21.231,75.067 21.56,75.389C21.753,75.693 20.896,76.344 20.706,76.177L20.502,75.39ZM21.419,73.563C20.969,73.693 20.404,72.732 20.709,72.522C21.193,72.189 22.05,73.381 21.419,73.563M21.743,72.592C21.32,72.291 21.87,71.611 22.323,71.742C22.881,71.902 22.313,72.996 21.743,72.592M21.879,74.283C21.875,73.882 22.646,73.88 22.927,73.824L22.796,73.173C23.102,73.091 23.866,73.595 24.042,73.308L23.982,71.354C25.228,71.061 26.537,71.025 27.791,70.785C28.375,70.673 31.036,70.11 31.357,69.909C31.714,69.686 31.854,69.105 32.464,69.251C32.766,68.979 30.764,68.389 31.878,67.941L32.79,68.694C33.933,68.099 34.215,68.72 33.25,69.45L33.457,69.768C35.876,69.275 38.363,69.314 40.825,69.45L41.874,70.753C41.987,71.759 41.775,72.79 41.736,73.754C41.722,74.107 41.869,75.576 41.818,75.656C41.718,75.812 41.398,75.826 41.257,75.954C41.048,76.143 40.856,76.736 40.622,76.952C40.204,77.339 37.355,77.642 36.578,77.743C35.23,77.918 33.943,77.852 32.63,78.238C32.45,78.29 32.256,78.267 32.073,78.269C32.403,78.928 31.852,79.308 31.943,79.966C32.013,80.043 32.896,79.617 32.987,80.034C33.071,80.421 32.337,80.237 32.466,80.553C32.808,80.872 33.124,81.3 33.117,81.795C32.936,81.966 30.84,81.45 30.692,81.146L30.897,80.622L30.376,80.293C31.106,79.803 31.063,79.053 31.288,78.268L23.97,78.727C23.404,78.057 23.902,77.199 23.836,76.443L23.19,76.242L23.831,76.037L23.915,74.6C23.377,74.318 22.923,74.37 22.402,74.613L22.534,75L22.142,75C22.518,74.453 21.884,74.677 21.879,74.283M28.155,81.338C28.737,80.304 29.426,80.402 29.328,81.664L28.155,81.338ZM33.512,80.696L34.517,80.248L34.817,80.426L34.556,81.142C34.712,81.282 36.421,80.768 35.927,81.794C35.651,82.369 35.279,81.705 34.871,81.665C34.522,81.631 34.143,81.869 33.771,81.797L33.512,80.696ZM35.799,79.706C36.228,79.611 36.512,80.719 36.384,81.011C35.762,81.258 35.387,79.796 35.799,79.706M32.084,64.298C32.784,64.147 32.9,64.774 32.856,65.332C32.255,65.454 31.807,64.802 32.084,64.298M27.949,69.766L28.936,69.383L28.419,70.238L27.892,70.297L27.949,69.766ZM41.908,26.113C41.531,26.221 41.084,25.898 40.569,26.205C40.381,26.316 40.366,26.537 40.212,26.666C40.108,26.753 39.81,26.755 39.783,26.791C39.623,27.011 40.469,27.562 38.911,27.823C38.716,27.855 38.481,27.718 38.337,27.771C38.193,27.825 38.039,28.183 37.869,28.211C37.727,28.235 37.554,27.993 37.359,27.967C36.852,27.898 36.373,27.815 35.906,27.742C35.317,27.651 34.77,28.398 34.359,27.442C33.875,28.276 33.92,27.79 33.555,27.739C33.399,27.718 33.214,27.856 33.073,27.818C32.87,27.763 32.814,27.27 32.385,27.217C31.786,27.142 31.271,27.69 30.708,27.456L30.502,27.831L30.31,27.831C30.084,27.295 29.802,27.433 29.277,27.431C29.099,27.482 29.391,28.066 28.476,27.972C27.869,27.909 28.002,27.433 27.641,27.364C27.185,27.278 26.271,27.598 25.727,27.187L26.095,19.893L36.301,18.798C36.602,18.704 36.54,18.184 36.497,17.919C36.127,17.798 35.543,17.713 35.592,17.186C35.63,16.777 36.255,16.739 36.555,16.594C36.634,16.556 36.64,16.377 36.673,16.361C37.254,16.07 37.576,16.995 37.953,17.184C37.919,17.665 37.515,17.396 37.295,17.46C36.7,17.635 36.734,18.159 36.777,18.686C37.878,18.582 38.978,18.422 40.073,18.258C40.69,18.166 42.609,17.64 43.045,17.839C43.704,18.139 44.313,19.733 44.359,20.444C44.408,21.199 44.317,23.494 44.213,24.227C44.028,25.53 43.305,25.451 42.363,25.775C42.178,25.838 42.066,26.068 41.908,26.113M42.714,74.343C42.741,74.303 43.479,73.863 43.54,73.848C43.852,73.773 44.174,74.01 44.541,73.956C44.837,73.912 45.339,73.385 45.583,73.443L45.92,73.891C45.423,73.969 45.281,74.574 45.108,74.656C44.751,74.824 44.266,74.507 44.107,74.622C43.996,75.946 42.35,74.898 42.714,74.343M45.917,71.152C45.602,70.943 45.965,70.601 45.994,70.368C46.022,70.139 45.729,69.667 46.138,69.532L47.534,69.519C47.857,68.569 48.489,68.728 49.319,68.534L49.121,68.204C48.704,68.588 48.455,68.322 48.109,68.365C47.717,68.414 47.391,68.771 46.969,68.729C46.626,68.36 48.184,67.674 48.536,67.815L48.555,67.18C48.841,67.055 49.113,66.916 49.319,67.229L48.93,67.749C49.762,68.503 50.769,68.25 51.803,68.205L51.034,67.601C51.366,67.21 50.997,66.497 51.413,66.306C51.586,66.227 51.82,66.403 52.066,66.327C52.321,66.25 52.662,65.691 52.919,66.249C53.003,66.433 52.82,66.67 52.873,66.928C52.899,67.056 53.327,67.892 53.459,67.933C54.163,67.775 56.359,67.787 56.862,67.382C56.942,67.318 56.964,67.077 57.107,67.035C57.309,66.977 57.74,67.45 58.628,67.127C59.643,66.757 60.539,66.711 61.638,66.478C62.735,66.246 64.222,65.624 65.229,65.487C65.38,65.467 65.521,65.422 65.661,65.518C65.856,65.658 65.8,66.669 65.79,66.972C65.747,68.25 65.585,69.499 65.511,70.755C65.496,71.012 65.684,71.308 65.633,71.513C65.586,71.705 64.695,72.736 64.347,72.651C64.358,73.031 64.776,73.157 64.937,73.561C65.592,75.209 64.344,74.465 63.692,73.761C63.425,73.471 63.417,72.928 62.846,72.924L48.406,75.786C48.61,75.049 47.939,74.91 47.696,74.469C47.651,74.388 47.266,73.522 47.254,73.469C47.157,73.006 47.958,70.962 47.036,70.953C46.748,70.95 46.331,71.429 45.917,71.152M48.667,79.183C49.123,79.214 49.946,78.955 49.842,79.704C49.752,79.791 48.55,79.649 48.667,79.183M55.592,77.808C55.487,77.42 56.719,76.492 56.987,76.456C57.163,76.433 57.27,76.708 57.421,76.644L57.878,76.179C58.3,76.484 58.519,77.039 57.94,77.293C57.554,77.462 57.444,77.073 57.244,77.105C57.101,77.127 55.789,78.533 55.592,77.808M62.386,76.57C62.504,76.692 62.06,77.538 61.8,77.483C61.327,77.383 61.944,76.359 62.386,76.57M62.91,75.263L63.506,75.384C63.952,76.014 62.688,76.519 62.91,75.263M62.958,65.081C63.777,65.331 62.607,65.842 62.258,65.925C61.341,66.142 62.378,64.904 62.958,65.081M56.857,65.293C56.75,65.422 56.363,65.613 56.187,65.6L55.742,65.159C56.031,64.072 57.579,64.432 56.857,65.293M54.944,64.544C54.414,64.166 55.427,62.971 55.983,62.981C56.306,63.518 55.45,64.905 54.944,64.544M65.631,20.689C65.446,20.961 64.861,21.406 64.799,21.563C64.716,21.771 64.899,21.974 64.858,22.13C64.75,22.541 64.192,22.207 63.919,22.239C63.231,22.321 62.496,23.141 61.734,22.475L61.716,22.978C61.435,23.208 61.065,22.989 60.813,23.054C60.284,23.19 58.87,24.79 59.579,23.127C59.375,22.862 58.483,22.811 58.171,22.898C56.242,23.435 53.989,23.513 51.903,23.816C51.137,23.928 50.454,24.474 49.844,23.844C48.984,22.956 49.098,21.113 49.184,19.922C49.289,18.475 49.913,17.736 50.528,16.497L54.881,15.426C56.614,15.694 57.574,13.935 59.118,13.516C59.658,13.369 59.872,13.745 60.081,13.702C60.214,13.675 60.323,13.427 60.521,13.357C60.814,13.253 61.322,13.275 61.664,13.061C61.988,12.99 61.89,13.418 61.799,13.59C61.615,13.938 60.902,13.948 60.95,14.373C61.216,14.589 64.928,13.583 65.595,13.608C66.03,13.624 66.539,14.262 66.802,14.596C66.729,15.277 66.954,16.173 66.935,16.793C66.925,17.1 66.748,17.402 66.709,17.718C66.684,17.916 66.856,18.136 66.809,18.333C66.779,18.462 65.762,20.499 65.631,20.689M65.063,11.368C64.645,11.488 64.26,10.66 64.347,10.324C64.924,10.042 65.593,11.215 65.063,11.368M34.558,18.111C34.176,18.219 33.288,17.752 32.727,18.032C32.635,16.982 33.368,17.383 33.941,17.222C34.232,17.14 34.575,16.474 35.079,16.786C35.674,17.155 35.044,17.974 34.558,18.111M23.542,70.404C22.988,70.239 23.279,69.255 23.617,69.272C23.768,69.279 24.158,69.431 24.216,69.596C24.337,70.169 24.195,70.599 23.542,70.404M20.052,57.884C19.806,57.246 20.483,56.43 20.907,57.096C21.125,57.439 20.151,57.995 20.052,57.884M20.713,67.615C20.982,67.771 20.466,69.486 19.791,69.252L19.783,68.875L19.068,68.733C18.352,67.373 19.731,67.439 20.713,67.615M6.07,68.599L5.811,69.32C5.565,69.442 5.32,69.431 5.157,69.182C5.134,68.626 5.623,68.544 6.07,68.599M1.966,68.615L3.055,68.87C3.417,70.048 1.178,69.185 1.966,68.615M20.569,22.143C20.535,23.158 20.77,25.886 20.475,26.622C20.075,27.62 18.195,27.428 17.698,27.765C17.5,27.899 17.513,28.408 17.422,28.469C17.326,28.534 16.684,28.443 16.253,28.672C15.694,28.969 15.686,29.753 14.955,29.399L15.087,28.224C13.996,27.907 14.366,29.058 13.389,29.138C13.433,28.509 12.986,28.039 12.798,27.441L12.603,27.963C12.19,28.051 12.371,27.702 12.343,27.439C11.401,27.524 10.424,27.162 9.666,27.838L9.272,27.573C8.637,28.16 9.97,28.176 9.284,28.89C8.884,29.207 7.577,28.922 7.051,28.903C6.789,28.894 6.498,29.037 6.139,29.012C5.642,28.978 5.365,28.649 4.962,28.607C4.29,28.536 3.18,29.165 2.805,28.291L3.716,27.897C3.447,27.619 3.067,27.653 2.737,27.442C2.405,27.229 1.668,26.023 1.367,26.265C1.899,27.403 -0.304,26.995 -0.071,26.002L-0.462,26.004C0.036,26.869 -1.275,26.734 -1.244,26.46C-0.597,26.191 -1.002,26.039 -0.93,25.601C-0.845,25.092 -0.319,25.355 -0.04,25.315C0.509,25.236 0.872,25.009 1.497,25.219L1.759,20.841L1.973,20.533L20.706,20.384C20.816,20.984 20.587,21.586 20.569,22.143M2.551,13.531C2.425,13.827 2.103,14.614 1.695,14.503C1.386,14.42 1.656,13.985 1.573,13.85C1.54,13.796 0.549,13.234 0.488,13.217C0.144,13.121 -0.577,13.637 -1.115,13.328C-1.017,14.002 -1.265,14.419 -1.766,14.831C-1.419,15.35 -1.074,14.682 -0.79,14.678C0.641,15.606 -0.589,16.205 -1.862,15.708C-2.657,15.399 -3.368,13.732 -2.68,13.136C-2.62,13.084 -1.748,12.674 -1.693,12.67C-1.395,12.649 -1.229,12.95 -1.068,12.924C-0.895,12.896 -0.563,12.358 -0.322,12.228C0.869,11.59 1.774,12.891 2.551,13.531M-4.419,17.361C-4.614,17.305 -4.722,16.983 -4.968,16.984C-5.168,16.984 -5.349,17.248 -5.555,17.317C-5.796,17.398 -6.058,17.375 -6.309,17.478C-6.634,17.611 -6.754,18.072 -7.305,17.887C-7.652,17.771 -7.489,17.143 -7.518,16.856C-8.59,17.194 -9.89,16.46 -8.875,15.426L-8.434,15.748L-8.102,15.684L-8.04,14.634C-7.439,14.468 -7.552,14.874 -7.33,15.03C-7.201,15.12 -6.437,15.639 -6.382,15.655C-6.08,15.741 -5.751,15.608 -5.43,15.748C-4.859,15.998 -4.9,17.256 -4.186,15.814C-3.808,16.296 -3.678,16.314 -3.086,16.211C-2.609,16.866 -3.94,17.496 -4.419,17.361M-3.99,15.158C-4.355,15.132 -5.131,15.254 -5.395,14.995C-5.676,14.72 -5.427,14.066 -5.367,13.716C-4.885,13.027 -3.685,14.546 -3.99,15.158M-7.32,14.242C-7.856,14.138 -7.108,12.982 -6.672,13.067C-6.154,13.168 -7.05,14.295 -7.32,14.242M-8.872,14.625C-9.418,14.53 -9.156,13.711 -8.631,13.851C-8.233,13.957 -8.525,14.685 -8.872,14.625M-1.13,18.866L-2.291,19.338L-2.009,18.316C-1.414,18.014 -0.982,18.122 -1.13,18.866M-0.67,22.986C-0.103,23.404 -1.843,23.906 -2.095,23.388C-2.177,23.22 -2.172,23.047 -2.161,22.867L-0.67,22.986ZM-0.399,67.556L-0.299,67.193C0.005,66.916 0.895,67.089 1.299,67.166C1.436,67.192 1.576,67.096 1.496,67.355C1.153,68.462 0.224,68.467 -0.399,67.556M-0.085,69.084C-0.053,69.205 -0.55,70.381 -0.675,70.418C-2.038,70.246 -1.883,69.258 -1.228,68.358C-0.818,68.101 -0.167,68.768 -0.085,69.084M-4.155,67.194C-5.064,67.626 -4.887,66.274 -4.205,66.399C-3.845,66.464 -3.695,66.975 -4.155,67.194M-4.271,70.539C-4.501,70.619 -5.245,70.604 -5.165,70.235C-4.725,69.544 -3.78,69.663 -4.271,70.539M-12.221,68.861C-11.703,68.692 -11.449,69.195 -11.173,69.314C-10.897,69.432 -10.474,69.244 -10.525,69.577C-10.927,70.343 -12.58,69.208 -12.221,68.861M-20.597,67.672C-20.919,67.717 -22.286,68.207 -22.288,67.617C-22.29,67.101 -20.222,66.574 -20.597,67.672M-8.764,19.732C-8.395,19.767 -8.227,20.221 -7.449,20.131C-6.941,20.072 -5.801,19.172 -5.496,19.198C-5.005,19.239 -5.181,20.121 -4.776,20.32C-3.833,20.785 -2.71,19.377 -2.549,21.371C-2.531,21.592 -2.663,21.811 -2.646,22.001C-2.62,22.29 -2.256,22.544 -2.292,22.866L-3.404,22.731L-3.665,22.865L-3.996,25.133C-3.94,25.36 -2.918,25.399 -2.835,25.502C-2.748,25.611 -2.706,26.813 -2.031,25.809L-2.592,25.481L-2.684,25.089C-1.856,25.017 -1.106,25.133 -1.434,26.142C-1.564,26.327 -3.258,26.22 -2.944,27.179C-2.28,26.593 -1.442,27.281 -0.985,27.831C-1.766,28.042 -2.578,27.915 -3.368,27.798C-4.162,27.681 -4.413,27.231 -5.213,27.813C-6.026,26.843 -5.959,27.387 -6.667,27.453C-7.122,27.495 -8.616,27.461 -9.151,27.438C-11.832,27.324 -15.135,26.368 -17.644,26.383C-18.155,26.385 -18.69,26.569 -18.233,27.116C-17.96,27.444 -17.737,27.084 -17.509,27.055C-17.236,27.02 -16.065,27.041 -16.333,27.573C-17.079,28.588 -17.371,27.113 -18.178,27.835C-19.161,27.996 -19.168,26.459 -19.542,26.071C-19.846,25.756 -20.789,25.659 -21.01,25.188C-21.341,24.485 -20.819,23.904 -20.835,23.205C-21.708,23.018 -21.244,22.478 -21.087,21.838L-20.576,21.74C-20.414,20.721 -20.073,19.655 -20.313,18.637C-20.048,18.127 -19.453,18.804 -19.136,18.371C-18.938,18.101 -18.976,17.233 -18.754,16.857C-18.472,16.803 -18.403,17.02 -18.36,17.247L-17.708,16.918L-17.319,17.575L-17.578,18.293C-16.978,18.411 -16.398,18.119 -16.274,17.51C-16.955,18.019 -16.914,16.432 -16.674,16.259C-16.262,16.001 -16.096,16.422 -15.869,16.519C-15.643,16.615 -15.367,16.617 -15.175,16.739C-14.816,16.965 -14.828,17.532 -14.052,17.444C-14.467,17.966 -14.944,18.13 -15.565,18.288C-15.623,18.363 -15.51,18.978 -15.461,19.049C-15.385,19.158 -12.956,19.492 -12.827,19.459C-12.652,19.414 -12.562,19.18 -12.616,19.014C-12.675,18.833 -13.038,18.902 -13.005,18.687C-12.711,18.789 -12.434,18.585 -12.626,18.307C-12.699,18.201 -14.004,17.883 -13.601,17.372C-13.352,17.332 -12.851,16.997 -12.679,16.992C-12.46,16.985 -12.29,17.214 -12.135,17.227C-11.969,17.241 -11.838,17.013 -11.642,17C-11.382,16.982 -10.367,17.168 -10.204,17.386C-9.378,18.488 -10.948,18.97 -11.046,19.406C-11.205,20.119 -8.956,19.715 -8.764,19.732M-11.431,13.248C-11.531,12.641 -9.944,12.605 -9.608,12.676C-9.263,13.471 -11.329,13.867 -11.431,13.248M-12.744,15.55C-12.43,15.593 -11.858,15.82 -11.823,16.139C-11.722,17.058 -13,16.302 -12.744,15.55M-11.668,13.509C-11.631,13.731 -10.996,14.011 -11.172,14.499L-10.543,14.524L-10.392,15.026C-11.395,15.313 -12.527,15.89 -12.092,14.243C-12.421,14.445 -12.674,14.844 -13.124,14.755C-13.168,14.51 -13.377,14.269 -13.399,14.033C-13.414,13.873 -12.908,12.661 -12.811,12.544C-12.494,12.163 -11.771,12.601 -11.628,12.942C-11.525,13.187 -11.694,13.351 -11.668,13.509M-12.957,12.143L-13.532,12.078C-13.805,12.275 -13.388,13.15 -14.258,13.195C-14.954,13.232 -15.399,12.422 -14.931,11.924C-14.429,11.39 -13.589,11.98 -13.073,11.363C-12.648,11.355 -12.627,12.059 -12.957,12.143M-16.796,16.072C-17.303,16.185 -17.984,15.505 -17.694,15.043C-17.584,14.87 -16.984,14.922 -16.859,15.157L-16.796,16.072ZM-19.188,14.335C-19.52,14.73 -20.352,14.746 -20.457,14.176C-20.718,12.749 -18.38,13.372 -19.188,14.335M-22.629,13.709C-23.328,13.527 -23.01,12.807 -22.935,12.283C-22.038,12.402 -21.845,13.238 -22.629,13.709M-24.25,11.824C-24.249,12.108 -22.922,12.987 -23.656,13.196C-24.185,13.348 -23.974,12.395 -24.812,12.452C-25.135,12.474 -25.433,12.873 -25.681,12.476C-25.426,12.047 -25.324,11.88 -25.358,11.367C-25.202,11.134 -25.007,11.362 -24.823,11.354C-24.435,11.336 -24.23,10.767 -24.402,10.478C-24.439,10.417 -24.629,10.388 -24.702,10.325C-24.931,10.069 -24.08,9.962 -23.796,10.177C-23.652,10.286 -23.771,10.883 -23.477,11.069L-24.25,11.824ZM-25.81,23.651C-24.716,23.444 -24.251,24.19 -25.465,24.445L-25.81,23.651ZM-25.418,67.031L-24.445,67.691C-23.939,68.223 -24.917,68.656 -25.296,68.018C-25.487,67.697 -25.42,67.391 -25.418,67.031M-25.029,64.287L-24.832,64.806L-24.438,64.551L-24.254,65.191L-25.425,65.408C-25.668,65.006 -25.691,64.162 -25.029,64.287M-27.647,72.967L-26.856,73.043L-27.115,73.632C-27.589,73.922 -28.018,73.418 -27.647,72.967M-25.513,18.328C-25.392,18.578 -25.658,19.568 -25.805,19.671C-26.012,19.817 -26.876,19.753 -27.115,20.188L-26.6,20.391C-26.902,21.449 -26.647,21.09 -26.259,21.548C-25.769,22.129 -26.322,22.376 -26.847,22.003L-27.117,22.148L-27.117,24.761C-27.26,24.981 -27.469,24.96 -27.705,24.97C-28.495,25.004 -29.995,24.679 -30.861,24.573C-33.968,24.194 -37.472,23.745 -40.577,22.934C-40.976,22.829 -41.685,22.776 -41.724,22.257C-41.739,22.056 -41.528,21.854 -41.496,21.618C-41.439,21.19 -41.52,20.739 -41.361,20.318L-40.976,14.036L-33.291,15.526L-32.868,15.158L-32.861,15.675C-31.059,16.077 -29.073,16.321 -27.34,16.881C-26.951,17.007 -26.838,17.371 -26.334,17.119L-26.986,18.293C-26.928,18.356 -25.872,17.584 -25.513,18.328M-27.047,15.418C-27.362,15.326 -27.388,14.373 -26.812,14.523C-26.198,14.682 -26.537,15.568 -27.047,15.418M-33.26,15.288C-33.449,15.429 -34.66,14.33 -33.975,13.982C-33.365,14.31 -32.898,14.533 -33.26,15.288M-34.043,9.018L-34.693,10.262C-35.784,10.498 -35.539,9.433 -35.093,8.814L-34.043,9.018ZM70.885,69.323C70.923,67.789 70.837,65.835 71.008,64.35C71.034,64.124 71.072,63.842 71.277,63.704C75.069,63 78.88,62.37 82.666,61.635C84.442,61.29 86.731,60.532 88.47,60.377C88.737,60.353 88.987,60.306 89.171,60.565C89.244,60.848 88.956,60.698 88.868,60.916C88.385,62.112 89.22,65.41 88.574,66.498C88.164,67.188 86.13,67.315 85.299,67.53C84.086,67.844 82.459,68.145 81.069,68.531C79.753,68.897 76.188,69.831 75.16,70.331C74.907,70.454 74.766,70.744 74.575,70.8C74.258,70.891 73.929,70.687 73.578,70.698C72.981,70.717 71.323,71.458 70.898,71.193C70.546,70.564 70.87,69.931 70.885,69.323M71.403,74.347C71.385,73.424 71.665,72.033 72.916,72.637C73.532,73.336 72.37,73.699 72.054,74.281L71.403,74.347ZM74.408,71.734C74.822,71.963 76.706,72.048 76.497,72.71C76.444,72.878 76.143,72.863 76.019,72.955C75.926,73.023 75.913,73.233 75.761,73.286C74.943,73.572 74.033,72.532 74.408,71.734M77.413,71.866C77.836,71.788 78.129,72.102 78.523,72.135C78.987,72.174 79.63,71.766 79.633,72.387C78.918,72.348 77.473,72.948 77.413,71.866M77.806,75.655C78.336,75.634 78.324,76.435 77.999,76.698C77.646,76.871 77.647,75.838 77.806,75.655M83.617,72.649C84.089,72.774 83.595,73.569 83.245,73.554C82.559,73.302 83.203,72.54 83.617,72.649M84.072,71.397C85.119,71.394 85.67,71.128 85.513,72.518L84.879,72.399C84.44,73.788 83.612,71.712 84.072,71.397M84.204,73.495L84.729,73.433L84.729,74.217C84.33,74.345 83.821,73.748 84.204,73.495M86.887,70.94C88.248,71.066 86.204,72.29 85.906,71.996C85.773,71.222 86.095,70.866 86.887,70.94M87.649,15.79C86.401,16.431 83.476,16.755 81.957,17.154C79.025,17.926 76.124,18.951 73.145,19.593C72.442,19.715 71.672,18.263 71.657,17.701C71.649,17.395 71.796,17.11 71.8,16.796C71.822,15.106 71.378,13.077 73.052,12.038C76.286,11.332 79.54,10.706 82.775,10.001C84.389,9.65 86.121,9.078 87.708,8.793C88.055,8.731 88.473,8.578 88.814,8.646C89.109,8.704 90.137,9.688 90.249,9.965C90.982,11.77 89.292,14.945 87.649,15.79M89.829,63.432C90.393,63.155 90.399,63.786 90.712,63.919C90.845,64.2 89.917,65.02 89.621,64.55C89.552,64.44 89.583,63.552 89.829,63.432M88.399,7.241C87.825,7.353 87.846,7.979 87.213,7.84C87.014,7.643 87.735,5.936 88.06,6.012L88.399,7.241ZM79.101,7.365C77.727,9.051 77.951,6.684 78.636,6.805L79.101,7.365ZM93.122,68.104C93.146,68.061 93.881,67.588 93.961,67.581C94.111,67.566 94.657,67.828 94.727,67.943C95.079,68.514 94.099,68.924 94.529,69.643L94.138,69.645C94.149,68.998 93.799,68.45 93.091,68.598C93.106,68.438 93.044,68.247 93.122,68.104M94.887,66.358C94.427,66.281 94.182,65.812 94.135,65.4C93.92,63.548 94.308,61.392 94.268,59.518L94.473,59.2C97.446,58.666 100.411,58.064 103.382,57.525C104.519,57.319 106.183,57.293 107.234,56.935C107.616,56.805 107.79,56.593 108.055,56.317L108.57,56.718L113.083,55.924L112.831,55.019C113.158,54.829 113.716,54.932 113.747,55.341C113.768,55.616 113.502,55.767 113.488,55.982C113.42,57.093 113.627,58.593 113.469,59.772L111.509,63.039C106.555,64.384 101.451,65.152 96.401,66.093C96.2,66.13 96.034,66.304 95.877,66.331C95.81,66.343 94.936,66.366 94.887,66.358M114.402,61.363C114.673,60.8 115.269,60.357 115.306,61.281L114.788,61.293L114.782,61.674L114.402,61.363ZM115.297,7.767C114.783,9.406 113.945,9.488 112.432,9.867C109.539,10.592 106.516,11.17 103.643,11.793C102.566,12.026 98.135,13.228 97.403,12.872C97.004,12.678 96.383,11.088 96.37,10.638C96.669,9.954 96.257,8.366 96.658,7.877C96.826,7.673 99.37,6.424 99.798,6.249C100.316,6.037 100.916,5.845 101.455,5.685C104.269,4.848 109.57,3.488 112.398,3.17C113.294,3.069 114.821,3.247 115.434,3.987C115.805,4.436 115.509,7.088 115.297,7.767M118.701,60.236L118.967,55.079C118.989,54.913 119.072,54.758 119.225,54.683C119.565,54.517 121.73,54.295 122.296,54.227C124.153,54.003 126.04,53.931 127.897,53.686C130.93,53.287 133.958,52.766 136.862,51.803C137.259,51.617 136.766,50.893 137.459,50.822C137.853,50.782 138.396,51.863 138.892,51.844C139.294,51.828 139.055,51.233 139.104,51.055C139.205,50.682 140.295,50.097 139.147,49.526L139.086,49.328C139.577,49.298 139.937,48.388 140.078,48.355C140.268,48.311 141.884,49.26 142.555,49.264C143.071,49.268 143.297,49.05 143.923,49.195C144.837,49.407 144.15,50.051 144.77,50.176C147.393,49.954 149.985,49.33 152.61,49.131C155.464,48.916 158.361,49.024 161.225,49.137C161.546,49.16 162.237,49.736 162.317,50.006C162.432,50.4 162.393,52.595 162.348,53.12C162.239,54.383 161.239,55.789 160.938,57.067L160.286,57.461C156.858,57.635 153.42,57.768 149.997,58.016C148.614,58.117 146.853,58.523 145.538,58.526C145.06,58.527 144.277,58.104 144.044,57.695C143.637,56.982 144.124,54.572 144.187,53.643C144.228,53.034 144.031,52.011 144.092,51.57C144.116,51.399 144.591,50.455 144.442,50.307C143.86,50.614 143.027,50.162 142.556,50.297C142.417,50.337 142.547,50.579 142.401,50.708C142.356,50.749 141.56,51.093 141.496,51.091L141.307,51.031C140.275,49.573 140.601,51.267 140.467,51.749C140.375,52.08 140.046,52.105 139.935,52.273C139.859,52.387 139.956,52.589 139.899,52.75C139.815,52.989 139.577,53.165 139.609,53.441C141.529,52.681 140.373,54.37 139.086,53.833C139.002,53.919 138.958,55.792 138.789,56.216C138.693,56.46 138.452,56.614 138.328,56.931C137.95,57.899 138.472,58.213 137.322,58.8C135.725,59.616 134.441,59.476 132.767,59.732C128.993,60.309 124.459,61.335 120.726,61.541C119.628,61.601 119.406,61.511 118.75,60.644C117.595,61.311 117.416,59.836 118.701,60.236M134.642,60.303C134.798,60.823 133.879,60.966 133.728,60.758C133.443,60.363 134.48,59.765 134.642,60.303M135.739,62.207C136.261,62.377 135.884,63.531 135.159,63.051C134.844,62.843 135.185,62.026 135.739,62.207M160.038,8.243C160.277,8.286 160.794,8.969 160.645,9.277L159.997,9.284L159.859,10.061C159.275,10.489 159.42,8.133 160.038,8.243M157.164,10.726C157.602,10.867 157.356,12.019 156.815,11.875C156.012,11.662 156.323,10.455 157.164,10.726M154.014,5.914C154.454,5.438 154.972,6.469 154.286,6.646C153.799,6.771 153.753,6.196 154.014,5.914M162.277,4.181C161.537,4.279 158.903,4.21 158.508,4.436C158.349,4.528 158.51,5.523 157.65,4.89C157.474,4.76 157.496,4.487 157.179,4.435C156.799,4.372 156.554,4.675 156.256,4.704C155.7,4.76 154.549,4.373 153.932,4.59C153.427,5.623 153.482,4.917 153.171,4.733C152.762,4.491 148.48,5.048 147.508,4.971C146.831,4.916 146.013,4.766 145.885,3.98C146.008,2.857 146.071,1.716 146.151,0.59C146.194,-0.012 145.842,-0.593 146.485,-1.028C147.978,-2.038 150.724,-1.844 152.477,-1.96C153.334,-2.017 154.229,-2.177 155.086,-2.226C155.599,-2.255 157.323,-2.087 157.577,-2.349C157.867,-2.647 157.597,-3.018 158.358,-3.018C159.126,-3.018 159.023,-2.434 159.284,-2.373C159.398,-2.346 159.709,-2.488 159.92,-2.488C160.586,-2.488 161.647,-2.576 162.249,-2.452C162.58,-2.384 164.383,-1.304 164.498,-1.043C164.756,-0.452 164.514,0.227 164.563,0.708C164.587,0.943 164.833,1.165 164.8,1.349C164.787,1.427 164.217,2.608 164.126,2.764C163.664,3.559 163.201,4.058 162.277,4.181M164.043,4.052L164.561,4.053C164.481,4.273 164.875,5.154 164.497,5.227C164.025,5.318 164.072,4.309 164.043,4.052M164.827,3.595C164.942,3.215 166.457,3.759 166.758,3.883C167.292,4.104 167.441,4.37 167.843,4.627C168.017,4.739 168.713,4.933 168.74,4.973C168.82,5.093 168.723,5.437 168.54,5.475C167.889,5.355 166.22,5.242 165.742,4.768C165.599,4.626 165.603,4.375 165.487,4.24C165.272,3.989 164.725,4.097 164.827,3.595M168.751,52.206C168.791,51.668 168.578,50.197 168.932,49.904C169.228,49.658 169.881,49.751 170.182,49.586C170.528,49.397 170.304,48.864 171.041,48.747C173.182,48.406 176.207,48.951 178.442,48.776C179.76,48.848 181.088,48.939 182.395,49.005C184.217,49.096 187.936,48.552 187.952,51.287C187.574,52.638 187.953,54.715 187.552,55.98C187.359,56.587 186.149,57.312 185.542,57.368C184.249,57.489 182.868,57.242 181.621,57.226C178.012,57.178 173.746,57.547 170.243,57.236C167.636,57.005 168.617,53.997 168.751,52.206M174.234,59.582L174.234,58.8L175.018,58.931C175.019,59.411 174.693,59.613 174.234,59.582M175.536,60.821C175.531,60.436 175.951,60.511 176.193,60.498C176.214,60.276 176.337,59.262 176.386,59.187C176.73,58.659 177.396,59.691 177.245,60.099C178.349,59.695 178.203,61.595 178.284,61.674C178.338,61.726 179.383,61.713 179.575,62.281L179.533,62.726C178.861,63.161 178.929,62.565 178.668,62.27C178.022,61.539 177.751,62.59 177.371,62.4C176.277,61.853 178.381,60.373 176.193,60.498C176.144,61.034 176.12,61.119 176.323,61.673C176.153,61.855 175.539,61.025 175.536,60.821M186.321,4.311C184.45,4.228 182.566,3.766 180.707,3.654C177.861,3.482 174.417,3.989 171.682,3.663C171.186,3.603 170.767,3.218 170.246,3.255C169.858,3.283 169.412,3.724 168.877,3.528C168.75,3.42 169.712,2.309 169.764,2.13C169.83,1.902 170.025,0.746 170.053,0.459C170.119,-0.206 169.945,-0.906 170.12,-1.565C170.922,-2.351 172.009,-2.678 173.117,-2.749C174.853,-2.861 176.983,-2.789 178.747,-2.749C179.257,-2.737 179.748,-2.524 180.317,-2.606C180.605,-2.647 180.815,-2.873 180.963,-2.873C181.112,-2.873 181.32,-2.645 181.609,-2.605C183.798,-2.305 186.359,-2.883 188.38,-1.798C189.425,-1.236 189.115,1.218 189.123,2.293C189.128,2.984 189.478,3.031 188.866,3.723C188.183,4.497 187.281,4.354 186.321,4.311M184.1,-5.485C183.683,-4.791 182.925,-5.593 182.603,-5.69C181.864,-5.912 181.216,-5.465 181.7,-6.775C182.328,-6.869 184.725,-6.523 184.1,-5.485M180.505,-4.701C180.45,-3.668 178.827,-4.383 178.938,-4.897C179.052,-5.429 180.211,-4.691 180.505,-4.701M178.545,-5.031C178.286,-4.524 177.245,-4.316 177.903,-5.349C178.045,-5.381 178.674,-5.283 178.545,-5.031M172.012,-3.658C171.292,-3.505 170.394,-4.19 171.492,-4.392C171.805,-4.235 172.08,-4.056 172.012,-3.658M169.177,-5.769C168.37,-5.534 168.388,-6.811 169.315,-6.515C169.708,-6.389 169.513,-5.867 169.177,-5.769M168.074,1.68C167.705,1.914 167.027,1.515 167.365,1.037C167.76,0.478 168.623,1.332 168.074,1.68M169.199,-3.787C169.603,-3.671 169.349,-2.819 168.959,-2.883C168.405,-2.974 168.631,-3.951 169.199,-3.787M168.876,0.653L167.975,0.372C167.966,-0.079 168.217,-1.042 168.859,-0.635C169.187,-0.427 168.559,0.287 168.876,0.653M168.353,-2.807C168.42,-2.52 168.006,-2.536 167.873,-2.439C167.681,-2.298 167.661,-1.777 167.173,-2.281C166.531,-2.945 167.179,-3.866 167.805,-3.499C167.844,-3.477 168.343,-2.85 168.353,-2.807M167.438,-4.964L167.307,-4.05C166.51,-4.174 166.706,-5.023 167.438,-4.964M166.132,-1.175L166.07,-0.519L165.535,-0.513L165.408,-1.05L166.132,-1.175ZM138.74,47.71L138.954,48.213C137.767,48.758 137.778,47.404 138.74,47.71M135.602,47.844C135.913,47.943 135.905,48.364 135.602,48.46C135.248,48.554 134.979,48.439 134.774,48.148C134.698,47.786 135.362,47.768 135.602,47.844M134.029,12.435C134.428,12.548 134.509,13.069 134.12,13.264C133.281,13.686 133.175,12.193 134.029,12.435M131.44,51.875C131.907,52.005 131.465,52.834 130.985,52.657C130.939,52.338 130.956,51.741 131.44,51.875M129.678,9.932C130.46,9.811 130.755,10.096 130.855,10.846C131.334,10.95 131.423,10.415 131.832,10.321C132.412,10.219 131.644,11.392 131.421,11.489L130.336,11.233C130.589,10.172 129.842,10.667 129.678,9.932M129.285,10.845L128.427,10.594C128.42,9.204 129.107,9.921 129.285,10.845M126.594,9.005C125.703,9.3 126.073,7.867 126.303,7.734C126.43,7.66 126.647,7.728 126.802,7.709C126.761,8.024 126.956,8.885 126.594,9.005M122.033,12.02C121.445,12.102 121.585,11.355 121.446,10.977C122.031,10.66 122.465,11.891 122.033,12.02M141.304,4.506C141.233,4.875 140.252,5.705 139.895,5.841C138.641,6.318 136.832,5.99 135.519,6.3C135.117,6.395 134.868,6.805 134.576,7.055C134.237,7.199 134.442,6.595 134.382,6.533C130.286,6.855 126.232,7.461 122.174,8.092L120.291,7.231L120.686,1.984C120.854,1.841 122.716,1.547 123.111,1.339C123.401,1.186 123.433,0.806 123.734,0.776C123.998,0.75 124.544,1.073 125.167,1.045C129.125,0.865 133.463,-0.453 137.584,-0.651C138.169,-0.679 139.415,-0.745 139.931,-0.649C140.341,-0.572 141.162,1.022 141.249,1.431C141.358,1.947 141.399,4.006 141.304,4.506M131.376,-0.392C130.722,-0.396 129.567,-0.709 130.525,-1.305L131.285,-0.784L131.376,-0.392ZM130.187,-2.657C129.857,-1.429 128.662,-2.363 127.849,-2.09L128.369,-3.073L127.979,-3.72L128.467,-4.032L128.964,-3.786L129.019,-3.2C129.424,-3.06 129.957,-3.095 130.187,-2.657M119.145,4.954C118.402,5.196 118.398,4.027 118.876,4.068C119.356,4.109 119.569,4.816 119.145,4.954M118.637,3.918C118.007,3.681 118.542,2.475 119.027,2.615C119.549,2.766 118.833,3.728 118.637,3.918M110.059,-1.524C109.867,-0.779 108.617,-1.4 109.88,-1.959L110.059,-1.524ZM190.698,-3.46C190.724,-3.581 191.726,-4.054 191.905,-4.03C192.221,-3.989 193.533,-3.059 193.31,-2.874C192.421,-2.604 191.74,-3.839 191.003,-3.151L190.698,-3.46ZM192.004,62.718C192.141,62.088 193.415,62.281 193.31,62.782C193.207,63.27 192.322,62.532 192.004,62.718M192.95,55.176L193.147,50.469C193.807,49.705 194.444,49.351 195.473,49.385C198.864,49.498 202.282,49.998 205.659,50.305C207.358,50.459 208.731,49.953 209.904,51.548C210.844,52.827 209.809,55.672 210.028,57.303C210.097,57.819 210.433,57.823 210.59,58.179C211.024,59.164 209.627,59.528 209.904,58.146L208.536,58.803C204.587,58.389 200.585,58.111 196.629,57.896C196.292,57.878 196.124,58.071 195.661,57.957C194.478,57.663 193.157,56.406 192.95,55.176M194.486,60.106L195.139,60.106C194.956,60.838 195.179,61.588 195.269,62.327C194.567,61.811 194.543,60.898 194.486,60.106M200.848,63.699C200.844,63.547 200.246,63.117 201.15,63.112L201.05,63.578C201.853,63.928 201.12,64.643 200.497,64.547C200.353,64.237 200.851,63.824 200.848,63.699M202.196,62.458C202.507,62.265 203.586,62.78 203.24,63.11C203.096,63.248 202.132,62.831 202.196,62.458M208.597,62.85C208.603,63.208 208.546,63.634 208.271,63.892C207.997,63.904 207.881,62.609 208.597,62.85M205.038,6.632C203.524,6.398 201.942,5.865 200.416,5.635C198.811,5.392 195.534,5.467 194.261,4.995C194.162,4.958 193.614,4.59 193.563,4.518C193.259,4.096 193.692,1.919 193.708,1.247C193.755,-0.844 192.806,-2.131 195.69,-2.051C199.517,-1.945 203.564,-1.755 207.34,-1.29C208.63,-1.131 210.483,-0.754 211.564,-0.025C211.948,0.234 212.072,0.364 212.129,0.847C212.192,1.389 212.179,5.906 212.062,6.143C212.002,6.264 211.157,6.86 210.988,6.899C209.794,7.171 206.365,6.836 205.038,6.632M212.464,58.665C212.555,58.812 212.323,59.317 212.222,59.415C211.807,59.816 211.396,59.192 211.267,58.804C210.988,57.96 212.103,58.373 212.464,58.665M207.605,-2.494C207.064,-2.33 207.121,-3.124 207.304,-3.252C207.834,-3.622 208.188,-2.672 207.605,-2.494M205.341,-5.368L205.464,-6.14C206.408,-6.124 206.201,-4.936 205.341,-5.368M205.723,-3.657L204.742,-2.613C204.195,-2.676 204.698,-2.987 204.75,-3.056C205.016,-3.403 205.212,-3.704 205.723,-3.657M202.036,-3.684C202.006,-3.633 201.593,-3.431 201.48,-3.396C201.148,-3.456 201.19,-4.878 201.607,-5.092C201.699,-5.093 202.189,-3.945 202.036,-3.684M198.536,-4.572C198.657,-4.462 198.224,-3.874 198.078,-3.789C197.721,-3.714 197.718,-4.351 197.752,-4.572L198.536,-4.572ZM193.031,-6.045C193.093,-5.586 192.738,-5.697 192.674,-5.604C192.639,-5.553 192.87,-5.297 192.729,-5.091C192.517,-4.779 191.556,-5.203 191.22,-5.228C191.017,-5.429 191.239,-5.458 191.417,-5.484C191.769,-5.535 192.163,-5.513 192.526,-5.619L192.266,-6.532C192.642,-6.605 192.977,-6.441 193.031,-6.045M212.811,54.514C212.846,54.453 213.095,54.446 213.152,54.276C213.239,54.018 213.107,53.664 213.191,53.398C213.355,52.886 214.333,53.284 214.738,53.181L214.607,53.702C214.708,53.84 216.118,53.714 215.534,54.432C215.02,55.063 214.521,53.876 213.946,54.282C213.672,54.476 214.003,55.19 213.628,55.399L212.793,54.997C212.766,54.85 212.736,54.641 212.811,54.514M214.558,50.561C213.821,50.297 214.209,48.397 214.853,48.757C215.235,48.97 215.327,50.505 214.558,50.561M216.037,58.872L216.204,52.62C216.337,52.318 218.134,51.343 218.302,51.368C218.542,51.404 218.79,51.722 219.049,51.811C221.635,52.693 225.27,53.286 228.037,53.929C229.063,54.167 231.459,54.379 232.238,54.823C232.506,54.976 233.004,55.596 233.141,55.881C233.636,56.91 233.594,59.895 233.417,61.078C233.275,62.024 232.029,61.975 231.282,62.183C226.708,60.898 221.779,60.646 217.19,59.68C216.754,59.588 216.052,59.417 216.037,58.872M221.078,66.639C221.489,66.531 221.852,67.193 221.794,67.553C221.564,67.781 220.483,66.795 221.078,66.639M232.909,12.614C232.692,12.534 232.295,12.832 231.893,12.505C231.702,12.349 231.365,11.851 231.084,11.672C231.14,10.707 232.056,11.307 232.543,11.625C232.689,11.721 232.712,11.969 232.905,12.081C233.363,12.345 234.059,12.33 233.946,13.197C233.499,13.309 233.092,12.682 232.909,12.614M234.068,11.443C233.581,11.09 229.969,10.609 229.082,10.418C227.929,10.169 226.781,9.81 225.614,9.574C223.667,9.18 221.4,9.025 219.516,8.486C218.864,8.3 218.239,7.586 218.067,6.93C217.754,5.738 218.298,4.328 218.005,3.136L216.96,3.267C216.917,2.949 217.047,2.626 217.268,2.4C217.666,1.992 218.029,2.25 218.141,2.169C218.28,2.069 218.344,1.262 218.721,0.912C218.884,0.762 220.087,0.158 220.285,0.15C225.199,0.993 230.214,1.757 235.028,2.904C237.029,3.381 236.033,5.519 236.295,6.865C236.357,7.183 236.613,7.137 236.659,7.215C236.935,7.691 236.559,7.891 236.169,7.449C235.865,8.557 236.135,9.965 235.383,10.911C235.085,11.285 234.553,11.375 234.598,11.891L234.405,11.89C234.259,11.776 234.216,11.549 234.068,11.443M236.307,12.731L236.429,13.328L235.792,13.312C235.596,12.805 235.692,12.53 236.307,12.731M226.104,-4.376C226.111,-4.013 224.18,-4.087 225.285,-4.815C225.353,-4.841 225.419,-4.827 225.489,-4.817C225.711,-4.785 225.951,-4.537 226.104,-4.376M237.666,6.797C237.697,6.804 238.154,7.154 238.175,7.178C238.535,7.593 237.685,7.867 237.344,7.971C237.346,7.727 237.224,6.692 237.666,6.797M238.017,62.361C238.353,60.68 237.758,58.195 239.312,57.044C239.87,56.631 240.35,56.528 241.034,56.612C241.806,56.706 242.764,57.049 243.591,57.19C247.276,57.817 249.646,58.568 253.154,59.648C253.792,59.844 256.024,60.239 256.362,60.49C256.44,60.548 257.153,61.801 257.227,61.977C257.715,63.136 257.286,63.87 257.206,65.007C257.132,66.056 257.571,68.745 255.925,68.517C254.543,68.326 253.038,67.621 251.711,67.232C247.595,66.026 243.446,64.957 239.309,63.824L238.017,62.361ZM245.694,67.083C245.727,67.042 246.531,66.542 246.582,66.53C246.62,66.521 247.259,66.537 247.37,66.544C247.532,66.555 247.56,66.556 247.663,66.704C247.216,66.918 247.222,67.061 247.273,67.553C246.742,67.678 246.769,67.069 246.36,66.9C246.398,67.265 246.654,67.525 246.301,67.826C246.1,67.997 245.666,67.771 245.601,67.66C245.505,67.495 245.579,67.227 245.694,67.083M253.997,18.419C254.212,18.102 254.718,18.517 254.966,18.572C255.057,18.958 254.816,19.668 254.328,19.409C254.06,19.17 253.821,18.789 253.997,18.419M248.966,17.505C248.521,17.535 247.984,17.233 248.058,16.726C248.785,16.69 249.346,16.624 248.966,17.505M246.346,18.308C246.663,18.506 246.418,19.433 245.829,19.02C245.418,18.732 245.904,18.032 246.346,18.308M242.569,15.614C243.247,15.036 243.566,15.729 243.88,15.873C244.087,15.968 244.376,15.902 244.532,16.005C244.637,16.073 244.757,16.508 244.889,16.693C245.179,17.099 245.554,17.241 245.449,17.833C245.38,18.219 244.869,18.386 244.521,18.239L244.399,17.508L244.007,17.51C244.11,17.643 244.099,18.082 243.993,18.149C243.806,18.268 243.265,18.138 243.15,17.899L243.212,17.074C242.708,16.849 242.001,16.099 242.569,15.614M243.616,19.341L242.569,19.284C241.832,18.251 243.169,18.379 243.82,18.682C243.538,19.252 244.02,19.347 244.01,19.519C243.998,19.752 243.827,20.317 243.485,20.253L243.616,19.341ZM255.01,15.719C251.686,14.974 248.179,14.36 244.976,13.601C244.103,13.394 243.193,13.31 242.309,13.198C242.062,14.09 242.934,13.963 243.231,14.43C243.512,14.871 243.39,15.125 242.881,15.152C241.998,15.2 242.285,14.536 241.976,14.119C241.788,13.864 241.309,13.845 241.165,13.689C241.104,13.624 240.56,12.472 240.61,12.415L241.13,12.218L240.48,11.761L240.48,12.348C240.423,12.815 239.091,11.499 240.331,11.614L240.389,11.471C240.572,10.294 240.738,9.086 240.869,7.904C240.983,6.881 240.592,5.666 241.863,5.229L241.786,4.706L244.047,4.595C245.995,5.459 248.329,5.864 250.438,6.441C252.279,6.944 255.859,8.38 257.546,8.491C257.987,8.52 258.506,8.068 258.522,8.82C258.527,9.066 258.378,9.299 258.436,9.544C258.52,9.897 259.03,10.213 259.037,10.777C259.04,10.995 258.905,11.217 258.903,11.435C258.896,12.661 258.916,14.297 258.775,15.487C258.738,15.804 258.547,16.26 258.247,16.397C257.665,16.664 255.736,15.881 255.01,15.719M260.272,7.318C260.717,7.406 260.525,9.034 259.678,8.437C259.233,8.123 259.838,7.231 260.272,7.318M260.531,9.926C260.72,9.636 261.872,10.174 262.046,10.387C262.141,10.503 262.131,10.702 262.211,10.804C262.413,11.062 262.955,11.089 262.629,11.762C261.644,12.768 259.982,10.767 260.531,9.926M262.564,64.486C262.871,63.91 263.892,62.945 264.549,63.006C265.944,63.134 268.339,63.824 269.776,64.193C271.246,64.571 272.732,64.994 274.193,65.395C274.502,65.48 274.84,65.786 275.206,65.832C275.641,65.886 275.885,65.578 276.066,65.613C276.325,65.662 276.669,66.426 277.296,66.488C277.718,66.53 277.696,66.111 278.143,66.14C278.798,66.182 278.481,66.859 278.113,67.096C278.332,67.537 278.985,67.618 279.247,67.855C279.427,68.018 279.751,68.962 279.767,69.204C279.82,70.012 279.757,72.013 279.668,72.835C279.649,73.006 279.322,74.337 279.277,74.404C278.047,75.268 277.215,75.357 275.779,75.046C273.141,74.473 270.396,72.847 267.707,72.258C267.23,72.198 266.492,73.983 266.022,73.04C265.701,72.399 266.68,72.199 266.42,71.861C266.18,71.547 263.928,71.217 263.338,70.632C262.511,69.812 262.67,65.749 262.564,64.486M271.151,75.995C271.122,75.707 270.724,75.556 270.791,75.077C270.826,74.826 271.224,74.324 271.383,74.087C271.644,74.025 272.383,75.3 272.436,75.519C272.501,75.786 272.328,76.461 272.492,76.83C272.166,76.779 271.175,76.995 271.064,76.616C271.004,76.412 271.17,76.181 271.151,75.995M280.331,20.056C280.25,20.946 280.176,23.616 278.862,23.495C274.498,21.745 270.159,19.944 265.605,18.713L263.892,16.631L264.113,13.345C264.049,13.249 263.259,13.234 263.346,12.873C264.409,12.453 264.947,11.278 266.021,10.858C268.604,11.607 271.218,12.315 273.771,13.16C275.042,13.581 278.068,14.447 279.049,15.069C279.368,15.271 280.395,16.831 280.455,17.19C280.559,17.804 280.394,19.356 280.331,20.056M258.516,8.173C258.083,8.445 257.839,7.816 258,7.591C258.277,7.202 259.126,7.789 258.516,8.173M240.218,21.822C240.235,22.146 239.818,23.881 239.305,23.52C239.055,23.344 239.433,21.437 240.218,21.822M238.39,5.555L238.388,6.404C236.981,6.516 238.329,5.052 238.39,5.555M283.467,78.922C283.358,79.491 283.402,80.139 283.338,80.688C283.315,80.883 283.232,81.086 283.076,80.88C283.295,80.262 282.454,78.859 283.467,78.922M-46.388,8.889C-46.822,9.42 -47.084,8.297 -47.368,8.495C-47.353,8.817 -47.729,8.951 -47.824,9.151C-47.917,9.349 -47.853,10.019 -48.218,9.931C-48.288,9.914 -48.982,8.85 -48.938,8.692C-48.829,8.304 -48.064,8.777 -47.789,8.465C-47.776,7.885 -47.348,7.18 -46.711,7.243C-46.415,7.76 -46.163,8.278 -46.388,8.889M-49.71,6.521C-49.969,5.98 -49.908,5.436 -49.281,5.235C-48.638,5.61 -48.924,6.714 -49.71,6.521M-49.624,7.939C-49.881,8.197 -50.465,8.118 -50.705,7.842C-50.996,5.71 -48.81,7.123 -49.624,7.939M-46.325,12.873C-47.241,13.834 -46.708,14.885 -46.709,16.007C-46.709,16.438 -46.849,16.799 -46.853,17.178C-46.869,18.594 -46.829,20.015 -46.848,21.43C-53.083,20.125 -59.237,18.28 -65.136,15.868C-65.66,15.598 -65.065,15.114 -65.01,14.831L-65.01,6.991C-65.01,6.908 -64.798,6.803 -64.683,6.79C-64.182,6.734 -62.68,7.539 -62.112,7.752C-61.845,7.852 -61.547,7.793 -61.316,7.871C-61.045,7.962 -60.9,8.321 -60.603,8.464C-60.186,8.665 -59.83,8.549 -59.485,8.653C-59.225,8.732 -58.945,9.163 -58.511,9.249C-57.692,9.411 -57.63,8.766 -57.132,8.904C-56.477,9.085 -56.927,10.826 -56.583,10.843C-56.254,10.537 -55.94,10.55 -55.543,10.707L-55.348,10.512L-55.471,9.801C-55.251,9.589 -53.565,10.702 -53.19,10.851C-52.33,11.194 -46.405,12.524 -46.325,12.873M-53.915,6.32C-54,6.505 -54.165,6.589 -54.359,6.533C-54.689,6.437 -54.356,5.746 -54.816,5.88L-55.257,6.387C-56.288,5.717 -55.261,4.892 -54.504,4.583C-54.17,4.66 -53.959,5.984 -53.915,6.32M-53.247,61.347C-53.11,61.193 -52.898,61.032 -52.683,61.05C-51.756,61.128 -52.32,62.418 -53.247,61.347M-69.596,68.14C-69.615,68.42 -69.453,68.736 -69.447,69.051C-69.421,70.429 -70.031,72.353 -68.252,72.821C-67.573,72.999 -67.237,72.699 -66.675,72.806C-65.967,72.941 -63.867,74.096 -62.951,74.445C-61.184,75.12 -57.852,76.312 -56.04,76.426C-55.663,76.45 -55.09,76.261 -54.906,76.32C-54.71,76.384 -54.652,76.702 -54.495,76.835C-54.303,76.997 -52.755,77.569 -52.496,77.595C-52.175,77.627 -51.932,77.238 -51.552,77.352C-51.553,77.551 -51.593,77.797 -51.423,77.943C-51.34,78.016 -49.603,78.536 -49.335,78.599C-46.701,79.22 -43.715,79.458 -41.04,79.974C-40.582,80.062 -39.901,80.457 -39.45,80.486C-38.011,80.578 -37.314,80.887 -35.943,81.148C-35.74,81.187 -35.609,81.36 -35.411,81.409L-35.211,81.347C-35.076,81.029 -34.954,80.613 -34.521,80.65C-33.808,80.711 -34.264,81.597 -33.714,81.671C-33.101,81.753 -33.183,81.287 -33.044,81.262C-32.859,81.229 -32.266,81.526 -31.888,81.544C-31.677,81.553 -30.791,81.467 -30.673,81.378C-30.537,81.276 -30.563,80.814 -30.501,80.763C-30.401,80.681 -29.915,80.855 -29.651,80.634C-29.455,80.47 -29.516,80.152 -29.391,79.974C-29.042,79.476 -28.229,79.091 -27.639,78.919L-28.153,77.808C-27.64,77.678 -27.677,77.018 -27.512,76.893C-27.398,76.806 -27.113,76.841 -26.916,76.705C-25.977,76.058 -25.152,74.499 -23.727,74.615C-23.805,74.975 -23.403,75.267 -23.354,75.488C-23.255,75.94 -23.833,76.601 -23.328,77.09C-23.647,77.085 -24.141,77.018 -24.312,77.35C-24.604,77.915 -23.612,77.773 -24.109,78.336C-24.842,78.457 -25.582,78.277 -26.071,78.989L-25.873,79.314C-24.724,78.62 -24.511,79.726 -25.679,79.839L-25.158,81.403C-26.44,81.36 -26.118,79.892 -26.716,79.133C-26.835,78.982 -26.964,79.064 -27.117,79.052C-27.264,79.196 -26.858,80.306 -26.86,80.574C-26.862,80.913 -27.234,81.384 -26.985,81.924L-26.202,81.925L-26.203,82.449C-25.585,82.231 -23.903,83.386 -23.513,82.847L-23.589,81.927L-23.109,82.328L-22.288,82.19L-22.209,82.709L-22.803,83.167C-22.324,84.034 -21.343,82.797 -20.972,83.035C-20.53,83.934 -19.422,83.413 -18.687,83.489C-18.072,83.552 -17.955,83.606 -17.258,83.618C-17.004,83.623 -16.745,83.797 -16.475,83.76C-16.116,83.711 -14.971,82.612 -14.836,82.711L-14.581,83.707C-14.26,83.701 -13.803,84.1 -13.71,84.119C-13.565,84.148 -13.326,83.995 -13.092,84.025C-11.137,84.28 -9.244,84.618 -7.256,84.409C-7.369,83.935 -7.135,83.448 -7.121,83.031C-7.092,82.176 -7.73,81.624 -6.21,81.733L-6.144,81.402L-6.465,80.963L-5.82,80.62C-5.995,81.626 -5.655,81.772 -4.896,82.262L-5.288,83.019C-5.25,83.235 -4.539,83.707 -4.512,83.427C-4.663,82.636 -4.32,82.951 -4.046,82.723C-3.872,82.578 -3.913,82.329 -3.824,82.224C-3.731,82.114 -3.47,82.106 -3.34,81.992C-2.888,81.593 -3.021,81.217 -2.097,81.406C-1.796,81.468 -1.632,81.84 -1.257,81.807L-1.247,82.187C-2.548,81.601 -1.687,82.354 -1.769,82.642C-2.043,83.002 -2.608,82.515 -2.667,83.189C-2.706,83.638 -1.358,83.282 -1.77,84.409C-2.128,84.538 -2.502,84.142 -2.753,84.148C-3.029,84.154 -3.127,84.619 -3.799,84.552C-4.368,84.496 -4.586,83.355 -5.166,84.669C-4.098,84.464 -4.407,84.906 -3.794,85.324L1.28,85.199C1.38,85.143 1.531,84.361 1.507,84.237C1.498,84.189 0.633,83.686 1.434,83.615C2.164,83.551 2.634,85.568 3.716,84.343C3.242,84.018 2.6,83.509 2.871,82.84C3.396,82.819 3.894,84.167 3.973,84.211C4.561,84.539 4.906,84.158 4.372,85.255L4.699,85.454C6.193,85.413 7.633,85.716 9.12,85.46C9.364,84.456 10.32,84.261 9.991,85.453L15.541,85.321L16.462,84.803C17.176,85.32 17.293,85.6 18.281,85.447C18.758,85.372 18.916,85.31 19.469,85.264C21.632,85.087 24.211,85.337 26.525,85.198C27.096,85.164 28.923,84.969 29.374,84.776C29.543,84.704 29.578,84.575 29.592,84.41L29.842,84.421C29.781,84.817 30.64,84.708 30.935,84.642C31.43,84.531 31.482,83.99 31.742,83.939C31.793,83.929 32.729,83.88 32.781,83.885C33.013,83.907 33.284,84.174 33.432,84.139C33.672,84.082 33.796,83.143 34.854,83.388C35.108,83.447 35.267,83.699 35.54,83.751C35.771,83.795 36.773,84.01 36.841,84.012C37.082,84.021 37.472,83.638 37.822,83.755L37.691,83.365C38.032,83.22 37.919,83.636 38.018,83.63C38.239,83.614 38.329,83.39 38.411,83.391C38.515,83.392 38.628,83.674 38.818,83.721C38.897,83.74 39.88,83.669 39.913,83.624C39.938,83.31 39.631,83.056 39.977,82.843L40.499,83.115C41.226,82.296 42.441,82.649 43.44,82.448C43.086,81.255 43.754,81.709 44.272,81.63C44.692,81.565 45.571,80.62 45.81,81.907L46.445,81.926C46.61,81.787 45.821,81.292 46.07,80.896C46.098,80.852 46.981,80.487 47.04,80.488C47.58,80.491 47.418,81.536 46.971,81.73C46.968,81.797 48.094,82.175 48.223,82.19C48.638,82.237 48.802,81.911 49.124,81.912C49.399,81.912 49.555,82.139 49.785,82.183C49.939,82.212 51.263,81.968 51.456,81.906C51.68,81.835 51.637,81.474 51.997,81.403C52.8,81.243 53.751,81.781 54.593,81.41C54.843,81.27 54.461,80.226 54.886,80.102C55.155,80.024 55.673,80.555 56.114,80.228L55.593,81.011L56.898,80.618L56.122,79.265L56.934,78.222L57.202,78.168C57.558,78.49 58.948,78.902 59.186,78.398C59.294,78.167 59.199,77.275 59.693,77.361C59.827,77.384 60.134,77.823 60.146,77.964C60.174,78.286 59.504,78.458 59.499,78.986C59.489,80.102 60.223,78.794 60.488,78.792C60.673,78.79 61.416,79.123 61.815,79.166C62.136,79.201 62.458,79.183 62.778,79.181L62.256,77.876C63.017,77.748 63.512,78.09 64.148,78.399C64.471,78.227 64.235,77.753 64.427,77.6C64.536,77.512 65.569,77.148 65.749,77.121C65.935,77.093 66.132,77.208 66.335,77.187C68.026,77.005 66.633,76.519 67.028,75.656C67.19,75.301 68.068,75.085 68.356,74.757L68.781,75.083L68.394,75.718C68.917,76.454 68.977,77.303 67.932,77.476C67.157,77.605 66.509,77.321 66.176,78.398L68.968,77.632L69.877,78.641C70.631,78.567 70.813,77.54 71.011,77.419C71.382,77.193 73.861,76.999 73.879,76.255C73.886,75.949 73.492,75.148 74.009,74.942C74.115,74.899 74.291,75.002 74.434,74.966C74.663,74.908 74.993,74.501 75.257,74.871L75.869,76.936C76.381,76.947 77.129,77.488 77.573,77.458C77.699,77.449 78.768,77.197 78.848,77.155C79.072,77.036 79.101,76.661 79.332,76.589C79.462,76.548 79.66,76.67 79.781,76.631C80.677,76.34 81.517,76.113 82.417,75.894C82.638,75.84 82.751,75.492 82.992,75.419C83.403,75.295 83.752,75.533 84.079,75.465C84.573,75.363 85.051,74.883 85.334,74.486C85.759,74.415 85.825,74.919 86.235,74.998C86.905,75.128 87.416,74.789 87.67,74.789C87.752,74.788 87.903,74.971 88.067,74.995C89.063,75.144 88.712,74.798 88.991,74.357C89.446,73.639 89.811,74.184 90.254,74.068C90.522,73.998 90.718,73.518 91.495,73.339C92.783,73.042 93.506,73.254 94.596,73.185C94.87,73.168 95.012,72.958 95.219,72.946C95.868,72.911 97.106,73.595 97.349,72.508C98.246,72.681 99.17,72.551 100.069,72.379L100.337,72.644C100.693,72.125 101.306,72.375 101.715,72.191C101.908,72.104 101.956,71.805 102.307,71.737C103.154,71.575 104.171,71.905 105.027,71.871C105.403,70.68 106.85,71.417 107.777,71.33C108.705,71.243 109.896,70.722 110.807,70.569C114.31,69.981 118.35,69.989 121.677,68.764C122.526,68.451 126.997,67.422 127.789,67.418C128.291,67.415 128.77,67.659 129.346,67.547C129.766,67.465 130.741,67.201 131.223,67.073C131.528,66.992 132.061,66.558 132.252,66.533C132.413,66.511 132.565,66.746 132.754,66.765C133.123,66.803 134.35,67.046 134.437,67.036C134.636,67.014 134.771,66.793 134.974,66.771C135.521,66.711 136.246,66.945 137.05,66.76C137.345,66.691 137.517,66.436 137.739,66.4C138.154,66.333 139.042,66.614 139.666,66.501C140.108,66.421 141.124,65.826 141.535,65.751C141.768,65.708 141.973,65.89 142.25,65.83C142.545,65.766 143.202,65.255 143.494,65.218C143.783,65.181 143.885,65.435 144.109,65.448C144.245,65.457 144.396,65.339 144.607,65.361C144.712,65.372 144.828,65.567 145.007,65.567C145.64,65.568 146.957,64.566 148.326,64.587C148.66,64.592 148.763,64.862 148.985,64.917C149.21,64.973 149.434,64.832 149.673,64.87C150.446,64.992 151.192,65.29 151.9,65.276L152.232,64.556C152.647,64.673 153.075,64.648 153.494,64.708C153.667,64.732 153.838,64.922 154.054,64.938C154.416,64.964 154.722,64.656 155.084,64.681C155.398,64.703 155.549,64.976 155.776,65.039C155.913,65.077 158.427,64.831 158.592,64.782C158.845,64.708 159.382,64.248 159.828,64.179C160.169,64.126 160.374,64.437 160.57,64.427C160.613,64.424 160.844,63.949 161.174,63.835C161.308,63.789 162.554,63.499 162.671,63.493C163.423,63.455 163.497,64.013 163.873,64.129C164.881,64.439 165.448,64.137 166.205,64.172C166.442,64.183 166.606,64.39 166.844,64.401C167.018,64.41 168.015,64.179 168.102,64.068C168.191,63.957 168.177,63.672 168.351,63.565C168.71,63.345 170.734,63.728 171.431,63.641C171.724,63.605 171.921,63.375 172.078,63.373C172.264,63.37 172.558,63.716 172.989,63.767C173.831,63.868 175.13,63.496 175.997,63.504C176.409,63.507 176.944,63.719 177.369,63.764C177.435,63.357 177.015,62.892 177.435,62.591L177.707,62.991L178.246,62.739C178.657,62.663 178.871,63.698 178.808,64.025C179.118,64 179.487,64.078 179.784,64.023C180.23,63.939 180.385,63.332 180.834,63.245C181.883,63.041 183.329,63.914 184.456,63.467L186.077,61.683C186.535,61.982 187.615,62.476 186.91,63.046L187.233,63.241C187.408,62.687 188.536,62.975 188.606,62.652C188.686,62.278 187.805,62.404 187.954,61.871C188.055,61.513 188.667,61.879 188.736,61.805L188.859,61.205C189.082,61.038 189.386,61.288 189.572,61.253C189.726,61.224 189.832,60.956 190.007,60.906C190.238,60.839 190.482,61.016 190.733,60.994C191.051,60.966 191.461,60.632 191.872,60.76C192.013,61.194 191.435,61.366 191.371,61.633C191.28,62.018 191.771,62.616 191.351,63.109C191.833,63.554 192.73,63.184 192.965,63.254C193.156,63.31 193.165,63.649 193.4,63.74C194.019,63.98 195.374,63.852 195.969,64.045C196.382,64.179 196.405,65.199 197.43,63.897L197.62,63.896C197.636,64.152 198.163,64.737 198.37,64.791C198.638,64.862 198.947,64.663 199.252,64.671C199.594,64.68 199.883,64.918 200.179,64.932C200.578,64.951 202.736,64.702 202.982,64.481C203.337,64.163 202.874,64.34 203.627,63.959C204.149,63.696 203.555,62.691 204.479,62.844C205.634,63.036 204.283,64.494 204.289,64.614C204.306,64.963 204.97,64.437 205.02,64.945L206.048,64.542L206.193,64.819C206.996,64.457 206.841,64.907 207.171,65.126C208.206,65.815 208.507,65.063 209.159,65.202C209.25,65.221 209.252,65.4 209.352,65.452C209.625,65.596 210.007,65.513 210.041,65.982L210.229,65.984C211.202,64.585 211.72,66.447 212.476,66.483C212.731,66.495 212.946,66.057 213.486,66.116C213.635,66.133 215.422,66.528 215.518,66.571C215.642,66.628 215.74,66.865 215.867,66.89C216.018,66.92 216.161,66.648 216.349,66.661C216.578,66.677 217.27,67.064 217.578,67.131C217.989,67.22 218.441,67.085 218.849,67.295L219.247,66.641C219.683,67.228 219.948,67.193 220.623,67.083C220.889,67.955 220.869,67.637 221.402,67.875C222.306,68.278 222.638,68.248 223.498,67.883C223.787,67.76 224.433,67.83 224.706,67.974C224.964,68.109 224.937,68.425 225.259,68.475C225.68,68.542 226.209,68.144 226.664,68.228C227.103,68.309 227.123,68.74 227.373,68.835C228.041,69.09 229.074,68.752 229.81,69.016C229.991,69.081 229.992,69.301 230.123,69.386C230.77,69.802 231.328,70.01 231.808,70.68C232.096,70.728 232.871,69.545 233.482,69.639C233.734,69.677 233.881,69.95 234.131,70.047C234.96,70.369 236.177,70.532 237.049,70.657C238.049,70.801 240.584,70.91 241.308,71.463C241.495,71.606 241.366,72.064 241.86,72.131C242.354,72.199 242.555,71.711 243.022,71.73C243.535,71.785 243.321,72.581 244.052,72.129C244.178,72.051 244.068,71.816 244.267,71.866L244.596,72.779L244.92,72.19C245.604,72.031 246.504,72.01 246.889,72.707C247.08,73.054 247.065,73.791 247.627,73.941C248.072,74.06 248.107,73.502 248.323,73.372C248.926,73.011 249.286,73.392 249.698,73.427C251.494,73.578 252.407,74.027 254.061,74.55C255.015,74.851 255.221,74.134 255.994,73.987C256.34,73.921 256.695,74.014 256.983,73.954C257.084,73.932 257.121,73.546 257.51,73.595C258.678,73.74 257.628,75.369 258.172,75.798C258.282,75.885 259.52,76.054 259.753,76.058C260.123,76.064 260.631,75.845 260.902,75.908C261.036,75.94 261.055,76.218 261.182,76.31C262.01,76.911 262.83,77.473 263.646,77.999C263.814,78.107 263.837,78.446 264.088,78.515C264.437,78.608 264.646,78.213 264.881,78.158C265.154,78.096 265.374,78.289 265.603,78.244C265.876,78.19 265.972,77.804 266.514,77.898C266.758,77.939 267.541,78.398 267.833,78.55C268.162,78.721 269.965,79.805 270.101,79.839C270.977,80.055 271.984,79.853 272.976,80.201C273.605,80.423 273.53,80.831 274.384,80.358C274.819,80.653 274.134,80.916 274.191,81.272L275.506,81.217C275.742,80.687 275.629,79.795 276.452,79.853C277.118,80.339 277.083,80.7 276.803,81.402C277.314,81.355 277.56,81.956 277.987,82.115C278.615,82.35 280.071,82.252 279.677,83.362C280.868,83.489 282.78,84.752 283.598,83.431C282.914,83.031 282.609,82.534 282.933,81.741L283.328,81.671C283.494,81.91 283.299,82.553 283.728,82.449C283.647,82.096 283.931,81.739 283.949,81.452C283.991,80.772 283.675,79.791 283.724,79.12C283.76,78.628 284.235,77.996 283.871,77.536C283.711,77.334 283.174,77.316 283.013,76.959C282.869,76.642 282.842,76.023 283.335,76.047C283.309,76.235 283.77,77.185 283.99,76.96C283.658,76.22 284.071,76.366 284.257,76.085C284.569,75.614 284.137,75.47 284.124,75.197C284.11,74.898 284.658,74.536 284.186,74.218L283.923,74.609L283.339,74.217L283.219,74.664L282.815,74.74C282.934,73.783 282.221,72.272 283.729,72.388C283.714,71.849 283.877,70.478 283.086,70.818L282.953,70.117L283.27,69.906C283.509,69.965 283.338,70.635 283.793,70.427C284.078,70.297 283.985,69.782 283.989,69.514L283.413,69.629C282.864,69.238 283.429,68.643 283.467,68.261C283.515,67.785 283.185,67.208 283.365,66.601C283.462,66.272 284.052,65.827 283.878,65.212L284.261,65.13C284.149,64.375 284.329,63.614 284.371,62.901C284.392,62.534 284.04,62.186 284.51,61.869L283.857,61.612C283.459,61.176 283.93,60.691 283.983,60.295C284.19,58.764 283.943,57.63 284.246,55.983C284.333,55.511 283.828,55.074 285.036,55.14C284.777,54.578 285.171,54.174 285.18,53.762C285.185,53.562 284.73,53.568 284.897,52.998C284.935,52.867 285.837,52.958 285.527,51.84C285.463,51.611 285.142,51.395 285.164,51.09L284.577,51.355L284.264,51.136C284.154,50.771 284.524,50.393 284.505,50.107C284.493,49.925 284.314,49.814 284.278,49.681C284.126,49.119 284.771,48.751 284.771,48.672C284.771,48.628 284.44,48.437 284.384,48.148C284.327,47.847 284.192,46.307 284.246,46.08L285.112,45.741L285.039,44.763L285.234,44.603C285.573,44.899 285.832,44.134 285.831,43.836C285.828,42.96 284.372,42.939 284.269,42.646C284.037,41.989 284.46,41.832 284.61,41.453C284.781,41.02 284.514,40.649 285.175,40.563L285.166,39.33C283.573,39.667 284.123,38.849 283.984,37.834C283.919,37.362 283.585,36.663 283.754,36.034C283.814,35.81 284.09,35.659 284.121,35.334C284.153,35 283.944,34.689 283.991,34.312C284.162,32.952 284.268,31.959 284.257,30.505C284.251,29.7 284.343,29.429 284.38,28.807C284.423,28.045 284.314,27.332 284.295,26.617C284.279,26 284.639,25.303 284.747,24.732C284.789,24.511 284.608,24.287 284.668,24.014C284.761,23.595 285.282,23.24 284.903,22.606L284.51,23.128L283.986,22.676C284.265,22.321 284.31,21.699 284.529,21.38C284.769,21.028 285.28,21.041 285.311,20.449C285.338,19.924 284.895,19.689 284.803,19.244C284.675,18.622 284.739,17.749 284.613,17.083C284.531,16.654 284.113,16.238 284.314,15.814C284.394,15.646 284.692,15.548 284.75,15.326C284.871,14.867 284.617,13.706 284.639,13.127C284.679,12.052 284.823,12.049 284.668,10.882C284.631,10.605 284.937,10.176 284.65,9.989C284.474,9.873 284.016,9.961 283.724,9.871C283.125,9.686 281.307,8.805 280.896,8.786C280.655,8.776 280.5,8.997 280.269,9.017L280.065,8.497C278.423,8.921 276.952,7.646 275.499,7.121C274.418,6.73 273.246,6.657 272.204,6.365C270.644,5.928 269.157,5.468 267.599,5.09C266.798,4.896 265.89,4.248 265.113,4.836C264.751,4.501 264.998,4.047 264.428,3.95C263.759,3.836 263.378,4.235 262.759,4.19C262.212,4.151 260.97,3.746 260.175,3.629C259.545,3.537 259.536,3.18 258.84,3.789C258.577,3.658 258.705,3.292 258.617,3.163C258.533,3.041 256.138,2.32 255.802,2.253C255.43,2.178 255.003,2.294 254.682,2.196C254.348,2.094 253.458,1.558 253.062,1.465C252.568,1.349 252.052,1.61 251.807,1.549C251.691,1.52 251.177,1.013 250.799,0.853C249.989,0.51 246.411,-0.528 245.64,-0.532C245.298,-0.534 244.956,-0.315 244.624,-0.412C244.404,-0.476 244.303,-0.772 244.137,-0.847C243.797,-1.002 243.117,-0.923 242.675,-1.084C242.324,-1.212 242.118,-1.533 241.815,-1.662C241.266,-1.895 240.68,-1.73 240.209,-1.884C239.887,-1.99 239.843,-2.348 239.74,-2.361C239.582,-2.38 239.37,-2.179 239.172,-2.277C238.916,-2.404 238.539,-3.568 238.273,-2.411C237.431,-2.274 236.608,-2.596 235.827,-2.865C235.693,-2.911 235.488,-2.839 235.347,-2.873C235.197,-2.909 235.214,-3.198 235.041,-3.255C234.79,-3.339 234.449,-3.091 234.15,-3.131C233.916,-3.162 233.84,-3.395 233.621,-3.398L233.36,-2.875C233.057,-3.856 232.056,-3.614 231.301,-3.82C229.159,-4.406 226.633,-5.468 224.343,-5.382C223.964,-5.367 223.753,-5.62 223.3,-5.222L222.918,-5.614C222.449,-5.631 222.292,-5.214 222.138,-5.223C221.459,-5.265 221.422,-5.812 221.078,-5.88C220.171,-6.061 219.24,-5.421 218.232,-5.748C218.067,-5.801 218.086,-6.089 217.934,-6.124C217.819,-6.151 217.539,-5.993 217.302,-6.012C216.409,-6.082 215.26,-6.294 214.296,-6.416C213.339,-6.536 213.324,-7.082 212.197,-6.919C212.001,-6.89 211.856,-6.683 211.672,-6.672C211.254,-6.648 210.275,-7.282 209.556,-7.306C209.172,-7.318 208.827,-7.148 208.542,-7.184C208.083,-7.243 207.473,-8.164 206.958,-7.445L207.02,-6.747C206.856,-6.405 206.536,-6.561 206.265,-6.682L206.247,-7.317C205.806,-7.336 205.193,-7.359 204.778,-7.481C203.982,-7.716 204.042,-8.09 202.921,-7.962C202.692,-7.936 202.533,-7.756 202.289,-7.747C201.91,-7.733 201.358,-8.01 200.965,-7.969C200.698,-7.942 200.49,-7.699 200.17,-7.699C199.165,-7.698 197.995,-8.391 196.772,-8.1C195.411,-7.776 197.61,-7.432 197.491,-6.861C197.278,-6.457 196.031,-6.774 195.923,-6.662C195.649,-6.192 196.749,-5.676 196.32,-5.417C195.522,-5.498 195.201,-4.804 194.487,-4.833L194.487,-5.357C194.014,-5.284 193.574,-5.45 193.436,-5.945C193.432,-6.431 194.428,-6.35 194.17,-7.19C194.087,-7.459 193.21,-8.077 192.978,-8.106C192.735,-8.136 192.518,-7.98 192.323,-7.985C191.914,-7.996 191.754,-8.457 191.148,-8.106C190.286,-7.609 190.913,-6.795 191.478,-6.336C191.296,-5.956 190.256,-6.233 190.174,-6.141L190.158,-5.638C189.674,-5.39 188.946,-5.651 189.128,-6.27L189.912,-6.272C189.934,-7.05 188.531,-6.537 188.364,-6.814L188.346,-7.316L189.26,-7.056L188.672,-8.228L188.264,-7.463C187.984,-7.333 187.563,-7.558 187.358,-7.526C187.199,-7.501 187.117,-7.211 186.85,-7.192C186.703,-7.182 186.156,-7.382 186.124,-7.514C185.994,-8.062 187.418,-7.71 187.695,-7.901L187.822,-8.361C187.098,-8.256 186.327,-8.454 185.653,-8.48C185.27,-8.495 184.694,-8.371 184.254,-8.416C183.906,-8.452 183.326,-8.706 183.184,-8.705C182.929,-8.703 181.892,-8.23 181.744,-8.228C181.503,-8.225 181.387,-8.58 181.087,-8.627C180.762,-8.678 180.486,-8.493 180.193,-8.505C179.326,-8.54 178.303,-8.736 177.441,-8.76C176.624,-8.782 174.016,-8.908 173.41,-8.757C173.258,-8.719 173.304,-8.376 172.997,-8.354C172.259,-8.302 171.017,-8.769 170.508,-8.765C170.147,-8.762 169.937,-8.405 169.466,-8.357C168.681,-8.277 167.298,-8.579 166.445,-8.611C165.941,-8.63 165.676,-8.676 165.28,-8.706C165.2,-8.712 164.348,-8.201 164.448,-8.801C164.473,-8.953 164.785,-9.038 164.695,-9.276C164.211,-9.171 163.905,-8.82 163.39,-9.146C163.471,-7.73 162.151,-8.772 161.645,-8.728C161.359,-8.703 161.169,-8.324 160.944,-8.258C160.28,-8.065 159.324,-8.108 159.143,-8.881C159.021,-8.791 158.874,-8.672 158.724,-8.649C157.551,-8.469 156.259,-8.453 155.122,-8.201C154.72,-8.112 154.121,-7.729 153.756,-7.736C153.479,-7.741 153.434,-8.07 153.16,-8.073C152.908,-8.076 151.197,-7.79 151.498,-7.316L151.304,-7.317C151.016,-8 150.769,-7.587 150.256,-7.578C148.013,-7.54 145.515,-7.103 143.2,-6.926C141.171,-6.77 138.317,-6.923 136.41,-6.529C136.128,-6.471 135.54,-6.008 135.069,-5.91C134.241,-5.737 133.496,-5.902 132.767,-5.872C132.156,-5.846 131.303,-5.273 130.774,-5.224C130.294,-5.179 129.694,-5.785 129.023,-5.356L129.155,-4.965C128.575,-5.124 127.964,-4.456 127.454,-4.624C127.265,-4.686 127.097,-4.962 126.89,-4.943C126.63,-4.919 126.326,-4.479 125.943,-4.442C125.563,-4.405 125.085,-4.682 124.669,-4.578L124.253,-3.92C124.106,-3.885 123.734,-4.606 122.957,-4.564C122.447,-4.536 121.321,-4.288 120.712,-4.196C118.473,-3.859 116.516,-3.613 114.199,-3.385C112.126,-3.18 110.009,-2.373 107.892,-1.99C107.146,-1.854 104.606,-1.631 104.164,-1.31C103.96,-1.161 103.848,-0.895 103.481,-0.651C102.641,-0.094 101.06,0.717 100.233,-0.12L99.297,0.784C98.713,0.711 99.497,0.16 99.494,-0.063C99.393,-0.546 97.689,-0.082 97.345,0.007C96.559,0.209 95.822,0.349 95.018,0.554C94.828,0.603 93.141,1.547 93.02,1.698L93.233,2.283C93.049,2.931 92.31,2.662 91.857,2.751C91.658,2.79 91.521,2.96 91.322,3C90.8,3.104 90.094,2.978 89.563,3.332C89.259,3.534 90.033,3.881 90.09,4.253C90.363,6.04 87.913,3.247 87.741,3.193C86.978,2.952 86.717,3.679 86.032,3.468L85.924,3.093L86.297,2.484C86.192,2.48 86.085,2.473 85.979,2.49C85.881,2.506 85.167,2.727 85.139,2.761C85.052,2.865 85.235,3.388 84.924,3.527C84.658,3.646 84.751,3.352 84.731,3.234L84.47,3.137C84.364,4.196 83.301,3.353 83.349,4.59C83.122,4.689 82.82,4.655 82.607,4.738C80.572,5.534 76.855,5.935 74.503,6.172C74.283,6.194 74.049,6.388 73.807,6.399C72.873,6.441 73.169,5.565 73.098,5.492C72.691,5.075 70.103,6.275 69.442,6.143L70.094,6.273C70.045,7.186 69.684,6.916 69.176,7.117C68.377,7.434 68.704,7.288 67.956,7.357C67.47,7.401 66.459,8.006 66.56,8.618C66.064,8.842 65.94,8.247 65.825,8.223C65.512,8.157 64.615,8.516 64.216,8.495C64.173,8.701 64.457,8.617 64.543,8.75C65.144,9.682 63.255,9.865 63.693,8.756C63.25,8.794 62.745,8.702 62.314,8.748C61.689,8.815 60.916,9.197 60.354,9.271C59.503,9.382 57.82,9.31 57.114,9.446C56.999,9.468 56.415,9.954 56.632,9.338C56.696,9.149 57.299,9.222 57.159,8.953C56.858,8.377 54.641,8.755 54.566,9.092C54.537,9.221 54.725,9.404 54.618,9.664C54.381,10.242 52.468,10.338 52.008,10.048C51.864,9.957 51.837,9.701 51.71,9.668C51.467,9.604 49.436,9.867 49.712,10.061L50.366,10.062L50.347,10.436C49.928,10.613 49.44,10.785 48.989,10.843C48.481,10.907 49.36,10.22 49.189,10.063C48.544,10.008 48.092,10.993 47.444,10.851C47.351,10.83 47.367,10.589 47.279,10.578C46.952,10.534 45.956,10.865 45.484,10.733L45.288,10.929L45.269,11.76C44.718,11.832 44.986,11.063 44.756,10.902C44.234,10.813 43.644,10.82 43.115,10.847C38.944,11.063 34.625,11.924 30.314,12.158C28.277,12.268 25.268,12.054 23.387,12.417C23.034,12.485 22.906,12.874 22.734,12.893C22.534,12.915 22.094,12.598 21.808,12.553C20.548,12.354 20.229,12.72 19.346,13.454C19.112,13.405 19.024,12.712 18.277,12.685C16.858,12.753 15.243,12.953 13.84,12.942C12.162,12.928 10.115,12.351 8.492,12.407C7.924,12.427 7.076,12.732 6.394,12.689C5.917,12.659 6.025,12.408 5.802,12.225C5.465,11.947 -0.378,11.357 -1.183,11.356C-1.752,11.355 -1.792,11.731 -2.096,11.762C-2.343,11.787 -3.417,11.449 -3.466,11.499L-3.587,11.967C-4.475,11.853 -4.107,12.047 -4.456,12.27C-5.55,12.97 -5.638,11.273 -6.392,11.509C-6.864,11.657 -6.228,12.32 -6.671,12.544C-7.125,12.638 -6.843,11.745 -7.19,11.892C-7.466,12.01 -7.906,13.015 -8.624,12.941C-10.069,12.291 -8.892,11.459 -7.911,11.304C-8.299,11.207 -8.281,10.787 -8.433,10.655C-8.794,10.341 -12.383,10.307 -13.136,10.193C-13.216,10.601 -12.949,10.418 -12.692,10.452C-12.331,11.121 -13.86,11.262 -14.192,10.79C-14.628,10.173 -13.775,9.807 -15.359,10.324C-15.022,11.357 -15.287,11.986 -16.469,11.759C-17.24,11.612 -16.574,10.638 -16.014,10.519C-16.324,10.025 -16.787,10.256 -17.248,10.189C-17.442,10.16 -17.595,9.93 -17.749,9.955C-18.155,10.021 -18.889,10.36 -19.444,10.296C-19.863,10.248 -20.072,9.832 -20.157,9.807C-20.272,9.773 -20.902,9.703 -21.03,9.711C-21.389,9.735 -21.362,10.037 -21.506,10.114C-21.696,10.216 -23.042,10.864 -23.13,10.846C-23.687,10.735 -23.024,10.086 -22.806,9.932C-23.404,10.177 -23.937,9.476 -24.562,9.424C-25.122,9.377 -25.331,9.795 -25.378,9.804C-25.454,9.818 -26.785,9.811 -26.909,9.8C-27.313,9.765 -27.808,9.277 -28.159,9.205C-28.372,9.161 -28.566,9.297 -28.724,9.256C-28.943,9.2 -29.256,8.787 -29.789,8.906C-30.015,8.957 -29.876,9.399 -30.253,9.277C-29.964,8.77 -30.292,8.451 -30.845,8.479C-31.101,8.492 -31.019,8.9 -31.429,8.754L-31.412,8.16C-32.125,7.519 -32.591,8.27 -33.202,8.356C-33.682,8.424 -33.987,8.379 -34.532,8.463C-34.725,8.493 -34.903,8.365 -35.011,8.387C-35.164,8.419 -35.313,8.807 -35.473,8.958C-36.36,9.795 -36.231,8.402 -35.744,7.905C-36.139,7.517 -37.218,7.799 -37.497,8.24C-37.619,8.432 -37.519,8.696 -37.774,8.878C-37.946,9.001 -38.969,9.185 -39.197,9.15C-39.966,9.029 -40.425,6.812 -41.746,7.312L-41.883,6.402C-42.617,6.76 -42.897,5.914 -43.048,7.001C-43.998,7.25 -44.07,6.638 -43.843,5.881C-44.527,5.919 -45.013,6.305 -45.353,5.48L-47.294,6.399C-47.894,5.603 -48.509,4.717 -49.643,4.843C-50.464,4.934 -50.152,4.897 -50.839,4.841C-51.34,4.801 -51.85,4.908 -52.344,4.778L-52.465,3.921C-52.005,3.795 -52.044,4.168 -51.875,4.309C-51.286,4.803 -50.95,4 -51.291,3.596C-51.377,3.494 -52.43,2.932 -52.569,2.901C-52.857,2.836 -53.06,3.014 -53.31,3.003C-53.685,2.987 -53.842,2.687 -54.481,2.884C-54.981,3.039 -55.005,3.582 -55.568,3.303C-56.122,3.029 -56.209,1.495 -57.036,1.898C-57.85,2.296 -57.001,2.976 -57.171,3.136C-57.653,3.234 -58.97,2.711 -58.878,2.166C-58.87,2.121 -58.207,1.824 -58.477,1.569C-58.802,1.263 -59.129,1.921 -59.208,1.948C-59.811,2.159 -60.098,1.238 -59.914,0.785C-60.471,0.968 -61.326,1.457 -61.741,0.85L-61.347,0.328L-61.677,-0.109L-62.263,0.327L-61.874,0.914L-63.056,1.122C-63.487,0.754 -62.907,0.099 -62.931,-0.047C-62.96,-0.215 -63.347,-0.374 -63.416,-0.613C-63.503,-0.916 -63.379,-1.24 -63.47,-1.539C-63.718,-1.861 -64.176,-1.685 -64.352,-1.762C-64.717,-1.921 -65.521,-3.039 -65.93,-1.963C-66.529,-2.332 -66.49,-2.078 -66.938,-1.992C-68.924,-1.611 -67.915,-2.151 -68.203,-2.615C-68.311,-2.788 -68.5,-2.748 -68.667,-2.743C-69.172,-2.014 -68.523,-1.543 -68.538,-1.124C-68.553,-0.73 -68.873,-0.387 -68.809,0.201C-68.763,0.624 -68.501,0.655 -68.433,0.876C-68.211,1.607 -68.828,3.383 -68.676,4.516C-68.618,4.949 -68.328,4.982 -68.269,5.416C-68.155,6.253 -68.484,6.622 -68.535,7.127C-68.58,7.562 -68.211,8.65 -68.274,9.072C-68.614,11.345 -67.907,14.303 -67.884,16.793C-67.853,20.05 -67.624,24.493 -68.047,27.603C-68.161,28.445 -68.723,29.208 -68.51,30.092C-68.448,30.352 -68.152,30.554 -68.149,30.771C-68.145,30.981 -68.362,31.151 -68.38,31.317C-68.402,31.52 -68.101,31.867 -68.137,32.339C-68.163,32.684 -68.437,32.958 -68.409,33.247C-68.386,33.489 -68.105,33.67 -68.042,33.934C-67.758,35.117 -68.591,35.382 -68.649,36.023C-68.668,36.242 -68.338,36.352 -68.278,36.654C-68.153,37.285 -68.185,38.246 -68.797,38.612C-67.892,39.087 -68.404,39.554 -68.417,40.311C-68.424,40.738 -68.257,41.485 -68.28,41.872C-68.305,42.27 -68.779,43.073 -68.769,43.607C-68.765,43.88 -68.403,43.937 -68.397,44.355C-68.393,44.675 -68.628,44.975 -68.658,45.286C-68.692,45.649 -68.732,47.226 -68.605,47.433C-68.499,47.607 -68.137,47.623 -68.011,47.756C-67.844,47.93 -67.935,48.17 -67.85,48.311C-67.803,48.388 -67.543,48.461 -67.421,48.597C-66.806,49.28 -67.34,50.294 -68.277,50.045L-68.277,49.26L-68.807,49.318C-69.183,49.574 -68.712,51.264 -68.798,51.743C-68.318,51.819 -68.705,51.312 -68.349,50.952C-68.138,50.739 -67.783,50.673 -67.493,50.697C-67.511,51.103 -67.529,51.498 -67.232,51.81C-68.458,52.335 -67.685,52.921 -67.753,53.501C-67.8,53.892 -67.845,54.084 -67.884,54.553C-67.917,54.957 -68.1,55.357 -68.014,55.793L-67.4,55.553C-67.273,55.531 -65.917,57.085 -65.852,57.236C-65.738,57.499 -65.974,57.737 -65.869,57.888L-65.009,58.014L-65.01,58.539C-64.373,58.727 -64.404,58.231 -63.922,58.179C-62.654,58.55 -60.947,59.594 -59.71,59.837C-59.594,59.86 -58.493,59.949 -58.43,59.938C-58.242,59.908 -57.594,59.204 -57.557,59.907C-57.543,60.171 -57.868,60.477 -57.47,60.601L-49.146,62.861C-48.648,63.835 -48.732,64.91 -48.939,65.985L-46.978,65.854C-47.277,65.247 -46.851,65.054 -46.286,65.227C-46.063,65.296 -45.974,65.573 -45.799,65.655C-45.576,65.759 -45.138,65.672 -45.02,65.922C-44.891,66.194 -45.846,66.145 -45.535,66.631C-45.479,66.718 -44.669,66.869 -44.504,66.974C-43.863,67.382 -44.063,68.518 -44.887,68.469L-44.888,67.945C-45.606,68.267 -46.229,67.962 -46.9,68.329C-48.438,66.155 -50.263,69.334 -48.085,70.163L-48.152,70.496C-49.388,70.972 -50.402,70.827 -51.599,70.314C-51.96,70.502 -51.837,70.949 -52.335,70.821L-52.335,70.296C-53.121,70.504 -53.215,70.092 -53.652,69.85C-53.854,69.738 -54.087,69.713 -54.29,69.573C-54.871,69.175 -55.586,68.06 -55.864,69.645L-56.056,69.641L-65.077,66.38C-65.299,64.952 -64.82,63.48 -64.938,62.058C-65,61.864 -66.945,59.835 -67.165,59.7C-67.376,59.57 -67.606,59.726 -67.689,59.593C-67.793,59.428 -68.154,58.05 -68.601,58.146C-69.066,58.584 -68.656,59.27 -68.658,59.779C-68.659,60.21 -68.903,60.507 -68.926,60.839C-68.952,61.218 -68.744,61.547 -68.803,61.989C-68.857,62.391 -69.452,63.201 -69.454,63.441C-69.456,63.68 -69.149,63.783 -69.086,63.986C-69.029,64.171 -69.01,65.583 -69.058,65.762C-69.102,65.922 -69.612,65.936 -69.597,66.707C-69.59,67.108 -69.322,67.319 -69.323,67.488C-69.323,67.661 -69.575,67.841 -69.596,68.14M-64.682,59.973C-64.752,59.858 -65.923,59.203 -66.054,59.322C-66.109,59.372 -65.484,60.329 -65.402,60.432C-64.665,61.353 -64.376,60.471 -64.682,59.973M-4.978,26.397C-4.756,26.59 -4.305,26.775 -4.024,26.616C-3.979,26.59 -4.03,26.388 -3.799,26.38C-3.507,26.369 -3.238,26.543 -2.946,26.525L-2.958,26.147C-3.102,25.967 -5.168,25.58 -4.978,26.397M-9.607,79.574L-8.776,79.069C-8.534,79.117 -7.864,80.474 -7.649,80.227L-7.676,79C-8.37,78.285 -9.382,78.626 -9.607,79.574M189.132,63.437C189.1,64.014 189.785,63.178 189.821,63.153C190.011,63.019 190.21,62.984 190.435,62.979C190.437,62.007 189.138,63.327 189.132,63.437M285.298,19.01L286.211,19.992C286.246,19.254 286.384,18.585 286.347,17.831C286.318,17.247 286.106,16.598 286.075,16.013C286.058,15.698 286.458,15.219 285.952,15.027L285.818,16.334L285.429,16.072C285.315,16.676 285.15,17.339 285.953,17.309L286.072,17.46L285.925,18.464L285.298,19.01ZM286.21,14.176C286.263,13.94 286.491,12.538 286.146,12.547C285.591,12.958 285.903,14.008 285.952,14.635C286.217,14.581 286.168,14.362 286.21,14.176M7.246,27.441L4.503,27.572C4.766,28.201 5.158,27.814 5.607,27.825C6.037,27.836 7.116,28.174 7.246,27.441M185.893,62.621C185.416,63.074 186.746,64.358 186.515,62.458L185.893,62.621ZM65.13,78.854L64.347,78.53L64.545,79.182L65.13,78.854Z" style="fill:rgb(45,42,43);fill-rule:nonzero;"/>
    </g>
</svg>
