<?xml version="1.0" encoding="UTF-8" standalone="no"?>
<!DOCTYPE svg PUBLIC "-//W3C//DTD SVG 1.1//EN" "http://www.w3.org/Graphics/SVG/1.1/DTD/svg11.dtd">
<svg width="100%" height="100%" viewBox="0 0 20 61" version="1.1" xmlns="http://www.w3.org/2000/svg" xmlns:xlink="http://www.w3.org/1999/xlink" xml:space="preserve" xmlns:serif="http://www.serif.com/" style="fill-rule:evenodd;clip-rule:evenodd;stroke-linejoin:round;stroke-miterlimit:2;">
    <g transform="matrix(2,0,0,2,12.0849,13.5272)">
        <path d="M0,-5.318C-1.466,-5.318 -2.659,-4.125 -2.659,-2.659C-2.659,-1.193 -1.466,0 0,0C1.467,0 2.659,-1.193 2.659,-2.659C2.659,-4.125 1.467,-5.318 0,-5.318M0,1.224C-2.141,1.224 -3.883,-0.518 -3.883,-2.659C-3.883,-4.8 -2.141,-6.542 0,-6.542C2.142,-6.542 3.883,-4.8 3.883,-2.659C3.883,-0.518 2.142,1.224 0,1.224" style="fill-rule:nonzero;"/>
    </g>
    <g transform="matrix(2,0,0,2,13.9245,46.0868)">
        <path d="M0,-8.12C-1.087,-13.012 -0.406,-14.175 -0.121,-15.77L-1.461,-15.77C-1.979,-13.876 -1.933,-11.564 -1.658,-9.739C-1.018,-5.499 1.294,-1.429 0.799,2.962C0.566,5.03 -0.897,6.724 -3.41,5.678C-5.299,4.893 -5.754,2.536 -5.744,0.869C-5,1.235 -4.127,1.632 -3.266,1.491C-4.483,-0.769 -4.778,-3.994 -4.689,-6.652C-5.604,-4.235 -7.336,-0.161 -6.78,2.736C-6.274,5.368 -4.156,7.65 -1.279,7.171C1.286,6.743 2.21,4.24 2.238,1.79C2.274,-1.391 0.853,-4.284 0,-8.12" style="fill-rule:nonzero;"/>
    </g>
</svg>
