<?xml version="1.0" encoding="UTF-8" standalone="no"?>
<!DOCTYPE svg PUBLIC "-//W3C//DTD SVG 1.1//EN" "http://www.w3.org/Graphics/SVG/1.1/DTD/svg11.dtd">
<svg width="100%" height="100%" viewBox="0 0 1210 484" version="1.1" xmlns="http://www.w3.org/2000/svg" xmlns:xlink="http://www.w3.org/1999/xlink" xml:space="preserve" xmlns:serif="http://www.serif.com/" style="fill-rule:evenodd;clip-rule:evenodd;stroke-linejoin:round;stroke-miterlimit:2;">
    <g transform="matrix(2,0,0,2,-1338.66,-961.272)">
        <g transform="matrix(1,0,0,1,758.105,525.064)">
            <path d="M0,153.308C-3.109,160.459 -10.27,165.273 -18.577,165.273C-29.753,165.273 -38.844,156.181 -38.844,145.006C-38.844,133.831 -29.753,124.74 -18.577,124.74C-10.817,124.74 -4.065,128.894 -0.673,135.201L21.535,135.201C17.321,117.396 0.513,103.741 -18.577,103.741C-41.331,103.741 -59.842,122.252 -59.842,145.006C-59.842,167.707 -41.331,186.176 -18.577,186.176C1.037,186.176 18.258,171.805 21.932,153.308L0,153.308ZM470.807,174.176C465.863,174.176 461.991,170.304 461.991,165.359C461.991,160.438 465.863,156.583 470.807,156.583C475.729,156.583 479.584,160.438 479.584,165.359C479.584,170.304 475.729,174.176 470.807,174.176M470.807,147.439C460.735,147.439 452.846,155.311 452.846,165.359C452.846,175.431 460.735,183.32 470.807,183.32C480.856,183.32 488.728,175.431 488.728,165.359C488.728,155.311 480.856,147.439 470.807,147.439M433.646,107.956L433.646,183.19L410.645,183.19L367.011,138.157L367.011,183.19L341.752,183.19L341.752,107.956L369.482,107.956L408.282,148.798L408.282,107.956L433.646,107.956ZM333.703,107.956L306.297,183.19L280.611,183.19L265.241,134.933L249.764,183.19L224.078,183.19L196.67,107.956L223.003,107.956L237.62,156.106L253.632,107.956L277.171,107.956L293.185,156.106L307.801,107.956L333.703,107.956ZM106.111,163.092L106.111,183.19L31.63,183.19L31.63,107.956L57.855,107.956L57.855,163.092L106.111,163.092ZM31.617,48.748C31.617,41.764 26.341,38.97 17.808,38.97L-23.629,38.97L-23.629,58.679L17.808,58.679C26.341,58.679 31.617,55.731 31.617,48.748M-23.629,16.935L13.305,16.935C21.065,16.935 26.652,14.607 26.652,7.779C26.652,1.106 21.065,-1.221 13.305,-1.221L-23.629,-1.221L-23.629,16.935ZM70.414,53.403C70.414,71.559 53.032,83.042 25.721,83.042L-60.869,83.042L-60.869,-25.585L19.513,-25.585C46.824,-25.585 64.207,-14.412 64.207,2.658C64.207,14.917 55.048,25.625 38.6,26.711C55.983,27.798 70.414,36.954 70.414,53.403M478.778,129.276C477.432,132.372 474.332,134.456 470.735,134.456C465.897,134.456 461.961,130.52 461.961,125.682C461.961,120.844 465.897,116.908 470.735,116.908C474.095,116.908 477.018,118.706 478.486,121.437L488.101,121.437C486.276,113.729 479,107.817 470.735,107.817C460.884,107.817 452.87,115.831 452.87,125.682C452.87,135.51 460.884,143.506 470.735,143.506C479.227,143.506 486.682,137.284 488.273,129.276L478.778,129.276ZM119.74,78.584C120.099,77.824 120.097,77.695 119.716,77.059C119.159,76.127 117.885,75.463 116.75,75.516C116.263,75.538 115.733,75.492 115.574,75.413C115.077,75.166 115.315,74.076 116.104,72.965C117.039,71.643 117.051,71.382 116.212,70.61C115.589,70.035 115.492,70.009 114.746,70.216C112.991,70.7 112.484,69.461 113.756,67.808C114.553,66.766 114.476,66.315 113.351,65.407C112.562,64.769 112.493,64.751 111.688,64.984C110.652,65.283 109.882,65.015 109.913,64.364C109.924,64.121 110.333,63.416 110.821,62.796C112.177,61.063 112.037,60.055 110.427,59.901C110.037,59.864 109.6,59.772 109.454,59.696C109.016,59.469 109.208,58.567 109.885,57.657C110.236,57.185 110.915,56.454 111.396,56.032C112.473,55.084 113.188,53.871 113.421,52.6C113.584,51.705 113.56,51.63 113.103,51.63C112.831,51.63 112.14,51.734 111.567,51.86C110.731,52.045 110.452,52.04 110.168,51.837C109.589,51.422 109.777,51.028 111.001,50.078C112.409,48.981 115.285,47.971 119.229,47.188C121.5,46.736 121.94,46.587 122.182,46.186C122.339,45.927 122.816,44.537 123.24,43.097C124.233,39.686 127.077,32.544 128.564,29.714C130.849,25.289 131.651,23.968 137.403,14.974C139.273,11.959 139.76,10.993 140.053,9.737C140.364,8.397 141.31,7.41 142.286,7.41C143.188,7.41 144.493,8.054 145.801,9.141C147.378,10.444 148.866,11.483 149.149,11.483C149.525,11.483 149.323,8.679 148.845,7.194C148.477,6.044 148.462,5.833 148.708,5.157C149.191,3.822 150.427,3.604 151.771,4.62C152.828,5.416 153.548,6.439 156.296,11.005C159.635,16.428 159.833,16.817 162.201,22.635C165.726,31.06 167.496,37.065 168.971,45.805C169.282,47.628 169.588,48.043 170.768,48.242C175.419,49.024 180.001,51.257 182.421,53.918C183.732,55.348 183.414,56.002 181.116,56.582C180.103,56.837 179.528,57.199 177.838,58.642C175.708,60.448 174.424,61.122 173.118,61.129C171.543,61.138 171.594,60.91 172.045,65.955C172.27,68.477 172.475,72.018 172.499,73.824C172.519,75.45 172.398,77.509 172.197,79.468L221.041,79.468L165.882,-29.296L124.708,-29.296L69.549,79.468L119.419,79.468C119.483,79.205 119.586,78.909 119.74,78.584M488.267,44.354C488.267,67.815 467.29,83.042 427.049,83.042C398.767,83.042 374.218,75.584 356.66,62.377L375.462,40.625C387.89,49.947 406.383,56.318 427.667,56.318C443.205,56.318 450.821,53.675 450.821,48.238C450.821,42.954 444.606,41.09 424.406,39.382C390.998,36.43 361.322,28.815 361.322,3.955C361.322,-19.816 387.272,-32.868 422.54,-32.868C445.383,-32.868 467.911,-27.586 483.605,-17.175L465.58,4.888C453.305,-3.192 438.856,-6.454 422.54,-6.454C411.51,-6.454 398.767,-5.056 398.767,0.849C398.767,6.131 408.555,7.219 426.113,8.616C462.472,11.57 488.267,18.561 488.267,44.354M349.526,44.354C349.526,67.815 328.549,83.042 288.308,83.042C260.029,83.042 235.48,75.584 217.922,62.377L236.724,40.625C249.152,49.947 267.643,56.318 288.929,56.318C304.467,56.318 312.081,53.675 312.081,48.238C312.081,42.954 305.865,41.09 285.665,39.382C252.26,36.43 222.584,28.815 222.584,3.955C222.584,-19.816 248.531,-32.868 283.802,-32.868C306.642,-32.868 329.173,-27.586 344.865,-17.175L326.842,4.888C314.564,-3.192 300.115,-6.454 283.802,-6.454C272.769,-6.454 260.029,-5.056 260.029,0.849C260.029,6.131 269.818,7.219 287.375,8.616C323.734,11.57 349.526,18.561 349.526,44.354" style="fill:rgb(237,233,217);fill-rule:nonzero;"/>
        </g>
        <g transform="matrix(-1,0,0,1,912.452,711.636)">
            <path d="M-0.094,-82.528C23.072,-82.528 41.218,-64.424 41.218,-41.311C41.218,-18.145 23.072,0 -0.094,0C-23.207,0 -41.312,-18.145 -41.312,-41.311C-41.312,-64.424 -23.207,-82.528 -0.094,-82.528" style="fill:rgb(236,33,40);fill-rule:nonzero;"/>
        </g>
    </g>
</svg>
