<?xml version="1.0" encoding="UTF-8"?>
<svg width="800px" height="600px" viewBox="0 0 800 600" version="1.1" xmlns="http://www.w3.org/2000/svg">
    <title>Bass Fish Illustration</title>
    <g stroke="none" stroke-width="1" fill="none" fill-rule="evenodd" opacity="0.15">
        <path d="M600,250 C550,200 450,180 350,200 C300,210 250,230 200,260 C150,290 120,330 100,380 C90,405 85,430 85,455 C85,480 95,500 115,515 C135,530 160,535 190,530 C220,525 250,510 280,485 C310,460 335,430 355,395 L375,420 L385,390 C410,375 440,365 475,360 C510,355 550,360 595,375 L620,340 L635,380 C670,400 695,425 710,455 C725,485 730,515 725,545 C720,575 705,595 680,605 C655,615 625,615 590,605 C555,595 520,570 485,530 L460,550 L450,515 C420,490 385,475 345,470 C305,465 260,475 210,500 L190,470 L170,500 C130,520 95,525 65,515 C35,505 20,485 20,455 C20,425 35,390 65,350 C95,310 140,270 200,230 C260,190 330,160 410,140 C490,120 570,120 650,140 C730,160 750,190 710,230 C670,270 610,280 530,260 L550,290 L500,280 C475,270 455,260 440,250 C425,240 415,230 410,220 C405,210 410,205 425,205 C440,205 460,210 485,220 C510,230 535,245 560,265 L590,240 L595,275 C625,290 645,310 655,335 C665,360 665,385 655,410 C645,435 625,455 595,470 L570,450 L575,480 C555,490 530,490 500,480 C470,470 445,455 425,435 L410,450 L410,415 C390,405 375,390 365,370 C355,350 355,330 365,310 C375,290 390,275 410,265 L425,280 L425,250 C445,245 465,245 485,250 C505,255 520,265 530,280 L550,260 L540,290 C555,300 565,310 570,325 C575,340 575,350 570,365 C565,380 555,390 540,400 L525,385 L525,405 C505,410 490,405 475,395 C460,385 455,370 455,350 C455,330 460,315 470,305 L455,295 L470,285 C475,280 485,280 495,285 C505,290 510,300 510,315 C510,330 505,340 495,345 L505,355 L490,360 C485,355 485,350 490,340 C495,330 490,325 475,325 C460,325 455,330 460,340 C465,350 475,355 490,355 L475,370 L480,345" fill="#FFFFFF"></path>
    </g>
</svg>
