<?xml version="1.0" encoding="UTF-8" standalone="no"?>
<!DOCTYPE svg PUBLIC "-//W3C//DTD SVG 1.1//EN" "http://www.w3.org/Graphics/SVG/1.1/DTD/svg11.dtd">
<svg width="100%" height="100%" viewBox="0 0 4496 4399" version="1.1" xmlns="http://www.w3.org/2000/svg" xmlns:xlink="http://www.w3.org/1999/xlink" xml:space="preserve" xmlns:serif="http://www.serif.com/" style="fill-rule:evenodd;clip-rule:evenodd;stroke-linejoin:round;stroke-miterlimit:2;">
    <g transform="matrix(1,0,0,1,-9763.17,-12767.4)">
        <g transform="matrix(8.33333,0,0,8.33333,0,0)">
            <g transform="matrix(1,0,0,1,1229.33,1637.07)">
                <path d="M0,-104.754C-9.938,-107.011 -9.479,-91.686 0.063,-93.165C6.331,-94.137 5.496,-103.506 0,-104.754M-44.109,-55.863C-38.545,-48.084 -25.778,-53.119 -26.146,-62.344L-27.006,-61.905C-26.995,-62.514 -27.264,-63.097 -27.22,-63.707C-27.124,-65.024 -26.18,-64.651 -27.452,-66.235L-28.739,-65.38C-28.997,-68.371 -28.449,-69.091 -31.201,-70.943C-41.35,-77.775 -50.672,-65.04 -44.109,-55.863M-20.504,-8.774C-20.143,-9.381 -19.339,-9.244 -18.904,-9.564C-18.429,-9.913 -18.535,-10.992 -17.472,-10.73L-17.435,-9.471C-16.626,-9.788 -16.052,-9.591 -16.173,-8.562L-19.203,-8.562L-19.634,-6.826C-19.562,-7.912 -19.346,-8.431 -20.504,-8.774M-26.172,-25.287C-28.769,-19.188 -28.818,-10.086 -23.323,-5.53L-21.377,-7.258C-20.955,-6.113 -22.157,-6.542 -22.251,-6.114C-23.064,-2.405 -16.777,-2.418 -14.437,-2.919C-14.215,-2.668 -15.672,-1.298 -13.67,-0.43C-12.506,0.075 -6.241,1.546 -6.193,-0.531L-7.93,-1.191L-7.255,-2.04C1.967,2.257 8.401,-9.615 8.972,-17.458C10.051,-32.276 -2.479,-42.755 -16.457,-36.561C-17.572,-36.066 -20.096,-34.363 -20.956,-33.515C-21.52,-32.958 -23.982,-29.725 -23.967,-29.163C-23.954,-28.703 -23.051,-27.434 -23.15,-26.544C-21.022,-25.899 -20.107,-27.207 -18.097,-25.952C-17.721,-25.717 -17.229,-26.176 -17.47,-25.045C-19.279,-25.349 -19.432,-23.537 -20.937,-23.735L-20.067,-23.089L-21.585,-22.434C-22.587,-23.885 -20.742,-23.732 -20.508,-24.603L-24.396,-24.609L-24.847,-26.775C-25.165,-27.025 -25.995,-25.703 -26.172,-25.287" style="fill:rgb(51,49,50);fill-rule:nonzero;"/>
            </g>
        </g>
        <g transform="matrix(8.33333,0,0,8.33333,0,0)">
            <g transform="matrix(1,0,0,1,1650.29,2043.99)">
                <path d="M0,-106.825C12.495,-104.887 13.096,-124.956 0.083,-122.001C-7.115,-120.366 -8.207,-108.098 0,-106.825M40.941,-77.725C37.337,-75.3 38.055,-74.357 37.716,-70.441L36.031,-71.56C34.366,-69.486 35.602,-69.973 35.728,-68.249C35.786,-67.45 35.433,-66.687 35.447,-65.89L34.321,-66.464C33.839,-54.385 50.557,-47.791 57.843,-57.978C66.438,-69.995 54.231,-86.671 40.941,-77.725M25.794,6.237L25.23,3.963L21.261,3.963C21.103,2.616 21.854,2.358 22.914,2.773L22.963,1.125C24.355,0.781 24.216,2.195 24.838,2.652C25.407,3.07 26.46,2.89 26.933,3.686C25.417,4.134 25.699,4.814 25.794,6.237M32.62,-19.887L32.03,-17.051L26.939,-17.043C27.245,-15.901 29.66,-16.103 28.349,-14.202L26.361,-15.06L27.5,-15.906C25.529,-15.647 25.329,-18.019 22.96,-17.621C22.645,-19.103 23.289,-18.502 23.781,-18.809C26.414,-20.452 27.612,-18.739 30.398,-19.584C30.268,-20.749 31.451,-22.411 31.467,-23.013C31.488,-23.749 28.263,-27.983 27.525,-28.713C26.399,-29.824 23.094,-32.054 21.634,-32.701C3.33,-40.813 -13.079,-27.09 -11.666,-7.685C-10.919,2.584 -2.492,18.131 9.583,12.504L10.468,13.615L8.192,14.48C8.256,17.199 16.459,15.274 17.984,14.613C20.606,13.475 18.697,11.681 18.989,11.354C22.052,12.008 30.286,12.025 29.22,7.168C29.098,6.609 27.523,7.17 28.077,5.671L30.625,7.933C37.821,1.968 37.756,-9.951 34.355,-17.938C34.123,-18.482 33.036,-20.215 32.62,-19.887" style="fill:rgb(51,49,50);fill-rule:nonzero;"/>
            </g>
        </g>
        <g transform="matrix(8.33333,0,0,8.33333,0,0)">
            <g transform="matrix(1,0,0,1,1208.88,1905.65)">
                <path d="M0,-26.49C6.246,-33.769 22.402,-41.347 31.418,-35.968C32.264,-35.464 32.012,-34.272 32.186,-34.139C32.403,-33.974 33.597,-35.484 36.919,-32.812C47.735,-24.111 47.728,-7.451 38.663,2.205L33.946,0.832L34.556,3.918L36.897,2.818C37.657,4.289 36.509,3.978 36.214,4.482C30.154,14.857 10.971,13.851 2.381,6.721C-7.807,-1.735 -8.49,-16.596 0,-26.49" style="fill:rgb(51,49,50);fill-rule:nonzero;"/>
            </g>
        </g>
        <g transform="matrix(8.33333,0,0,8.33333,0,0)">
            <g transform="matrix(-0.980212,0.197953,0.197953,0.980212,1231.08,1883.27)">
                <path d="M1.141,-4.576L3.025,-4.576L2.776,-0.771L-1.353,0.48C-1.07,-1.865 1.983,-1.543 1.141,-4.576" style="fill:rgb(51,49,50);fill-rule:nonzero;"/>
            </g>
        </g>
        <g transform="matrix(8.33333,0,0,8.33333,0,0)">
            <g transform="matrix(0.997056,-0.076677,-0.076677,-0.997056,1235.79,1913.7)">
                <path d="M-0.213,0.037C0.59,1.291 2.885,1.922 2.192,3.791C1.735,5.021 0.205,3.752 -0.213,3.962C-0.529,4.121 -0.226,5.644 -1.736,4.917C-2.193,3.055 -1.85,1.237 -0.213,0.037" style="fill:rgb(51,49,50);fill-rule:nonzero;"/>
            </g>
        </g>
        <g transform="matrix(8.33333,0,0,8.33333,0,0)">
            <g transform="matrix(1,0,0,1,1228.78,1890.49)">
                <path d="M0,3.354L1.2,2.832L2.176,4.132L4.439,3.109C4.315,1.077 3.695,2.181 2.513,2.814L-1.782,-0.778L-2.348,1.241L-0.012,1.398L0,3.354Z" style="fill:rgb(51,49,50);fill-rule:nonzero;"/>
            </g>
        </g>
        <g transform="matrix(8.33333,0,0,8.33333,0,0)">
            <g transform="matrix(1,0,0,1,1323.37,2012.03)">
                <path d="M0,13.086L-1.217,12.918C-6.572,-16.713 38.349,-21.055 41.252,7.509C42.75,22.248 29.066,34.141 15.018,30.668L16.089,29.873L14.836,26.533L12.906,28.164L8.855,23.863C8.277,23.747 8.937,28.828 6.992,27.446C6.251,26.92 2.555,23.38 2.561,22.87C2.588,20.742 6.502,23.168 5.344,20.703L1.187,20.905C0.528,18.543 -2.57,14.5 0,13.086" style="fill:rgb(51,49,50);fill-rule:nonzero;"/>
            </g>
        </g>
        <g transform="matrix(8.33333,0,0,8.33333,0,0)">
            <g transform="matrix(1,0,0,1,1212.04,1746.43)">
                <path d="M0,0.78L1.359,1.14C-6.898,22.603 -38.468,9.032 -30.417,-12.112C-29.534,-14.431 -28.876,-16.759 -25.955,-16.903L-26.786,-17.974L-20.516,-21.823L-20.638,-19.234C-18.571,-21.002 -17.032,-19.016 -14.836,-18.27L-13.909,-16.07L-14.045,-18.273L-12.869,-18.825L-10.384,-15.849L-14.91,-9.766L-9.991,-5.932C-9.321,-9.488 -6.529,-8.074 -3.748,-8.443C-5.211,-11.831 -6.741,-9.338 -7.717,-9.668C-7.971,-9.754 -9.169,-11.703 -10.474,-11.592L-12.268,-9.33L-10.021,-14.257L-9.168,-13.151L-7.944,-13.4L-8.059,-14.563C-5.245,-14.05 -6.692,-15.122 -5.914,-16.003C-4.255,-17.877 -0.089,-14.702 -0.034,-12.384L-3.056,-13.053C-5.04,-10.684 -1.914,-11.743 -2.008,-9.421L0.828,-11.262C1.521,-7.284 3.526,-2.106 0,0.78" style="fill:rgb(51,49,50);fill-rule:nonzero;"/>
            </g>
        </g>
        <g transform="matrix(8.33333,0,0,8.33333,0,0)">
            <g transform="matrix(1,0,0,1,1211.45,1743.57)">
                <path d="M0,-2.691C-2.934,-1.052 -4.922,-3.845 -7.85,-3.363C-8.744,-2.108 -2.097,0.491 -1.496,1.154L-0.94,-0.881L1.027,-0.624L0,-2.691Z" style="fill:rgb(51,49,50);fill-rule:nonzero;"/>
            </g>
        </g>
        <g transform="matrix(8.33333,0,0,8.33333,0,0)">
            <g transform="matrix(1,0,0,1,1182.66,1861.95)">
                <path d="M0,-23.691C17.027,-24.658 20.1,-0.873 1.715,0.143C-13.172,0.967 -16.719,-22.741 0,-23.691" style="fill:rgb(51,49,50);fill-rule:nonzero;"/>
            </g>
        </g>
        <g transform="matrix(8.33333,0,0,8.33333,0,0)">
            <g transform="matrix(1,0,0,1,1309.54,1996.11)">
                <path d="M0,7.934C0.195,13.178 -4.383,18.229 -9.619,18.39C-11.845,18.458 -15.747,17.957 -15.232,15.152L-16.958,16.13L-15.713,12.685L-17.813,15.017L-19.419,10.195L-20.522,11.063C-27.044,-6.41 -0.686,-10.524 0,7.934" style="fill:rgb(51,49,50);fill-rule:nonzero;"/>
            </g>
        </g>
        <g transform="matrix(8.33333,0,0,8.33333,0,0)">
            <g transform="matrix(1,0,0,1,1230.51,1783.19)">
                <path d="M0,-1.606C0.108,-5.252 4.763,-9.507 8.157,-10.138C10.448,-10.564 10.532,-8.824 12.083,-7.897C13.139,-7.266 15.196,-7.836 16.278,-6.226L13.438,-4.387L14.703,-4.014L14.105,-0.997L17.192,-1.606L15.661,-2.895C16.854,-4.256 17.323,-5.465 16.723,-7.283C17.634,-7.6 17.971,-6.044 18.14,-5.436C18.329,-4.757 18.43,0.502 18.295,0.964C18.12,1.563 16.536,4.108 16.105,4.225C14.945,4.54 10.647,1.626 13.095,6.911C6.537,8.958 -0.233,6.223 0,-1.606" style="fill:rgb(51,49,50);fill-rule:nonzero;"/>
            </g>
        </g>
    </g>
</svg>
