<?xml version="1.0" encoding="UTF-8" standalone="no"?>
<!DOCTYPE svg PUBLIC "-//W3C//DTD SVG 1.1//EN" "http://www.w3.org/Graphics/SVG/1.1/DTD/svg11.dtd">
<svg width="100%" height="100%" viewBox="0 0 3383 761" version="1.1" xmlns="http://www.w3.org/2000/svg" xmlns:xlink="http://www.w3.org/1999/xlink" xml:space="preserve" xmlns:serif="http://www.serif.com/" style="fill-rule:evenodd;clip-rule:evenodd;stroke-linejoin:round;stroke-miterlimit:2;">
    <g transform="matrix(2.00018,0,0,2.50022,-324.88,-229.571)">
        <g transform="matrix(1.05018,0,0,1.49466,-16.901,-146.393)">
            <ellipse cx="975.931" cy="261.129" rx="805.236" ry="101.753" style="fill:rgb(255,0,24);"/>
        </g>
        <g transform="matrix(1.02468,0,0,2.09134,-36.3579,-261.776)">
            <ellipse cx="1019.2" cy="241.798" rx="775.749" ry="64.375" style="fill:rgb(29,29,32);"/>
        </g>
        <g transform="matrix(1.00824,0,0,1.9031,-19.6007,-216.259)">
            <ellipse cx="1019.2" cy="241.798" rx="775.749" ry="64.375"/>
        </g>
    </g>
    <g transform="matrix(0.982751,0,0,0.982751,66.5774,38.1637)">
        <g transform="matrix(242.225,0,0,242.225,403.125,430.124)">
            <path d="M0.2,-0.518C0.2,-0.531 0.199,-0.54 0.196,-0.546C0.193,-0.552 0.186,-0.561 0.176,-0.572L0.177,-0.579C0.212,-0.6 0.256,-0.61 0.309,-0.61C0.33,-0.61 0.345,-0.608 0.355,-0.605C0.358,-0.598 0.36,-0.584 0.36,-0.564C0.36,-0.543 0.344,-0.467 0.312,-0.338C0.327,-0.332 0.343,-0.329 0.362,-0.329C0.394,-0.329 0.42,-0.34 0.441,-0.362C0.462,-0.384 0.475,-0.408 0.482,-0.434C0.488,-0.459 0.491,-0.486 0.491,-0.515C0.491,-0.568 0.477,-0.606 0.449,-0.63C0.42,-0.653 0.374,-0.665 0.311,-0.665C0.228,-0.665 0.16,-0.648 0.105,-0.615C0.05,-0.582 0.023,-0.547 0.023,-0.51C0.023,-0.491 0.03,-0.476 0.045,-0.465C0.059,-0.453 0.074,-0.445 0.089,-0.441C0.086,-0.417 0.078,-0.392 0.064,-0.367C0.039,-0.37 0.015,-0.384 -0.009,-0.407C-0.032,-0.43 -0.043,-0.461 -0.043,-0.499C-0.043,-0.567 -0.005,-0.622 0.071,-0.663C0.147,-0.704 0.236,-0.725 0.337,-0.725C0.438,-0.725 0.515,-0.708 0.567,-0.675C0.619,-0.641 0.645,-0.589 0.645,-0.518C0.645,-0.425 0.608,-0.355 0.534,-0.308C0.494,-0.282 0.446,-0.269 0.39,-0.269C0.355,-0.269 0.324,-0.274 0.299,-0.285C0.271,-0.171 0.254,-0.08 0.248,-0.011C0.209,0 0.165,0.006 0.117,0.006C0.106,0.006 0.097,0.005 0.092,0.003C0.095,-0.039 0.114,-0.126 0.149,-0.259C0.183,-0.392 0.2,-0.478 0.2,-0.518Z" style="fill:white;fill-rule:nonzero;"/>
        </g>
        <g transform="matrix(242.225,0,0,242.225,546.764,430.124)">
            <path d="M0.328,-0.414C0.329,-0.415 0.333,-0.424 0.339,-0.44C0.37,-0.44 0.412,-0.431 0.465,-0.412C0.448,-0.357 0.435,-0.299 0.425,-0.239C0.415,-0.178 0.41,-0.135 0.41,-0.11C0.41,-0.084 0.413,-0.071 0.418,-0.071C0.422,-0.071 0.437,-0.077 0.462,-0.09L0.474,-0.096L0.492,-0.061C0.486,-0.056 0.478,-0.049 0.469,-0.041C0.459,-0.033 0.441,-0.022 0.414,-0.009C0.387,0.005 0.363,0.012 0.342,0.012C0.301,0.012 0.277,-0.007 0.27,-0.044C0.227,-0.007 0.189,0.012 0.155,0.012C0.12,0.012 0.091,-0.001 0.068,-0.028C0.044,-0.055 0.032,-0.097 0.032,-0.154C0.032,-0.243 0.05,-0.314 0.087,-0.366C0.124,-0.417 0.168,-0.443 0.22,-0.443C0.257,-0.443 0.293,-0.433 0.328,-0.414ZM0.214,-0.073C0.23,-0.073 0.248,-0.079 0.268,-0.092C0.273,-0.186 0.288,-0.279 0.315,-0.371C0.295,-0.38 0.278,-0.384 0.264,-0.384C0.24,-0.384 0.22,-0.361 0.203,-0.314C0.186,-0.267 0.177,-0.215 0.177,-0.158C0.177,-0.101 0.189,-0.073 0.214,-0.073Z" style="fill:white;fill-rule:nonzero;"/>
        </g>
        <g transform="matrix(242.225,0,0,242.225,663.032,430.124)">
            <path d="M0.05,0.003L0.043,0.003C0.042,-0.002 0.041,-0.015 0.041,-0.034C0.041,-0.053 0.05,-0.104 0.068,-0.187C0.086,-0.27 0.095,-0.318 0.095,-0.33C0.095,-0.351 0.086,-0.373 0.067,-0.398L0.058,-0.41L0.059,-0.423C0.095,-0.433 0.153,-0.438 0.232,-0.438C0.24,-0.421 0.244,-0.396 0.244,-0.365C0.251,-0.377 0.267,-0.393 0.29,-0.413C0.313,-0.433 0.337,-0.443 0.362,-0.443C0.398,-0.443 0.416,-0.412 0.416,-0.349C0.413,-0.345 0.408,-0.34 0.403,-0.334C0.397,-0.327 0.386,-0.318 0.369,-0.307C0.352,-0.296 0.335,-0.289 0.319,-0.286C0.318,-0.286 0.313,-0.295 0.302,-0.313C0.291,-0.331 0.283,-0.34 0.278,-0.34C0.261,-0.334 0.247,-0.324 0.234,-0.31C0.203,-0.172 0.188,-0.083 0.188,-0.042C0.188,-0.027 0.188,-0.017 0.189,-0.011C0.166,-0.002 0.119,0.003 0.05,0.003Z" style="fill:white;fill-rule:nonzero;"/>
        </g>
        <g transform="matrix(242.225,0,0,242.225,756.046,430.124)">
            <path d="M0.343,-0.431C0.342,-0.414 0.336,-0.395 0.326,-0.373C0.301,-0.376 0.277,-0.377 0.254,-0.377L0.236,-0.377C0.205,-0.228 0.19,-0.136 0.19,-0.099C0.19,-0.08 0.194,-0.07 0.203,-0.07C0.211,-0.07 0.233,-0.078 0.269,-0.095L0.287,-0.062C0.228,-0.013 0.173,0.012 0.122,0.012C0.099,0.012 0.08,0.005 0.065,-0.01C0.05,-0.025 0.042,-0.044 0.042,-0.069C0.042,-0.093 0.045,-0.12 0.051,-0.151C0.056,-0.182 0.064,-0.219 0.074,-0.264C0.084,-0.308 0.091,-0.344 0.096,-0.371C0.071,-0.369 0.053,-0.367 0.041,-0.365C0.04,-0.373 0.039,-0.384 0.039,-0.398C0.039,-0.411 0.04,-0.422 0.042,-0.431L0.105,-0.431C0.11,-0.467 0.113,-0.501 0.113,-0.533L0.112,-0.564L0.112,-0.567C0.164,-0.585 0.213,-0.594 0.259,-0.594C0.262,-0.581 0.263,-0.564 0.263,-0.544C0.263,-0.524 0.257,-0.486 0.246,-0.431L0.343,-0.431Z" style="fill:white;fill-rule:nonzero;"/>
        </g>
        <g transform="matrix(242.225,0,0,242.225,829.924,430.124)">
            <path d="M0.057,0.003L0.038,0.003C0.038,-0.028 0.048,-0.088 0.067,-0.177C0.086,-0.266 0.095,-0.316 0.095,-0.328C0.095,-0.35 0.086,-0.373 0.067,-0.398L0.058,-0.41L0.059,-0.423C0.095,-0.433 0.153,-0.438 0.232,-0.438C0.241,-0.427 0.245,-0.406 0.246,-0.376C0.304,-0.421 0.353,-0.443 0.393,-0.443C0.417,-0.443 0.436,-0.435 0.451,-0.418C0.465,-0.401 0.472,-0.381 0.472,-0.356C0.472,-0.331 0.464,-0.287 0.449,-0.226C0.434,-0.165 0.426,-0.124 0.426,-0.103C0.426,-0.082 0.429,-0.071 0.434,-0.071C0.438,-0.071 0.452,-0.077 0.476,-0.09L0.488,-0.096L0.506,-0.061C0.5,-0.056 0.492,-0.049 0.482,-0.041C0.472,-0.033 0.454,-0.022 0.427,-0.009C0.4,0.005 0.375,0.012 0.354,0.012C0.305,0.012 0.281,-0.016 0.281,-0.071C0.281,-0.094 0.289,-0.137 0.304,-0.2C0.319,-0.263 0.326,-0.303 0.326,-0.321C0.326,-0.339 0.32,-0.348 0.309,-0.348C0.29,-0.348 0.266,-0.34 0.238,-0.323C0.236,-0.312 0.229,-0.282 0.218,-0.233C0.195,-0.128 0.183,-0.054 0.183,-0.011C0.16,-0.002 0.118,0.003 0.057,0.003Z" style="fill:white;fill-rule:nonzero;"/>
        </g>
        <g transform="matrix(242.225,0,0,242.225,952.974,430.124)">
            <path d="M0.026,-0.173C0.026,-0.256 0.051,-0.322 0.102,-0.371C0.152,-0.419 0.209,-0.443 0.273,-0.443C0.312,-0.443 0.345,-0.433 0.37,-0.414C0.395,-0.395 0.408,-0.369 0.408,-0.337C0.408,-0.304 0.4,-0.277 0.384,-0.255C0.367,-0.233 0.347,-0.216 0.324,-0.204C0.277,-0.181 0.233,-0.166 0.194,-0.16L0.17,-0.157C0.175,-0.094 0.2,-0.063 0.247,-0.063C0.263,-0.063 0.28,-0.067 0.298,-0.075C0.316,-0.083 0.33,-0.091 0.34,-0.099L0.355,-0.111L0.379,-0.079C0.374,-0.072 0.363,-0.062 0.347,-0.05C0.331,-0.038 0.316,-0.028 0.302,-0.02C0.263,0.001 0.221,0.012 0.175,0.012C0.129,0.012 0.093,-0.004 0.066,-0.037C0.039,-0.07 0.026,-0.115 0.026,-0.173ZM0.169,-0.206C0.203,-0.212 0.23,-0.226 0.25,-0.249C0.27,-0.272 0.28,-0.301 0.28,-0.337C0.28,-0.373 0.269,-0.391 0.248,-0.391C0.223,-0.391 0.203,-0.37 0.19,-0.327C0.176,-0.284 0.169,-0.243 0.169,-0.206Z" style="fill:white;fill-rule:nonzero;"/>
        </g>
        <g transform="matrix(242.225,0,0,242.225,1049.62,430.124)">
            <path d="M0.05,0.003L0.043,0.003C0.042,-0.002 0.041,-0.015 0.041,-0.034C0.041,-0.053 0.05,-0.104 0.068,-0.187C0.086,-0.27 0.095,-0.318 0.095,-0.33C0.095,-0.351 0.086,-0.373 0.067,-0.398L0.058,-0.41L0.059,-0.423C0.095,-0.433 0.153,-0.438 0.232,-0.438C0.24,-0.421 0.244,-0.396 0.244,-0.365C0.251,-0.377 0.267,-0.393 0.29,-0.413C0.313,-0.433 0.337,-0.443 0.362,-0.443C0.398,-0.443 0.416,-0.412 0.416,-0.349C0.413,-0.345 0.408,-0.34 0.403,-0.334C0.397,-0.327 0.386,-0.318 0.369,-0.307C0.352,-0.296 0.335,-0.289 0.319,-0.286C0.318,-0.286 0.313,-0.295 0.302,-0.313C0.291,-0.331 0.283,-0.34 0.278,-0.34C0.261,-0.334 0.247,-0.324 0.234,-0.31C0.203,-0.172 0.188,-0.083 0.188,-0.042C0.188,-0.027 0.188,-0.017 0.189,-0.011C0.166,-0.002 0.119,0.003 0.05,0.003Z" style="fill:white;fill-rule:nonzero;"/>
        </g>
        <g transform="matrix(242.225,0,0,242.225,1141.43,430.124)">
            <path d="M0.339,-0.131C0.339,-0.089 0.321,-0.055 0.284,-0.028C0.247,-0.001 0.204,0.012 0.157,0.012C0.11,0.012 0.072,0.002 0.045,-0.018C0.017,-0.038 0.003,-0.056 0.003,-0.071C0.003,-0.08 0.015,-0.096 0.038,-0.117C0.061,-0.137 0.081,-0.15 0.097,-0.155C0.13,-0.13 0.158,-0.091 0.179,-0.038C0.204,-0.04 0.216,-0.052 0.216,-0.073C0.216,-0.104 0.189,-0.147 0.135,-0.204C0.081,-0.26 0.054,-0.305 0.054,-0.338C0.054,-0.371 0.069,-0.397 0.099,-0.416C0.129,-0.434 0.165,-0.443 0.208,-0.443C0.25,-0.443 0.282,-0.436 0.303,-0.421C0.324,-0.405 0.335,-0.385 0.335,-0.36C0.335,-0.334 0.315,-0.298 0.274,-0.253C0.279,-0.248 0.285,-0.242 0.292,-0.235C0.299,-0.227 0.309,-0.212 0.321,-0.191C0.333,-0.17 0.339,-0.15 0.339,-0.131ZM0.243,-0.288C0.271,-0.312 0.285,-0.336 0.285,-0.359C0.285,-0.382 0.269,-0.394 0.237,-0.394C0.222,-0.394 0.209,-0.391 0.199,-0.385C0.189,-0.378 0.184,-0.371 0.184,-0.363C0.184,-0.348 0.199,-0.328 0.228,-0.301L0.243,-0.288Z" style="fill:white;fill-rule:nonzero;"/>
        </g>
        <g transform="matrix(242.225,0,0,242.225,1275.86,430.124)">
            <path d="M0.21,-0.123L0.216,-0.293C0.152,-0.301 0.098,-0.323 0.055,-0.358C0.012,-0.393 -0.01,-0.441 -0.01,-0.5C-0.01,-0.549 0.014,-0.596 0.062,-0.642C0.11,-0.687 0.167,-0.71 0.234,-0.71C0.332,-0.71 0.381,-0.646 0.381,-0.519C0.381,-0.482 0.379,-0.425 0.374,-0.348C0.369,-0.271 0.366,-0.212 0.366,-0.173C0.366,-0.134 0.377,-0.114 0.398,-0.114C0.411,-0.114 0.429,-0.125 0.454,-0.147C0.478,-0.168 0.498,-0.192 0.515,-0.217C0.53,-0.368 0.537,-0.458 0.537,-0.487C0.537,-0.516 0.537,-0.536 0.537,-0.547C0.536,-0.558 0.536,-0.568 0.535,-0.578C0.534,-0.588 0.533,-0.596 0.533,-0.601C0.532,-0.606 0.531,-0.612 0.529,-0.621C0.526,-0.63 0.525,-0.635 0.525,-0.636C0.524,-0.637 0.523,-0.643 0.52,-0.653C0.517,-0.663 0.515,-0.668 0.515,-0.669C0.549,-0.687 0.605,-0.701 0.682,-0.71L0.682,-0.709C0.689,-0.686 0.693,-0.652 0.693,-0.609C0.693,-0.565 0.686,-0.489 0.673,-0.381C0.66,-0.273 0.653,-0.202 0.653,-0.167C0.653,-0.132 0.663,-0.114 0.684,-0.114C0.704,-0.114 0.729,-0.132 0.758,-0.168C0.787,-0.204 0.813,-0.251 0.838,-0.309C0.862,-0.367 0.877,-0.423 0.883,-0.478C0.883,-0.532 0.855,-0.594 0.798,-0.665C0.811,-0.694 0.829,-0.72 0.85,-0.743C0.871,-0.765 0.889,-0.781 0.904,-0.79L0.926,-0.804C0.951,-0.804 0.972,-0.787 0.99,-0.752C1.007,-0.717 1.016,-0.676 1.016,-0.629C1.016,-0.582 1.003,-0.521 0.978,-0.448C0.953,-0.374 0.921,-0.303 0.883,-0.235C0.844,-0.167 0.799,-0.109 0.748,-0.061C0.696,-0.012 0.647,0.012 0.6,0.012C0.576,0.012 0.555,0 0.537,-0.024C0.519,-0.048 0.51,-0.079 0.509,-0.116C0.48,-0.076 0.45,-0.045 0.418,-0.022C0.386,0.001 0.354,0.012 0.322,0.012C0.29,0.012 0.263,-0.001 0.242,-0.027C0.221,-0.053 0.21,-0.085 0.21,-0.123ZM0.225,-0.517C0.225,-0.558 0.221,-0.587 0.214,-0.602C0.206,-0.616 0.191,-0.624 0.17,-0.624C0.148,-0.624 0.123,-0.612 0.095,-0.588C0.066,-0.564 0.052,-0.533 0.052,-0.494C0.052,-0.455 0.069,-0.423 0.103,-0.398C0.136,-0.373 0.175,-0.36 0.22,-0.36C0.223,-0.423 0.225,-0.476 0.225,-0.517Z" style="fill:white;fill-rule:nonzero;"/>
        </g>
        <g transform="matrix(242.225,0,0,242.225,1511.06,430.124)">
            <path d="M0.026,-0.173C0.026,-0.256 0.051,-0.322 0.102,-0.371C0.152,-0.419 0.209,-0.443 0.273,-0.443C0.312,-0.443 0.345,-0.433 0.37,-0.414C0.395,-0.395 0.408,-0.369 0.408,-0.337C0.408,-0.304 0.4,-0.277 0.384,-0.255C0.367,-0.233 0.347,-0.216 0.324,-0.204C0.277,-0.181 0.233,-0.166 0.194,-0.16L0.17,-0.157C0.175,-0.094 0.2,-0.063 0.247,-0.063C0.263,-0.063 0.28,-0.067 0.298,-0.075C0.316,-0.083 0.33,-0.091 0.34,-0.099L0.355,-0.111L0.379,-0.079C0.374,-0.072 0.363,-0.062 0.347,-0.05C0.331,-0.038 0.316,-0.028 0.302,-0.02C0.263,0.001 0.221,0.012 0.175,0.012C0.129,0.012 0.093,-0.004 0.066,-0.037C0.039,-0.07 0.026,-0.115 0.026,-0.173ZM0.169,-0.206C0.203,-0.212 0.23,-0.226 0.25,-0.249C0.27,-0.272 0.28,-0.301 0.28,-0.337C0.28,-0.373 0.269,-0.391 0.248,-0.391C0.223,-0.391 0.203,-0.37 0.19,-0.327C0.176,-0.284 0.169,-0.243 0.169,-0.206Z" style="fill:white;fill-rule:nonzero;"/>
        </g>
        <g transform="matrix(242.225,0,0,242.225,1656.15,430.124)">
            <path d="M0.585,0.012C0.55,0.012 0.525,0.003 0.509,-0.016C0.493,-0.034 0.485,-0.058 0.485,-0.089C0.485,-0.119 0.5,-0.201 0.53,-0.334C0.473,-0.333 0.428,-0.327 0.394,-0.318C0.375,-0.224 0.345,-0.143 0.305,-0.074C0.284,-0.039 0.259,-0.012 0.23,0.009C0.201,0.029 0.169,0.039 0.134,0.039C0.099,0.039 0.071,0.028 0.049,0.005C0.027,-0.019 0.016,-0.049 0.016,-0.086C0.016,-0.139 0.038,-0.19 0.082,-0.237C0.126,-0.284 0.182,-0.321 0.249,-0.35C0.255,-0.411 0.258,-0.462 0.258,-0.501C0.258,-0.54 0.254,-0.567 0.247,-0.583C0.239,-0.599 0.227,-0.607 0.21,-0.607C0.193,-0.607 0.171,-0.601 0.144,-0.589C0.117,-0.576 0.091,-0.56 0.067,-0.539L0.042,-0.575C0.066,-0.604 0.101,-0.632 0.148,-0.659C0.195,-0.685 0.24,-0.698 0.283,-0.698C0.37,-0.698 0.414,-0.632 0.414,-0.499C0.414,-0.468 0.411,-0.43 0.406,-0.386C0.449,-0.395 0.496,-0.4 0.545,-0.403C0.568,-0.508 0.579,-0.592 0.579,-0.653C0.579,-0.664 0.578,-0.673 0.577,-0.679C0.63,-0.7 0.684,-0.71 0.738,-0.71C0.74,-0.705 0.741,-0.695 0.741,-0.682C0.741,-0.641 0.725,-0.546 0.692,-0.399C0.772,-0.393 0.827,-0.385 0.856,-0.375C0.857,-0.372 0.857,-0.367 0.857,-0.36C0.857,-0.346 0.851,-0.328 0.838,-0.307C0.795,-0.32 0.741,-0.329 0.678,-0.333C0.655,-0.221 0.643,-0.149 0.643,-0.116C0.643,-0.083 0.651,-0.066 0.667,-0.066C0.676,-0.066 0.685,-0.068 0.695,-0.071L0.71,-0.032C0.662,-0.003 0.62,0.012 0.585,0.012ZM0.124,-0.057C0.145,-0.057 0.166,-0.075 0.187,-0.112C0.208,-0.149 0.224,-0.203 0.237,-0.276C0.2,-0.26 0.166,-0.235 0.135,-0.201C0.104,-0.167 0.089,-0.134 0.089,-0.103C0.089,-0.088 0.092,-0.077 0.1,-0.069C0.107,-0.061 0.115,-0.057 0.124,-0.057Z" style="fill:white;fill-rule:nonzero;"/>
        </g>
        <g transform="matrix(242.225,0,0,242.225,1840,430.124)">
            <path d="M0.328,-0.414C0.329,-0.415 0.333,-0.424 0.339,-0.44C0.37,-0.44 0.412,-0.431 0.465,-0.412C0.448,-0.357 0.435,-0.299 0.425,-0.239C0.415,-0.178 0.41,-0.135 0.41,-0.11C0.41,-0.084 0.413,-0.071 0.418,-0.071C0.422,-0.071 0.437,-0.077 0.462,-0.09L0.474,-0.096L0.492,-0.061C0.486,-0.056 0.478,-0.049 0.469,-0.041C0.459,-0.033 0.441,-0.022 0.414,-0.009C0.387,0.005 0.363,0.012 0.342,0.012C0.301,0.012 0.277,-0.007 0.27,-0.044C0.227,-0.007 0.189,0.012 0.155,0.012C0.12,0.012 0.091,-0.001 0.068,-0.028C0.044,-0.055 0.032,-0.097 0.032,-0.154C0.032,-0.243 0.05,-0.314 0.087,-0.366C0.124,-0.417 0.168,-0.443 0.22,-0.443C0.257,-0.443 0.293,-0.433 0.328,-0.414ZM0.214,-0.073C0.23,-0.073 0.248,-0.079 0.268,-0.092C0.273,-0.186 0.288,-0.279 0.315,-0.371C0.295,-0.38 0.278,-0.384 0.264,-0.384C0.24,-0.384 0.22,-0.361 0.203,-0.314C0.186,-0.267 0.177,-0.215 0.177,-0.158C0.177,-0.101 0.189,-0.073 0.214,-0.073Z" style="fill:white;fill-rule:nonzero;"/>
        </g>
        <g transform="matrix(242.225,0,0,242.225,1956.27,430.124)">
            <path d="M0.127,-0.443C0.156,-0.443 0.178,-0.437 0.193,-0.425C0.207,-0.413 0.214,-0.388 0.214,-0.351C0.214,-0.331 0.208,-0.29 0.196,-0.229C0.184,-0.167 0.178,-0.129 0.178,-0.116C0.178,-0.089 0.183,-0.076 0.194,-0.076C0.219,-0.076 0.247,-0.095 0.278,-0.133C0.308,-0.17 0.324,-0.202 0.325,-0.227L0.257,-0.303C0.26,-0.332 0.267,-0.358 0.278,-0.381C0.289,-0.404 0.3,-0.421 0.31,-0.43L0.324,-0.443C0.353,-0.443 0.374,-0.435 0.389,-0.42C0.404,-0.405 0.411,-0.387 0.411,-0.366C0.411,-0.313 0.398,-0.258 0.372,-0.199C0.346,-0.14 0.311,-0.091 0.268,-0.05C0.225,-0.009 0.181,0.012 0.136,0.012C0.108,0.012 0.087,0.003 0.072,-0.014C0.057,-0.031 0.049,-0.054 0.049,-0.083C0.049,-0.111 0.051,-0.149 0.056,-0.197C0.06,-0.245 0.062,-0.293 0.062,-0.34C0.062,-0.351 0.058,-0.363 0.051,-0.378C0.043,-0.393 0.035,-0.404 0.027,-0.413L0.03,-0.425C0.066,-0.437 0.098,-0.443 0.127,-0.443Z" style="fill:white;fill-rule:nonzero;"/>
        </g>
        <g transform="matrix(242.225,0,0,242.225,2051.71,430.124)">
            <path d="M0.026,-0.173C0.026,-0.256 0.051,-0.322 0.102,-0.371C0.152,-0.419 0.209,-0.443 0.273,-0.443C0.312,-0.443 0.345,-0.433 0.37,-0.414C0.395,-0.395 0.408,-0.369 0.408,-0.337C0.408,-0.304 0.4,-0.277 0.384,-0.255C0.367,-0.233 0.347,-0.216 0.324,-0.204C0.277,-0.181 0.233,-0.166 0.194,-0.16L0.17,-0.157C0.175,-0.094 0.2,-0.063 0.247,-0.063C0.263,-0.063 0.28,-0.067 0.298,-0.075C0.316,-0.083 0.33,-0.091 0.34,-0.099L0.355,-0.111L0.379,-0.079C0.374,-0.072 0.363,-0.062 0.347,-0.05C0.331,-0.038 0.316,-0.028 0.302,-0.02C0.263,0.001 0.221,0.012 0.175,0.012C0.129,0.012 0.093,-0.004 0.066,-0.037C0.039,-0.07 0.026,-0.115 0.026,-0.173ZM0.169,-0.206C0.203,-0.212 0.23,-0.226 0.25,-0.249C0.27,-0.272 0.28,-0.301 0.28,-0.337C0.28,-0.373 0.269,-0.391 0.248,-0.391C0.223,-0.391 0.203,-0.37 0.19,-0.327C0.176,-0.284 0.169,-0.243 0.169,-0.206Z" style="fill:white;fill-rule:nonzero;"/>
        </g>
        <g transform="matrix(242.225,0,0,242.225,2196.8,430.124)">
            <path d="M0.585,0.012C0.55,0.012 0.525,0.003 0.509,-0.016C0.493,-0.034 0.485,-0.058 0.485,-0.089C0.485,-0.119 0.5,-0.201 0.53,-0.334C0.473,-0.333 0.428,-0.327 0.394,-0.318C0.375,-0.224 0.345,-0.143 0.305,-0.074C0.284,-0.039 0.259,-0.012 0.23,0.009C0.201,0.029 0.169,0.039 0.134,0.039C0.099,0.039 0.071,0.028 0.049,0.005C0.027,-0.019 0.016,-0.049 0.016,-0.086C0.016,-0.139 0.038,-0.19 0.082,-0.237C0.126,-0.284 0.182,-0.321 0.249,-0.35C0.255,-0.411 0.258,-0.462 0.258,-0.501C0.258,-0.54 0.254,-0.567 0.247,-0.583C0.239,-0.599 0.227,-0.607 0.21,-0.607C0.193,-0.607 0.171,-0.601 0.144,-0.589C0.117,-0.576 0.091,-0.56 0.067,-0.539L0.042,-0.575C0.066,-0.604 0.101,-0.632 0.148,-0.659C0.195,-0.685 0.24,-0.698 0.283,-0.698C0.37,-0.698 0.414,-0.632 0.414,-0.499C0.414,-0.468 0.411,-0.43 0.406,-0.386C0.449,-0.395 0.496,-0.4 0.545,-0.403C0.568,-0.508 0.579,-0.592 0.579,-0.653C0.579,-0.664 0.578,-0.673 0.577,-0.679C0.63,-0.7 0.684,-0.71 0.738,-0.71C0.74,-0.705 0.741,-0.695 0.741,-0.682C0.741,-0.641 0.725,-0.546 0.692,-0.399C0.772,-0.393 0.827,-0.385 0.856,-0.375C0.857,-0.372 0.857,-0.367 0.857,-0.36C0.857,-0.346 0.851,-0.328 0.838,-0.307C0.795,-0.32 0.741,-0.329 0.678,-0.333C0.655,-0.221 0.643,-0.149 0.643,-0.116C0.643,-0.083 0.651,-0.066 0.667,-0.066C0.676,-0.066 0.685,-0.068 0.695,-0.071L0.71,-0.032C0.662,-0.003 0.62,0.012 0.585,0.012ZM0.124,-0.057C0.145,-0.057 0.166,-0.075 0.187,-0.112C0.208,-0.149 0.224,-0.203 0.237,-0.276C0.2,-0.26 0.166,-0.235 0.135,-0.201C0.104,-0.167 0.089,-0.134 0.089,-0.103C0.089,-0.088 0.092,-0.077 0.1,-0.069C0.107,-0.061 0.115,-0.057 0.124,-0.057Z" style="fill:rgb(240,0,23);fill-rule:nonzero;"/>
        </g>
        <g transform="matrix(242.225,0,0,242.225,2374.83,430.124)">
            <path d="M0.17,0.012C0.124,0.012 0.088,-0.004 0.062,-0.037C0.036,-0.069 0.023,-0.114 0.023,-0.172C0.023,-0.246 0.043,-0.31 0.083,-0.363C0.122,-0.416 0.177,-0.443 0.247,-0.443L0.283,-0.441C0.294,-0.447 0.307,-0.45 0.321,-0.45C0.374,-0.45 0.4,-0.4 0.4,-0.301C0.427,-0.302 0.455,-0.306 0.483,-0.312L0.499,-0.316L0.505,-0.277C0.483,-0.268 0.453,-0.259 0.416,-0.252L0.396,-0.248C0.383,-0.178 0.358,-0.117 0.319,-0.066C0.28,-0.014 0.231,0.012 0.17,0.012ZM0.224,-0.074C0.252,-0.074 0.277,-0.092 0.3,-0.128C0.322,-0.164 0.337,-0.202 0.346,-0.242C0.275,-0.242 0.239,-0.269 0.239,-0.322C0.239,-0.343 0.243,-0.363 0.252,-0.382L0.257,-0.392C0.254,-0.393 0.251,-0.394 0.247,-0.394C0.243,-0.394 0.24,-0.393 0.238,-0.392C0.221,-0.381 0.206,-0.356 0.191,-0.317C0.176,-0.278 0.169,-0.233 0.169,-0.182C0.169,-0.11 0.187,-0.074 0.224,-0.074Z" style="fill:rgb(240,0,23);fill-rule:nonzero;"/>
        </g>
        <g transform="matrix(242.225,0,0,242.225,2476.33,430.124)">
            <path d="M0.17,0.012C0.124,0.012 0.088,-0.004 0.062,-0.037C0.036,-0.069 0.023,-0.114 0.023,-0.172C0.023,-0.246 0.043,-0.31 0.083,-0.363C0.122,-0.416 0.177,-0.443 0.247,-0.443L0.283,-0.441C0.294,-0.447 0.307,-0.45 0.321,-0.45C0.374,-0.45 0.4,-0.4 0.4,-0.301C0.427,-0.302 0.455,-0.306 0.483,-0.312L0.499,-0.316L0.505,-0.277C0.483,-0.268 0.453,-0.259 0.416,-0.252L0.396,-0.248C0.383,-0.178 0.358,-0.117 0.319,-0.066C0.28,-0.014 0.231,0.012 0.17,0.012ZM0.224,-0.074C0.252,-0.074 0.277,-0.092 0.3,-0.128C0.322,-0.164 0.337,-0.202 0.346,-0.242C0.275,-0.242 0.239,-0.269 0.239,-0.322C0.239,-0.343 0.243,-0.363 0.252,-0.382L0.257,-0.392C0.254,-0.393 0.251,-0.394 0.247,-0.394C0.243,-0.394 0.24,-0.393 0.238,-0.392C0.221,-0.381 0.206,-0.356 0.191,-0.317C0.176,-0.278 0.169,-0.233 0.169,-0.182C0.169,-0.11 0.187,-0.074 0.224,-0.074Z" style="fill:rgb(240,0,23);fill-rule:nonzero;"/>
        </g>
        <g transform="matrix(242.225,0,0,242.225,2575.4,430.124)">
            <path d="M0.143,-0.66C0.143,-0.682 0.141,-0.698 0.137,-0.707C0.189,-0.725 0.238,-0.734 0.284,-0.734C0.29,-0.728 0.293,-0.713 0.293,-0.688C0.293,-0.633 0.275,-0.527 0.238,-0.37C0.297,-0.419 0.356,-0.443 0.414,-0.443C0.44,-0.443 0.462,-0.435 0.48,-0.419C0.498,-0.403 0.507,-0.38 0.507,-0.349C0.507,-0.292 0.46,-0.25 0.366,-0.224C0.388,-0.155 0.407,-0.108 0.424,-0.083C0.431,-0.072 0.437,-0.067 0.44,-0.067C0.447,-0.067 0.463,-0.073 0.486,-0.084L0.497,-0.089L0.513,-0.055C0.497,-0.04 0.475,-0.025 0.447,-0.011C0.418,0.005 0.392,0.012 0.369,0.012C0.317,0.012 0.281,-0.035 0.26,-0.13C0.251,-0.171 0.245,-0.209 0.243,-0.244C0.286,-0.254 0.318,-0.266 0.339,-0.281C0.36,-0.295 0.37,-0.313 0.37,-0.336C0.37,-0.358 0.359,-0.369 0.336,-0.369C0.313,-0.369 0.275,-0.346 0.222,-0.301C0.189,-0.16 0.172,-0.064 0.172,-0.012C0.135,-0.001 0.088,0.004 0.029,0.004C0.028,-0.007 0.028,-0.017 0.028,-0.026C0.028,-0.055 0.047,-0.153 0.086,-0.32C0.124,-0.487 0.143,-0.601 0.143,-0.66Z" style="fill:rgb(240,0,23);fill-rule:nonzero;"/>
        </g>
        <g transform="matrix(242.225,0,0,242.225,2698.45,430.124)">
            <path d="M0.026,-0.173C0.026,-0.256 0.051,-0.322 0.102,-0.371C0.152,-0.419 0.209,-0.443 0.273,-0.443C0.312,-0.443 0.345,-0.433 0.37,-0.414C0.395,-0.395 0.408,-0.369 0.408,-0.337C0.408,-0.304 0.4,-0.277 0.384,-0.255C0.367,-0.233 0.347,-0.216 0.324,-0.204C0.277,-0.181 0.233,-0.166 0.194,-0.16L0.17,-0.157C0.175,-0.094 0.2,-0.063 0.247,-0.063C0.263,-0.063 0.28,-0.067 0.298,-0.075C0.316,-0.083 0.33,-0.091 0.34,-0.099L0.355,-0.111L0.379,-0.079C0.374,-0.072 0.363,-0.062 0.347,-0.05C0.331,-0.038 0.316,-0.028 0.302,-0.02C0.263,0.001 0.221,0.012 0.175,0.012C0.129,0.012 0.093,-0.004 0.066,-0.037C0.039,-0.07 0.026,-0.115 0.026,-0.173ZM0.169,-0.206C0.203,-0.212 0.23,-0.226 0.25,-0.249C0.27,-0.272 0.28,-0.301 0.28,-0.337C0.28,-0.373 0.269,-0.391 0.248,-0.391C0.223,-0.391 0.203,-0.37 0.19,-0.327C0.176,-0.284 0.169,-0.243 0.169,-0.206Z" style="fill:rgb(240,0,23);fill-rule:nonzero;"/>
        </g>
        <g transform="matrix(242.225,0,0,242.225,2795.09,430.124)">
            <path d="M0.504,-0.061C0.447,-0.012 0.397,0.012 0.355,0.012C0.311,0.012 0.287,-0.009 0.28,-0.052C0.26,-0.032 0.238,-0.016 0.213,-0.005C0.188,0.006 0.167,0.012 0.148,0.012C0.116,0.012 0.089,-0.002 0.066,-0.03C0.043,-0.058 0.032,-0.101 0.032,-0.16C0.032,-0.248 0.051,-0.317 0.088,-0.368C0.125,-0.418 0.168,-0.443 0.215,-0.443C0.262,-0.443 0.301,-0.432 0.333,-0.411C0.354,-0.519 0.364,-0.604 0.364,-0.666L0.359,-0.708C0.409,-0.725 0.458,-0.734 0.506,-0.734C0.511,-0.723 0.514,-0.71 0.514,-0.695C0.514,-0.646 0.499,-0.548 0.47,-0.399C0.441,-0.25 0.426,-0.148 0.426,-0.095C0.426,-0.079 0.43,-0.071 0.437,-0.071C0.441,-0.071 0.454,-0.077 0.475,-0.09L0.485,-0.096L0.504,-0.061ZM0.263,-0.384C0.24,-0.384 0.22,-0.361 0.203,-0.315C0.186,-0.269 0.177,-0.224 0.177,-0.179C0.177,-0.133 0.18,-0.105 0.187,-0.092C0.193,-0.079 0.202,-0.073 0.215,-0.073C0.237,-0.073 0.259,-0.082 0.28,-0.1C0.282,-0.127 0.297,-0.215 0.325,-0.366C0.302,-0.378 0.282,-0.384 0.263,-0.384Z" style="fill:rgb(240,0,23);fill-rule:nonzero;"/>
        </g>
        <g transform="matrix(242.225,0,0,242.225,2916.69,430.124)">
            <path d="M0.107,0.012C0.084,0.012 0.066,0.005 0.053,-0.009C0.04,-0.023 0.034,-0.042 0.034,-0.065C0.034,-0.088 0.043,-0.109 0.06,-0.126C0.077,-0.142 0.098,-0.151 0.122,-0.151C0.145,-0.151 0.163,-0.144 0.176,-0.131C0.189,-0.117 0.195,-0.098 0.195,-0.076C0.195,-0.053 0.186,-0.032 0.169,-0.015C0.151,0.003 0.13,0.012 0.107,0.012ZM0.288,-0.664C0.288,-0.598 0.266,-0.494 0.223,-0.353C0.22,-0.342 0.214,-0.321 0.205,-0.292C0.196,-0.262 0.189,-0.239 0.184,-0.223C0.166,-0.217 0.15,-0.214 0.137,-0.214C0.123,-0.214 0.111,-0.215 0.1,-0.216C0.124,-0.361 0.136,-0.488 0.136,-0.599L0.13,-0.683C0.187,-0.701 0.237,-0.71 0.282,-0.71C0.286,-0.704 0.288,-0.689 0.288,-0.664Z" style="fill:rgb(240,0,23);fill-rule:nonzero;"/>
        </g>
    </g>
</svg>
