<?xml version="1.0" encoding="UTF-8" standalone="no"?>
<!DOCTYPE svg PUBLIC "-//W3C//DTD SVG 1.1//EN" "http://www.w3.org/Graphics/SVG/1.1/DTD/svg11.dtd">
<svg width="100%" height="100%" viewBox="0 0 1080 1080" version="1.1" xmlns="http://www.w3.org/2000/svg" xmlns:xlink="http://www.w3.org/1999/xlink" xml:space="preserve" xmlns:serif="http://www.serif.com/" style="fill-rule:evenodd;clip-rule:evenodd;stroke-linejoin:round;stroke-miterlimit:2;">
    <g>
        <g transform="matrix(4.02661,0,0,4.02661,-430.463,-1737.32)">
            <path d="M110.791,566.59L188.395,566.59C189.709,566.59 189.711,564.548 188.395,564.548L110.791,564.548C109.477,564.548 109.475,566.59 110.791,566.59Z" style="fill-rule:nonzero;"/>
        </g>
        <g transform="matrix(4.02661,0,0,4.02661,-430.463,-1737.32)">
            <path d="M176.786,678.855L215.588,611.648C216.245,610.51 214.477,609.487 213.819,610.627L175.017,677.833C174.36,678.971 176.128,679.995 176.786,678.855Z" style="fill-rule:nonzero;"/>
        </g>
        <g transform="matrix(4.02661,0,0,4.02661,-430.463,-1737.32)">
            <path d="M307.007,677.833L268.206,610.627C267.548,609.489 265.779,610.508 266.437,611.648L305.239,678.855C305.896,679.993 307.666,678.973 307.007,677.833Z" style="fill-rule:nonzero;"/>
        </g>
        <g transform="matrix(4.02661,0,0,4.02661,-430.463,-1737.32)">
            <path d="M371.234,564.548L293.63,564.548C292.316,564.548 292.314,566.59 293.63,566.59L371.234,566.59C372.548,566.59 372.55,564.548 371.234,564.548Z" style="fill-rule:nonzero;"/>
        </g>
        <g transform="matrix(4.02661,0,0,4.02661,-430.463,-1737.32)">
            <path d="M305.239,452.284L266.437,519.49C265.78,520.628 267.547,521.651 268.206,520.511L307.007,453.305C307.664,452.167 305.897,451.144 305.239,452.284Z" style="fill-rule:nonzero;"/>
        </g>
        <g transform="matrix(4.02661,0,0,4.02661,-430.463,-1737.32)">
            <path d="M175.017,453.305L213.819,520.511C214.476,521.649 216.246,520.63 215.588,519.49L176.786,452.284C176.129,451.145 174.359,452.165 175.017,453.305Z" style="fill-rule:nonzero;"/>
        </g>
        <g transform="matrix(4.02661,0,0,4.02661,-430.463,-1737.32)">
            <path d="M260.609,445.785L253.099,489.391C252.876,490.686 254.888,491.035 255.111,489.738L262.623,446.132C262.846,444.837 260.834,444.488 260.609,445.785Z" style="fill-rule:nonzero;"/>
        </g>
        <g transform="matrix(4.02661,0,0,4.02661,-430.463,-1737.32)">
            <path d="M147.076,488.705L181.084,517.013C182.093,517.854 183.401,516.286 182.39,515.443L148.382,487.136C147.372,486.295 146.064,487.863 147.076,488.705Z" style="fill-rule:nonzero;"/>
        </g>
        <g transform="matrix(4.02661,0,0,4.02661,-430.463,-1737.32)">
            <path d="M127.478,608.489L168.997,593.191C170.23,592.737 169.526,590.82 168.291,591.275L126.772,606.572C125.539,607.027 126.243,608.944 127.478,608.489Z" style="fill-rule:nonzero;"/>
        </g>
        <g transform="matrix(4.02661,0,0,4.02661,-430.463,-1737.32)">
            <path d="M221.415,685.353L228.926,641.747C229.149,640.452 227.137,640.103 226.914,641.4L219.402,685.006C219.179,686.301 221.191,686.65 221.415,685.353Z" style="fill-rule:nonzero;"/>
        </g>
        <g transform="matrix(4.02661,0,0,4.02661,-430.463,-1737.32)">
            <path d="M334.949,642.433L300.942,614.125C299.931,613.284 298.623,614.853 299.635,615.695L333.643,644.003C334.652,644.843 335.961,643.275 334.949,642.433Z" style="fill-rule:nonzero;"/>
        </g>
        <g transform="matrix(4.02661,0,0,4.02661,-430.463,-1737.32)">
            <path d="M354.547,522.649L313.027,537.947C311.795,538.401 312.499,540.318 313.734,539.863L355.253,524.566C356.486,524.111 355.782,522.194 354.547,522.649Z" style="fill-rule:nonzero;"/>
        </g>
        <g transform="matrix(4.02661,0,0,4.02661,-430.463,-1737.32)">
            <path d="M144.847,531.213L196.585,550.282C197.818,550.737 198.526,548.821 197.291,548.366L145.553,529.297C144.32,528.843 143.612,530.758 144.847,531.213Z" style="fill-rule:nonzero;"/>
        </g>
        <g transform="matrix(4.02661,0,0,4.02661,-430.463,-1737.32)">
            <path d="M123.13,523.209L132.712,526.74C133.944,527.195 134.653,525.279 133.418,524.824L123.837,521.293C122.604,520.839 121.896,522.754 123.13,523.209Z" style="fill-rule:nonzero;"/>
        </g>
        <g transform="matrix(4.02661,0,0,4.02661,-430.463,-1737.32)">
            <path d="M163.177,631.673L205.56,596.401C206.57,595.561 205.265,593.99 204.254,594.832L161.871,630.103C160.86,630.943 162.165,632.515 163.177,631.673Z" style="fill-rule:nonzero;"/>
        </g>
        <g transform="matrix(4.02661,0,0,4.02661,-430.463,-1737.32)">
            <path d="M145.387,646.478L153.235,639.946C154.245,639.106 152.941,637.534 151.929,638.376L144.08,644.908C143.07,645.749 144.375,647.32 145.387,646.478Z" style="fill-rule:nonzero;"/>
        </g>
        <g transform="matrix(4.02661,0,0,4.02661,-430.463,-1737.32)">
            <path d="M259.342,666.028L249.988,611.688C249.765,610.393 247.752,610.737 247.975,612.034L257.329,666.375C257.552,667.67 259.566,667.325 259.342,666.028Z" style="fill-rule:nonzero;"/>
        </g>
        <g transform="matrix(4.02661,0,0,4.02661,-430.463,-1737.32)">
            <path d="M263.269,688.838L261.536,678.775C261.314,677.48 259.299,677.824 259.523,679.121L261.256,689.184C261.479,690.479 263.492,690.135 263.269,688.838Z" style="fill-rule:nonzero;"/>
        </g>
        <g transform="matrix(4.02661,0,0,4.02661,-430.463,-1737.32)">
            <path d="M337.177,599.925L285.44,580.856C284.207,580.401 283.499,582.317 284.734,582.772L336.471,601.841C337.704,602.295 338.412,600.38 337.177,599.925Z" style="fill-rule:nonzero;"/>
        </g>
        <g transform="matrix(4.02661,0,0,4.02661,-430.463,-1737.32)">
            <path d="M358.894,607.929L349.313,604.398C348.08,603.943 347.372,605.859 348.607,606.314L358.188,609.845C359.421,610.299 360.13,608.384 358.894,607.929Z" style="fill-rule:nonzero;"/>
        </g>
        <g transform="matrix(4.02661,0,0,4.02661,-430.463,-1737.32)">
            <path d="M318.848,499.465L276.465,534.737C275.455,535.577 276.759,537.148 277.771,536.306L320.154,501.035C321.164,500.195 319.859,498.624 318.848,499.465Z" style="fill-rule:nonzero;"/>
        </g>
        <g transform="matrix(4.02661,0,0,4.02661,-430.463,-1737.32)">
            <path d="M336.638,484.66L328.789,491.192C327.779,492.033 329.084,493.604 330.096,492.762L337.944,486.23C338.954,485.389 337.65,483.818 336.638,484.66Z" style="fill-rule:nonzero;"/>
        </g>
        <g transform="matrix(4.02661,0,0,4.02661,-430.463,-1737.32)">
            <path d="M222.683,465.11L232.037,519.45C232.26,520.745 234.273,520.401 234.05,519.104L224.695,464.763C224.472,463.468 222.46,463.813 222.683,465.11Z" style="fill-rule:nonzero;"/>
        </g>
        <g transform="matrix(4.02661,0,0,4.02661,-430.463,-1737.32)">
            <path d="M218.756,442.3L220.488,452.363C220.712,453.658 222.724,453.314 222.501,452.017L220.769,441.954C220.546,440.659 218.533,441.003 218.756,442.3Z" style="fill-rule:nonzero;"/>
        </g>
    </g>
</svg>
