<?xml version="1.0" encoding="UTF-8" standalone="no"?>
<!DOCTYPE svg PUBLIC "-//W3C//DTD SVG 1.1//EN" "http://www.w3.org/Graphics/SVG/1.1/DTD/svg11.dtd">
<svg width="100%" height="100%" viewBox="0 0 2560 652" version="1.1" xmlns="http://www.w3.org/2000/svg" xmlns:xlink="http://www.w3.org/1999/xlink" xml:space="preserve" xmlns:serif="http://www.serif.com/" style="fill-rule:evenodd;clip-rule:evenodd;stroke-linejoin:round;stroke-miterlimit:2;">
    <g transform="matrix(8.33333,0,0,8.33333,-7971.79,-1559.42)">
        <g>
            <path d="M1263.82,220.141C1263.82,220.141 1264.65,259.968 1264.25,260.079C1264.25,260.079 1263.55,261.392 1263.27,261.785C1263.18,261.926 1263.23,262.17 1263.07,262.302C1262.86,262.48 1262.48,262.356 1262.4,262.422C1262.35,262.462 1262.37,262.819 1262.27,262.901C1262.17,262.973 1261.48,263.06 1261.31,263.057C1261.01,263.053 1260.55,262.836 1260.4,262.866C1260.29,262.888 1260.36,263.247 1259.87,263.198C1259.44,263.153 1259.8,262.457 1259.24,262.425C1258.89,262.407 1258.8,262.732 1258.69,262.982L1258.54,263.034C1258.38,263 1258.28,262.869 1258.12,262.844C1257.04,262.673 1256.49,262.45 1255.36,262.411C1255,262.399 1254.46,262.108 1254.1,262.05C1252,261.712 1249.64,261.596 1247.57,261.175C1247.36,261.132 1245.99,260.77 1245.92,260.715C1245.79,260.606 1245.82,260.414 1245.82,260.261C1245.52,260.181 1245.33,260.487 1245.08,260.47C1244.87,260.456 1243.65,260.049 1243.5,259.927C1243.38,259.828 1243.33,259.583 1243.18,259.538C1243.03,259.496 1242.58,259.656 1242.29,259.646C1240.86,259.599 1238.23,258.752 1236.84,258.27C1236.12,258.02 1234.46,257.174 1233.9,257.086C1233.46,257.015 1233.2,257.255 1232.66,257.133C1232.09,257 1231.83,256.667 1231.72,256.246C1231.7,256.243 1231.68,256.241 1231.65,256.239C1231.67,256.191 1231.68,256.147 1231.69,256.104C1231.67,255.999 1231.66,255.888 1231.66,255.775C1231.46,255.406 1230.7,255.44 1230.32,255.311C1229.98,255.197 1229.79,254.739 1229.39,254.786C1229.61,254.236 1229.63,253.956 1229.11,253.594C1228.46,253.569 1228.55,254.257 1228.37,254.672L1227.33,254.745C1227.29,254.471 1227.82,254.251 1227.48,254.033C1226.81,254.419 1226.87,254.101 1226.37,253.944C1225.59,253.697 1224.8,253.876 1224.11,253.729C1224,253.706 1222.58,252.907 1222.32,252.782C1222.09,252.672 1221.47,252.334 1221.28,252.307C1220.85,252.248 1220.78,252.549 1220.56,252.596C1220.38,252.636 1220.21,252.492 1220,252.547C1219.81,252.594 1219.64,252.905 1219.37,252.841C1219.17,252.793 1219.15,252.531 1219.02,252.451C1218.38,252.063 1212.22,250.211 1211.47,249.999C1210.16,249.633 1209.45,249.305 1208.03,249.229C1207.71,249.212 1207.42,248.925 1206.95,249.218C1206.78,249.323 1206.75,249.757 1206.4,249.675C1205.96,249.571 1205.97,249 1205.82,248.737C1205.51,248.205 1204.81,248.242 1204.27,248.381L1204.01,248.844L1203.75,248.145C1203.6,248.111 1203.68,248.29 1203.58,248.353C1203.01,248.72 1203.17,248.098 1202.77,248.068C1202.4,248.063 1202.25,248.447 1201.86,248.405C1201.47,248.364 1201.57,248.007 1201.42,247.9C1200.85,247.489 1183.05,245.147 1182.73,245.087C1182.49,245.042 1181.94,244.759 1181.76,244.752C1181.61,244.746 1181.5,244.959 1181.38,244.94C1181.28,244.923 1181.2,244.742 1181.11,244.701C1181.03,244.669 1179.62,244.404 1179.51,244.395C1179.08,244.361 1178.91,244.706 1178.71,244.702C1178.12,244.691 1177.7,243.261 1176.94,244.366L1176.79,244.369C1176.77,244.007 1176.46,244.08 1176.25,243.975C1176.17,243.937 1176.17,243.799 1176.1,243.786C1175.58,243.693 1175.35,244.282 1174.53,243.772C1174.27,243.61 1174.39,243.258 1173.76,243.556L1173.65,243.345L1172.84,243.681C1172.8,243.289 1172.28,243.712 1172.26,243.442C1172.26,243.349 1173.32,242.189 1172.41,242.067C1171.68,241.969 1172.15,242.734 1171.74,242.949C1171.15,243.261 1171.51,243.114 1171.23,243.368C1171.04,243.545 1169.34,243.787 1169.03,243.781C1168.79,243.778 1168.56,243.6 1168.3,243.601C1168.06,243.601 1167.81,243.762 1167.6,243.714C1167.44,243.676 1167.02,243.236 1167.01,243.037L1166.86,243.043C1166.05,244.074 1166.03,243.285 1165.71,243.191C1165.24,243.055 1156.64,243.006 1156.64,243.006C1155.76,243.378 1154.62,242.735 1153.79,242.916C1153.44,242.994 1153.32,243.468 1152.97,243.543C1152.73,243.593 1152.44,243.54 1152.2,243.567C1152.25,243.312 1151.12,243.081 1151.06,243.397C1150.73,243.372 1150.31,243.22 1149.98,243.227C1149.3,243.241 1128.46,244.694 1128.2,244.697C1127.12,244.713 1114.98,246.943 1114.74,247.012C1114.36,247.123 1113.59,247.35 1113.26,247.423C1112.81,247.523 1112.43,247.344 1112.03,247.358C1111.41,247.38 1107.89,248.278 1107.22,248.54C1104.61,249.564 1101.42,249.651 1098.67,250.186C1097.95,250.325 1097.01,250.756 1096.28,250.844C1095.55,250.932 1094.41,250.395 1094.12,251.326C1093.44,251.371 1092.64,251.139 1091.98,251.284C1091.7,251.344 1091.66,251.577 1091.51,251.649C1091.19,251.801 1090.71,251.621 1090.43,252.031L1090.22,251.832C1089.51,251.986 1088.78,252.108 1088.08,251.994C1087.89,252.842 1086.91,252.34 1086.4,252.382C1086.24,252.395 1086.12,252.561 1085.91,252.581C1085.05,252.659 1084.48,252.512 1083.47,252.771C1082.86,252.927 1078.02,254.496 1077.63,254.587C1077.37,254.647 1077.1,254.47 1076.78,254.575C1076.59,254.637 1076.5,254.91 1076.32,254.956C1075.62,255.147 1074.95,255.342 1074.25,255.587C1074.15,255.62 1074,255.531 1073.9,255.565C1073.71,255.626 1073.69,255.918 1073.52,256.014C1073.45,256.049 1072.61,256.268 1072.51,256.278C1072.16,256.312 1071.57,255.91 1071.17,255.913L1070.68,254.328C1070.48,254.048 1070.22,254.37 1070.04,254.42C1069.92,254.451 1069.79,254.376 1069.7,254.411C1069.3,254.583 1069.61,255.194 1069.6,255.431C1069.59,256.008 1067.64,256.214 1067.35,256.398C1067.19,256.496 1067.05,257.295 1066.46,257.37L1065.74,256.609L1060.87,257.95C1060.62,257.959 1060.36,257.98 1060.11,257.96C1059.8,257.936 1059.21,257.695 1059.06,257.701C1058.86,257.709 1058.28,258.738 1058.29,257.873C1058.29,257.465 1055.63,258.167 1055.63,258.167L1056.24,259.197L1055.21,259.531L1055.62,258.913C1055.28,259.176 1054.87,258.777 1054.65,258.843C1054.32,258.949 1054.62,259.749 1054.43,259.863C1053.77,260.169 1053.02,259.774 1052.38,259.916C1052.1,259.98 1052.13,260.259 1051.96,260.319C1051.81,260.37 1050.76,260.59 1050.64,260.571C1050.46,260.542 1050.34,260.37 1050.12,260.376C1049.87,260.383 1049.74,260.639 1049.41,260.612C1049.31,260.603 1045.37,260.005 1045.65,260.921C1044.86,261.099 1043.9,260.854 1043.33,261.504L1042.92,261.306C1042.65,261.479 1042.89,261.669 1042.87,261.912C1042.85,261.947 1042.07,262.025 1042.01,262.012C1041.86,261.98 1041.77,261.764 1041.69,261.766C1041.62,261.767 1041.55,261.943 1041.38,261.96C1041.3,261.967 1041.39,261.642 1041.12,261.762L1041.23,262.061C1040.95,261.978 1040.64,262.284 1040.45,262.283C1040.4,262.282 1039.61,262.138 1039.43,262.11C1039.21,262.076 1039.09,261.885 1038.89,261.844C1038.06,261.679 1037.96,262.409 1037.77,262.459C1037.65,262.489 1037.44,262.288 1037.26,262.277C1037.22,262.274 1036.48,262.334 1036.44,262.343C1036.24,262.387 1036.19,262.808 1035.81,262.906C1035.57,262.964 1034.9,263.067 1034.94,262.759L1034.75,262.756C1034.74,262.884 1034.71,262.985 1034.58,263.045C1034.22,263.204 1032.78,263.397 1032.33,263.436C1030.51,263.597 1028.48,263.462 1026.78,263.649C1026.34,263.697 1026.22,263.749 1025.84,263.817C1025.07,263.958 1024.97,263.744 1024.41,263.36L1023.69,263.782L1019.32,264.011C1019.57,263.081 1018.82,263.253 1018.63,264.036C1017.46,264.268 1016.33,264.067 1015.15,264.132L1014.89,263.986C1015.31,263.124 1012.54,263.968 1012.46,264.013L1008.46,264.225C1007.98,263.916 1007.31,262.641 1007.28,262.474L1007.59,261.88C1006.99,261.518 1006.72,261.412 1006.86,260.63L1006.35,260.91L1006.61,261.242L1006.55,261.5C1005.36,261.451 1005.86,261.864 1005.84,262.526C1005.83,262.85 1005.64,263.232 1005.74,263.596C1004.17,263.803 1002.68,263.585 1001.14,263.432C1000.95,263.414 1000.77,263.538 1000.65,263.519C1000.58,263.507 1000.22,263.207 999.966,263.219L999.763,262.454C999.657,262.381 998.758,263.258 998.475,263.304C998.262,263.339 998.058,263.21 997.858,263.212C997.309,263.218 997.217,263.179 996.732,263.144C996.154,263.103 995.282,263.531 994.933,262.845C994.64,262.669 993.87,263.65 993.491,262.989L992.931,262.758C992.626,263.184 991.299,262.328 990.813,262.51L990.813,262.105L990.196,262.122C989.999,261.71 990.291,261.337 990.292,261.074C990.293,260.866 989.971,260.016 990.087,259.901C990.208,259.907 990.309,259.84 990.403,259.955C990.875,260.529 991.971,259.512 991.067,260.075L990.91,259.829C991.294,259.266 991.877,259.388 992.454,259.279C992.844,258.831 992.064,258.964 992.292,258.519C992.426,258.258 992.815,258.299 993.066,258.296C992.668,257.928 993.122,257.403 993.043,257.056C993.004,256.885 992.687,256.669 992.748,256.388C991.626,256.331 990.979,257.556 990.241,258.079C990.086,258.189 989.861,258.169 989.771,258.239C989.642,258.339 989.672,258.85 989.269,258.961L989.675,259.81C989.211,259.957 988.572,260.274 988.298,260.667C988.2,260.808 988.249,261.052 988.095,261.184C987.887,261.362 987.504,261.238 987.425,261.304C987.377,261.344 987.398,261.701 987.291,261.783C987.199,261.855 986.501,261.942 986.335,261.939C986.037,261.935 985.57,261.718 985.424,261.748C985.315,261.77 985.381,262.129 984.897,262.08C984.464,262.035 984.822,261.339 984.26,261.307C983.919,261.289 983.824,261.614 983.718,261.864L983.561,261.916C983.404,261.882 983.302,261.751 983.141,261.726C982.061,261.555 981.512,261.332 980.379,261.293C980.024,261.281 974.668,260.478 972.593,260.057C972.382,260.014 971.012,259.652 970.947,259.597C970.813,259.488 970.844,259.296 970.844,259.143C970.545,259.063 970.354,259.369 970.101,259.352C969.898,259.338 968.678,258.931 968.526,258.809C968.402,258.71 968.356,258.465 968.202,258.42C968.056,258.378 967.606,258.538 967.309,258.528C965.882,258.481 963.256,257.634 961.864,257.152C961.142,256.902 959.487,256.056 958.929,255.968C958.486,255.897 958.222,256.137 957.687,256.015C956.286,255.694 957.019,245.01 957.385,244.66C957.737,244.575 958.024,245.634 958.106,245.759C958.171,245.86 958.352,245.735 958.518,245.83C958.692,245.93 960.227,247.456 960.277,247.605C960.372,248.704 959.997,249.855 960.175,250.955L967.284,253.275L967.435,253.273C967.651,252.039 968.216,252.886 968.674,253.182C968.834,253.285 969.018,253.299 969.177,253.381C969.521,253.559 969.597,253.875 970.215,253.697L970.216,254.103C970.608,254.191 970.511,253.847 970.794,253.694C971.738,254.063 972.536,254.153 973.509,253.756L973.561,253.496C971.844,252.904 973.275,250.401 974.49,252.05C975.018,251.75 974.188,249.672 974.424,250.135L972.881,250.281C973.042,249.444 973.106,248.61 972.712,247.867C972.712,247.867 962.068,244.837 961.069,244.578C960.689,244.63 960.715,245.013 960.213,244.882L960.213,244.475L959.535,244.398C959.452,244.283 959.638,244.093 959.548,243.892C959.496,243.777 958.426,242.605 958.326,242.624L957.842,242.824C957.774,242.489 959.624,220.141 959.624,220.141L1263.82,220.141ZM1204.87,244.408C1204.78,244.523 1204.72,244.732 1204.79,244.857C1204.85,244.942 1205.19,245.107 1205.35,244.97C1205.62,244.729 1205.42,244.533 1205.39,244.252C1205.71,244.373 1205.69,244.845 1206.11,244.737C1206.07,244.357 1206.06,244.246 1206.42,244.07C1206.34,243.958 1206.31,243.958 1206.18,243.953C1206.1,243.95 1205.6,243.952 1205.57,243.96C1205.52,243.97 1204.89,244.376 1204.87,244.408ZM1039.63,258.972C1039.3,259.051 1039.6,260.175 1040.09,259.969C1040.19,259.74 1039.96,258.889 1039.63,258.972ZM1114.88,235.239C1114.5,235.146 1114.49,235.609 1114.52,235.856C1114.9,235.982 1115.25,235.329 1114.88,235.239ZM970.122,257.898C970.254,258.31 971.58,257.781 971.251,257.21C971.153,257.114 969.999,257.513 970.122,257.898ZM1262.62,259.048C1263.19,258.921 1263.05,258.086 1262.84,258.048C1262.33,258.182 1261.77,259.235 1262.62,259.048ZM1263.47,258.698C1263.08,259.074 1262.79,259.703 1263.03,259.64C1263.28,259.577 1263.48,259.279 1263.57,259.272C1263.63,259.267 1263.82,259.509 1264.01,259.309L1264.09,258.619L1263.67,258.436C1263.59,258.459 1263.55,258.628 1263.47,258.698ZM1049.76,258.274C1049.66,258.637 1050.61,258.719 1050.68,258.65C1050.76,258.068 1050.12,258.287 1049.76,258.274ZM991.57,255.308C991.391,255.708 991.696,255.962 992.032,255.748C992.131,255.685 993.077,254.529 993.049,254.412C992.98,254.297 992.8,254.189 992.672,254.174C992.435,254.147 991.668,255.089 991.57,255.308ZM1011.43,260.337C1011.25,260.506 1011.54,261.593 1012,261.332C1012.54,261.025 1012.2,260.713 1012.23,260.344C1012.25,260.078 1012.64,259.738 1012.16,259.667C1011.95,259.927 1011.67,260.115 1011.43,260.337ZM994.396,258.806C994.196,258.97 996.182,258.841 995.715,258.726C995.608,258.7 995.553,258.405 995.334,258.428L995.43,258.175L999.446,258.619L999.29,258.927L998.893,258.741C998.565,258.945 1001.17,259.556 1001.47,258.873L1003.19,258.927C1003.74,259.323 1006.03,259.338 1006.03,259.338C1007.3,259.149 1006.92,259.663 1007.08,260.507C1007.42,260.624 1007.87,260.399 1008.15,260.402C1008.43,260.406 1008.73,260.786 1009.03,260.424C1009.14,260.28 1009.15,260.08 1009.12,259.911C1008.99,259.201 1008.46,259.933 1008.19,259.78C1008.3,259.593 1008.23,259.449 1007.99,259.484L1007.94,259.786L1007.37,259.601C1007.27,259.26 1007.86,259.216 1007.89,259.121L1007.88,257.565C1007.44,257.491 1007.36,258.066 1006.96,258.096C1007.04,257.715 1006.99,256.321 1007.33,256.182C1008.09,256.09 1008.78,255.922 1009.38,255.402C1009.54,255.361 1009.64,255.632 1009.8,255.674C1010.25,255.796 1010.52,255.11 1010.83,255.072C1011.19,255.027 1011.67,255.12 1012.09,254.96C1012.27,255.068 1012.08,255.788 1012,255.986C1011.72,256.193 1011.03,255.775 1010.83,255.781C1010.46,255.794 1009.93,256.302 1010.04,256.693C1009.61,256.552 1009.03,256.634 1009.47,257.117L1009.37,257.32C1009.15,257.101 1008.86,257.24 1008.71,257.188C1008.53,257.13 1008.46,256.728 1008.19,257.1C1008.21,257.305 1009.25,257.667 1009.46,257.627C1009.54,257.61 1009.55,257.413 1009.7,257.331C1009.85,257.25 1010.17,257.216 1010.35,257.19C1009.97,257.425 1010.03,257.645 1009.88,257.902C1009.8,258.035 1009.24,258.62 1009.69,258.726C1009.94,258.787 1010.34,258.27 1010.57,258.155C1011.05,257.913 1011.32,258.017 1011.79,258.161C1011.86,258.867 1010.7,258.591 1010.87,259.4L1011.44,259.176L1011.75,259.479C1012.31,259.351 1013.33,259.228 1013.88,259.334C1014.2,259.396 1014.3,259.681 1014.47,259.75C1014.69,259.838 1014.91,259.751 1015.12,259.802C1015.37,259.867 1015.5,260.295 1016.06,260.255C1017,260.187 1016.58,259.352 1016.9,259.239L1018.69,259.174C1018.48,259.792 1018.6,259.989 1019.25,259.973C1020.21,259.951 1019.62,259.4 1019.92,259.181C1020.42,259.09 1021.46,258.898 1021.33,259.66C1021.32,259.722 1021.88,259.082 1021.88,259.082C1023.26,259.147 1024.62,259.072 1026,258.917C1026.2,258.773 1026.05,257.723 1026.1,257.395C1026.21,256.639 1026.34,255.65 1026.37,254.852C1026.38,254.552 1026.2,254.103 1026.28,253.749C1026.74,253.678 1026.7,253.16 1027.01,252.812C1026.57,252.343 1026.53,253.071 1026.18,253.238C1025.8,253.422 1025.59,253.225 1025.36,252.96L1026.08,252.635C1026.08,252.635 1025.76,252.391 1025.72,252.393C1025.36,252.403 1024.43,252.359 1024.17,252.437C1023.7,252.584 1024.03,253.146 1024.33,253.293C1024.33,253.524 1012.57,253.294 1012.57,253.294C1012.15,253.415 1012.36,254.269 1012.13,254.31C1011.37,254.032 1010.53,254.131 1009.73,254.127C1009.35,253.96 1009.68,253.284 1009.35,253.182L1009.01,253.187C1008.87,253.602 1008.93,253.689 1009.21,253.983C1009.14,254.031 1008.46,253.969 1008.36,253.91C1008.24,253.843 1008.28,253.662 1008.18,253.562C1007.47,252.862 994.579,251.925 993.97,252.142C993.781,252.281 993.903,254.471 993.88,254.883C993.829,255.787 993.654,256.723 993.494,257.618C993.587,258.014 995.125,257.78 995.129,258.286C995.132,258.634 994.619,258.623 994.396,258.806ZM1011.43,257.26C1012.27,257.146 1011.11,258.267 1010.97,257.476C1011.14,257.468 1011.27,257.282 1011.43,257.26ZM1060.96,254.913C1060.79,255.89 1061.79,255.471 1061.43,254.993L1060.96,254.913ZM1104.86,242.004C1103.85,241.724 1104,242.863 1104.9,242.319C1105.42,242.975 1105.6,243.04 1106.46,242.968C1109.4,242.724 1112.97,241.825 1115.94,241.293C1117.26,241.057 1118.27,241.135 1119.52,240.468C1120.43,239.987 1120.02,239.756 1120.31,238.997C1120.41,238.749 1120.6,238.624 1120.67,238.433C1120.81,238.101 1120.84,236.65 1120.9,236.581C1121.92,236.968 1122.82,235.633 1121.31,236.266C1121.29,236.053 1121.51,235.444 1121.57,235.354C1121.65,235.221 1121.91,235.195 1121.99,234.936C1122.09,234.559 1121.83,233.255 1122.65,234.361L1122.8,234.403C1122.85,234.403 1123.47,234.118 1123.51,234.086C1123.62,233.983 1123.52,233.798 1123.63,233.764C1124,233.649 1124.65,233.98 1125.11,233.728C1125.23,233.84 1124.86,234.581 1124.84,234.715C1124.79,235.057 1124.95,235.845 1124.92,236.318C1124.87,237.038 1124.49,238.915 1124.81,239.459C1125,239.77 1125.62,240.079 1125.99,240.068C1127.03,240.036 1128.41,239.681 1129.5,239.572C1132.2,239.301 1134.9,239.12 1137.6,238.906L1138.11,238.587C1138.35,237.591 1139.13,236.479 1139.22,235.498C1139.25,235.091 1139.28,233.39 1139.19,233.088C1139.12,232.881 1138.58,232.45 1138.33,232.44C1136.07,232.418 1133.79,232.4 1131.54,232.632C1129.48,232.845 1127.44,233.388 1125.37,233.62C1124.88,233.537 1125.42,233.023 1124.7,232.88C1124.21,232.781 1124.03,232.955 1123.62,232.965C1123.1,232.976 1121.82,232.278 1121.67,232.317C1121.56,232.345 1121.06,235.024 1120.75,235.045C1120.36,235.072 1119.93,234.247 1119.62,234.287C1119.07,234.358 1119.46,234.907 1119.15,235.06C1116.86,235.872 1114.48,236.344 1112.09,236.723C1110.63,236.955 1109.14,237.054 1107.68,237.269C1107.24,237.335 1105.53,237.556 1105.27,237.693C1105.14,237.754 1105.08,237.876 1105.06,238.005L1104.86,242.004ZM1117.41,241.693C1117.29,241.279 1116.47,241.766 1116.7,242.066C1116.82,242.223 1117.54,242.092 1117.41,241.693ZM1118.28,243.141C1117.85,243.014 1117.58,243.655 1117.83,243.809C1118.4,244.164 1118.69,243.261 1118.28,243.141ZM1180.32,232.325C1180.93,232.264 1180.85,231.078 1180.55,230.922C1180.04,230.658 1179.74,232.138 1180.32,232.325ZM1181.5,238.727C1181.51,239.149 1182.07,239.265 1182.41,239.326C1186.03,239.97 1189.91,240.052 1193.51,240.943C1194.1,240.765 1195.08,240.774 1195.19,240.039C1195.33,239.119 1195.35,236.806 1194.96,236.021C1194.85,235.803 1194.46,235.335 1194.25,235.222C1193.63,234.896 1191.75,234.787 1190.94,234.626C1188.76,234.192 1185.9,233.815 1183.86,233.191C1183.65,233.128 1183.46,232.887 1183.27,232.864C1183.14,232.849 1181.72,233.646 1181.62,233.882L1181.5,238.727ZM1025.6,261.719C1025.33,262.787 1026.56,261.823 1026.31,261.584L1025.6,261.719ZM1026.62,255.031C1027.1,255.923 1027.76,255.332 1027.42,254.468C1027.21,254.442 1026.87,254.559 1026.73,254.721C1026.66,254.812 1026.62,254.913 1026.62,255.031ZM1045.06,254.662C1044.78,255.099 1046.07,255.874 1046.16,254.846C1046.28,254.753 1046.67,254.988 1046.95,254.849C1047.08,254.782 1047.19,254.31 1047.58,254.239L1047.32,253.899C1047.12,253.86 1046.73,254.28 1046.5,254.32C1046.21,254.37 1045.95,254.194 1045.71,254.26C1045.66,254.273 1045.08,254.63 1045.06,254.662ZM1070.01,251.918C1069.72,252.545 1070.43,253.329 1071.08,253.089C1071.2,253.045 1071.21,252.882 1071.28,252.827C1071.38,252.753 1071.62,252.758 1071.66,252.626C1071.82,252.109 1070.34,252.086 1070.01,251.918ZM1029.48,254.711C1029.26,254.761 1029.84,255.084 1030.26,255.289L1030.2,256.404L1029.69,256.578L1030.2,256.718C1030.25,257.302 1029.86,257.978 1030.31,258.484L1036.07,257.962C1035.9,258.575 1035.93,259.155 1035.36,259.551L1035.77,259.794L1035.61,260.203C1035.72,260.436 1037.38,260.787 1037.52,260.651C1037.52,260.268 1037.27,259.943 1037,259.704C1036.9,259.462 1037.48,259.588 1037.41,259.29C1037.34,258.969 1036.65,259.319 1036.59,259.261C1036.52,258.754 1036.95,258.447 1036.69,257.944C1036.83,257.939 1036.99,257.952 1037.13,257.907C1038.16,257.579 1039.17,257.6 1040.24,257.434C1040.85,257.339 1043.09,257.039 1043.42,256.73C1043.6,256.557 1043.75,256.093 1043.92,255.943C1044.03,255.84 1044.28,255.822 1044.36,255.699C1044.4,255.635 1044.28,254.502 1044.29,254.228C1044.32,253.48 1044.48,252.677 1044.39,251.901L1043.56,250.916C1041.62,250.867 1031.29,252.519 1030.31,252.775L1030.36,254.286C1030.22,254.512 1029.62,254.14 1029.38,254.21L1029.48,254.711ZM1144.26,234.644C1144.15,236.034 1143.39,238.386 1145.44,238.506C1148.2,238.666 1151.56,238.283 1154.4,238.238C1155.38,238.222 1156.47,238.381 1157.49,238.259C1157.96,238.201 1158.92,237.613 1159.07,237.138C1159.38,236.149 1159.08,234.549 1159.37,233.494C1159.36,231.377 1156.43,231.883 1154.99,231.854C1153.96,231.834 1152.92,231.793 1151.88,231.768C1150.12,231.954 1147.74,231.601 1146.05,231.914C1145.47,232.021 1145.65,232.429 1145.38,232.583C1145.14,232.718 1144.63,232.661 1144.39,232.858C1144.12,233.093 1144.29,234.227 1144.26,234.644ZM1163.32,236.392C1163.48,237.34 1164.52,238.283 1165.45,238.483C1165.82,238.562 1165.95,238.408 1166.22,238.415C1169.33,238.49 1173.37,238.691 1176.48,238.921C1176.48,238.921 1176.82,238.047 1176.77,237.65C1176.59,236.391 1177.4,234.165 1176.66,233.196C1175.73,231.988 1174.65,232.41 1173.31,232.33C1170.65,232.17 1167.96,231.86 1165.29,231.851C1164.48,231.847 1163.98,232.136 1163.46,232.743L1163.32,236.392ZM995.199,250.941C995.493,250.082 993.865,250.537 993.868,250.936C993.871,251.393 994.946,250.983 995.199,250.941ZM1017.26,260.539C1016.92,261.24 1017.66,261.983 1018.38,261.914L1017.26,260.539ZM986.532,257.78C986.328,258.115 985.009,261.046 986.023,260.828C986.555,260.714 987.261,259.611 987.513,259.672C987.551,259.176 986.618,257.778 986.532,257.78ZM1037.83,259.791L1038.03,260.637C1038.33,260.684 1038.62,260.491 1038.9,260.51C1039.22,260.532 1039.51,261.038 1039.73,260.586C1040.12,259.78 1038.77,260.218 1038.65,260.112L1038.85,259.552L1038.62,259.421L1037.83,259.791ZM1218.14,242.012C1218.23,242.989 1218.11,246.138 1218.77,246.754C1219.23,247.194 1221.01,247.398 1221.19,247.635C1221.4,247.891 1220.63,248.068 1220.88,248.557C1221.26,249.277 1221.83,247.878 1222.21,247.913C1224.33,248.308 1226.49,249.505 1228.57,249.888C1229.7,250.096 1230.36,250.008 1231.32,249.311C1231.36,249.258 1231.61,248.22 1231.63,248.087C1231.7,247.448 1231.74,245.898 1231.7,245.273C1231.68,245.086 1231.43,244.363 1231.29,244.24C1231.08,244.063 1230.57,244.015 1230.39,243.679C1230.68,243.487 1230.93,242.956 1230.41,242.938C1230.06,242.926 1230.08,243.25 1229.75,243.227C1229.25,243.193 1228.98,242.609 1228.78,242.577C1228.63,242.554 1228.44,242.799 1228.1,242.766C1227.81,242.739 1227.55,242.51 1227.3,242.451C1226.15,242.174 1224.98,241.88 1223.82,241.621C1222.69,241.368 1220.8,240.888 1219.7,240.821C1219.19,240.789 1218.38,241.56 1218.14,242.012ZM1033.61,260.41L1034.54,260.636C1034.61,259.656 1034.07,259.596 1033.61,260.41ZM1224.93,250.728C1224.94,250.872 1224.81,251.054 1224.86,251.211C1224.95,251.502 1225.73,251.313 1225.98,251.344C1225.86,251.062 1225.99,250.536 1225.94,250.33C1225.9,250.162 1225.31,249.192 1225.11,249.245C1224.98,249.433 1224.67,249.831 1224.64,250.026C1224.59,250.398 1224.9,250.506 1224.93,250.728ZM1245.67,256.516C1246.03,256.613 1246.32,256.027 1245.84,255.921C1245.42,255.826 1245.31,256.419 1245.67,256.516ZM1250.91,256.057C1251.45,256.205 1251.49,255.522 1251.21,255.452C1250.86,255.365 1250.54,255.954 1250.91,256.057ZM1252.5,256.174L1258.26,257.17L1258.2,257.677C1258.38,257.86 1258.89,257.984 1258.98,257.691L1258.88,257.253C1259.28,257.138 1259.6,257.592 1259.86,257.629C1260.23,257.682 1260.64,257.428 1261.04,257.595C1260.89,257.891 1261.32,257.888 1261.72,257.689C1262.55,257.696 1263.34,258.212 1264.13,258.01C1263.77,258.902 1264.56,257.697 1264.02,257.767L1263.94,257.649C1263.88,255.888 1264.46,254.011 1263.91,252.302L1264.16,251.737C1263.94,251.697 1263.66,252.309 1263.34,252.369C1263.11,252.412 1262.05,252.231 1261.73,252.185C1259.86,251.923 1257.73,251.363 1255.88,250.916C1255.44,250.81 1252.86,249.977 1252.69,250.146L1252.5,256.174ZM1236.05,245.696C1235.66,245.748 1235.07,251.588 1235.15,252.073L1242.26,254.393L1242.41,254.391C1242.63,253.157 1243.19,254.004 1243.65,254.3C1243.81,254.403 1243.99,254.417 1244.15,254.499C1244.5,254.677 1244.57,254.993 1245.19,254.815L1245.19,255.221C1245.58,255.309 1245.49,254.965 1245.77,254.812C1246.71,255.181 1247.51,255.271 1248.49,254.874L1248.54,254.615C1246.82,254.022 1247.86,251.399 1247.86,251.399C1248.02,250.562 1248.08,249.728 1247.69,248.985L1241.13,247.425C1240.82,247.337 1241.07,247.094 1241.06,246.889C1241.03,246.346 1240.52,246.905 1240.37,246.934C1240.32,246.943 1239.46,246.899 1239.36,246.884C1238.39,246.725 1237.04,245.955 1236.05,245.696ZM1067.23,250.132C1067.22,250.602 1066.97,251.1 1067.25,251.579C1067.58,251.775 1068.88,251.163 1069.36,251.135C1069.63,251.118 1069.89,251.269 1070.14,251.191C1070.29,251.144 1070.4,250.916 1070.6,250.815C1071.41,250.404 1074.21,249.599 1075.25,249.286C1076.34,248.956 1077.62,248.685 1078.58,248.414C1079.23,248.229 1080.83,248.084 1081.15,247.54C1081.66,246.683 1081,244.149 1081.38,243.211C1081.44,243.041 1081.67,243.151 1081.61,242.933C1081.47,242.737 1081.27,242.779 1081.06,242.803C1079.69,242.963 1077.89,243.602 1076.49,243.91C1073.51,244.566 1070.52,245.14 1067.53,245.772C1067.37,245.884 1067.34,246.102 1067.32,246.278C1067.19,247.432 1067.26,248.943 1067.23,250.132ZM989.658,255.202C989.367,255.559 989.706,255.94 990.078,255.704L990.281,255.242L989.658,255.202ZM1169.55,242.812C1169.55,242.908 1169.16,243.239 1169.28,243.476C1169.77,243.536 1170.34,242.966 1169.71,242.713L1169.79,242.35C1169.08,242.375 1169.55,242.694 1169.55,242.812ZM1170.61,241.82C1170.56,242.11 1171.32,242.411 1171.43,242.301C1171.7,242.037 1170.85,241.663 1170.61,241.82ZM1072.69,254.877C1072.57,255.022 1072.57,255.822 1072.85,255.68C1073.1,255.469 1073.11,254.848 1072.69,254.877ZM975.939,254.939C976.471,255.087 976.512,254.404 976.231,254.334C975.887,254.247 975.567,254.836 975.939,254.939ZM1082.14,245.137C1081.94,245.236 1081.92,245.925 1081.97,246.008C1082.21,246.365 1082.94,245.71 1082.83,245.495C1082.59,245.399 1082.58,244.911 1082.14,245.137ZM1084.74,248.68C1084.68,248.793 1084.73,248.94 1084.71,249.064C1085.27,248.933 1085.55,249.349 1085.54,249.85L1085.85,249.84C1085.51,249.293 1086.28,248.953 1086,248.519C1085.95,248.432 1085.52,248.241 1085.4,248.256C1085.34,248.264 1084.76,248.646 1084.74,248.68ZM1086.12,247.288C1086.16,247.293 1086.85,247.255 1086.9,247.245C1087.03,247.22 1087.16,247.082 1087.32,247.048C1091.29,246.205 1095.31,245.493 1099.21,244.339L1100.74,241.764C1100.87,240.848 1100.7,239.691 1100.75,238.829C1100.76,238.662 1100.97,238.539 1100.95,238.326C1100.93,238.011 1100.49,237.944 1100.23,238.099L1100.43,238.793L1096.88,239.511L1096.47,239.213C1096.27,239.432 1096.13,239.6 1095.83,239.71C1095,240.011 1093.69,240.07 1092.8,240.255C1090.46,240.74 1088.12,241.274 1085.79,241.755L1085.62,242.006C1085.66,243.456 1085.36,245.134 1085.53,246.564C1085.57,246.882 1085.76,247.239 1086.12,247.288ZM1101.48,242.975L1101.78,243.207L1101.79,242.912L1102.19,242.891C1102.16,242.177 1101.69,242.533 1101.48,242.975ZM1175.65,241.977C1175.09,241.807 1175.18,242.807 1175.39,242.792C1175.61,242.585 1175.65,242.254 1175.65,241.977ZM1178.69,238.649C1178.4,238.43 1177.52,238.136 1177.74,238.783C1177.85,239.081 1178.17,239.555 1178.5,239.235C1178.58,239.157 1178.76,238.76 1178.69,238.649ZM1118.15,232.023C1117.96,231.97 1117.44,231.999 1117.5,232.278C1117.66,232.498 1117.87,232.581 1118.15,232.5C1118.39,232.419 1118.39,232.093 1118.15,232.023ZM1060.98,247.028C1060.53,246.905 1059.71,247.886 1060.43,247.697C1060.71,247.626 1061.63,247.203 1060.98,247.028ZM1027.57,255.979L1027.74,256.584C1027.88,256.709 1028.56,256.185 1028.41,255.954C1028.15,255.713 1027.85,255.777 1027.57,255.979ZM1072.38,251.952C1072.43,252.788 1073.56,252.29 1074.13,252.305C1074.12,251.824 1073.62,252.154 1073.25,252.135C1072.94,252.118 1072.71,251.882 1072.38,251.952ZM1067.65,254.01L1068.16,253.944C1068.41,253.486 1069.32,253.179 1068.84,252.652C1067.85,252.213 1067.63,253.296 1067.65,254.01ZM977.521,255.056C977.521,255.056 984.624,256.473 984.886,256.511C985.255,256.564 985.663,256.31 986.067,256.477C985.919,256.773 986.111,257.055 986.071,257.331C986.027,257.631 985.534,257.736 985.917,257.998L986.643,257.576C986.785,257.382 986.346,256.77 986.743,256.571C987.571,256.578 988.368,257.094 989.153,256.892C988.797,257.784 989.482,252.893 988.931,251.184L989.343,250.967L989.188,250.619C988.969,250.579 988.687,251.191 988.362,251.251C988.132,251.294 987.076,251.113 986.749,251.067C984.881,250.805 982.749,250.245 980.904,249.798C980.468,249.692 977.883,248.859 977.714,249.028L977.521,255.056ZM970.695,255.398C971.054,255.495 971.342,254.909 970.865,254.803C970.442,254.708 970.335,255.301 970.695,255.398ZM1047.58,252.118C1047.9,252.323 1048.23,251.942 1048.46,251.938C1049.18,251.924 1048.56,253.525 1048.63,253.881C1048.64,253.922 1048.95,254.584 1048.98,254.646C1049.18,254.981 1049.7,255.074 1049.55,255.649L1060.91,253.103C1061.36,253.093 1061.37,253.514 1061.58,253.732C1062.09,254.262 1063.08,254.81 1062.56,253.549C1062.43,253.239 1062.1,253.152 1062.09,252.858C1062.37,252.916 1063.06,252.097 1063.1,251.948C1063.14,251.787 1062.99,251.562 1063,251.363C1063.06,250.389 1063.18,249.418 1063.22,248.427C1063.22,248.193 1063.27,247.409 1063.11,247.304C1063,247.234 1062.89,247.272 1062.77,247.291C1061.98,247.419 1060.81,247.935 1059.95,248.14C1059.08,248.345 1058.38,248.401 1057.58,248.711C1056.88,248.982 1049.1,250.073 1048.85,250.816L1047.75,250.858C1047.43,250.972 1047.66,251.331 1047.64,251.509C1047.61,251.69 1047.33,251.963 1047.58,252.118ZM1244.46,247.906C1245.19,248.714 1245.63,247.703 1244.9,247.663C1244.73,247.654 1244.56,247.784 1244.46,247.906ZM1245.1,259.016C1245.23,259.428 1246.56,258.899 1246.23,258.328C1246.13,258.232 1244.98,258.631 1245.1,259.016ZM1198.81,240.927L1199.83,242.031C1203.09,242.813 1206.36,243.547 1209.6,244.387C1210.65,244.657 1211.84,245.169 1212.92,245.285C1214.22,245.424 1213.87,243.352 1213.93,242.538C1213.99,241.656 1214.32,241.078 1213.94,240.192C1213.88,240.057 1213.32,239.103 1213.25,239.06C1212.99,238.873 1211.23,238.618 1210.73,238.481C1207.96,237.725 1206.1,237.197 1203.19,236.796C1202.54,236.706 1201.79,236.462 1201.18,236.406C1200.64,236.358 1200.26,236.448 1199.82,236.78C1198.6,237.707 1199.08,239.617 1198.81,240.927ZM960.474,245.985C960.716,246.364 960.49,247.053 959.908,246.357C959.843,246.279 959.349,245.552 959.392,245.512C959.495,245.417 960.418,245.897 960.474,245.985Z" style="fill:rgb(51,49,50);"/>
        </g>
    </g>
</svg>
