<?xml version="1.0" encoding="UTF-8" standalone="no"?>
<!DOCTYPE svg PUBLIC "-//W3C//DTD SVG 1.1//EN" "http://www.w3.org/Graphics/SVG/1.1/DTD/svg11.dtd">
<svg width="100%" height="100%" viewBox="0 0 2560 652" version="1.1" xmlns="http://www.w3.org/2000/svg" xmlns:xlink="http://www.w3.org/1999/xlink" xml:space="preserve" xmlns:serif="http://www.serif.com/" style="fill-rule:evenodd;clip-rule:evenodd;stroke-linejoin:round;stroke-miterlimit:2;">
    <g transform="matrix(8.33333,0,0,8.33333,-7971.79,-1559.42)">
        <g>
            <path d="M1263.82,236.958L957.15,236.959C957.15,236.959 958.903,197.782 959.376,198.055C959.696,197.213 960.331,198.06 960.619,198.175C960.758,198.23 961.117,198.084 961.314,198.327C961.386,198.557 962.728,199.393 962.728,199.393L962.989,199.724L962.68,200.137C963.007,200.598 963.679,200.2 964.118,200.046C963.974,200.401 964.202,201.107 964.676,200.93C964.738,200.907 964.994,200.39 965.251,200.62C965.464,200.811 964.942,201.056 964.936,201.092C964.865,201.515 965.902,201.89 966.282,201.803C966.415,201.676 965.746,201.168 966.386,200.842C967.036,200.51 967.108,201.697 967.544,201.896C967.988,202.099 968.006,201.678 968.399,201.547C968.902,201.38 969.027,201.608 969.321,201.612C969.519,201.615 969.678,201.472 969.905,201.516C970.014,201.537 970.844,201.948 970.912,202.025C971.182,202.33 970.876,202.959 971.271,202.979C971.812,203.007 971.566,203.043 972.212,202.953C973.105,202.83 973.591,203.502 974.065,204.105L975.592,203.348C975.86,203.979 976.243,203.669 976.781,203.625C976.604,204.216 976.661,204.688 977.409,204.474C977.526,203.629 977.748,204.278 978.325,203.984L978.435,204.685C979.474,204.268 984.786,205.362 985.164,205.299C985.645,205.218 991.267,206.253 991.327,206.241C991.364,206.233 991.528,205.905 991.969,205.928C992.461,205.954 992.882,206.485 993.353,206.281C993.181,206.406 992.66,206.924 993.099,206.997C993.168,207.008 994.227,206.476 994.376,206.393C994.49,206.329 994.468,206.096 994.75,206.07C994.851,206.06 995.347,206.101 995.438,206.124C995.505,206.142 995.67,206.459 996,206.487C996.438,206.524 997.015,206.244 997.334,206.184C997.455,206.161 997.577,206.336 997.729,206.353C998.092,206.395 998.456,206.206 998.701,206.581C998.261,206.686 999.484,207.207 999.217,206.415C1000.46,205.979 1000.9,206.581 1000.97,206.263C1001.56,206.334 1004.39,206.278 1004.67,206.513C1004.79,206.612 1005.91,207.253 1006.28,207.128C1006.87,206.928 1008.58,207.053 1008.58,207.053C1008.62,207.013 1009.93,206.903 1010.38,206.89C1011.01,206.873 1015.62,207.197 1015.88,207.404C1016.06,207.541 1015.97,207.738 1016.35,207.75C1016.89,207.768 1017.55,207.512 1018,207.484C1019.28,207.403 1020.89,207.803 1022.21,207.776C1023.32,207.753 1024.59,207.561 1025.7,207.476C1026.29,207.48 1026.36,208.014 1026.55,208.047C1027.24,207.458 1027.49,207.168 1028.49,207.293C1028.71,207.321 1029.06,207.557 1029.21,207.535C1029.35,207.516 1029.45,207.212 1029.73,207.151C1031.21,206.828 1033.58,206.925 1035.18,206.793C1038.58,206.513 1041.97,205.748 1045.26,205.486C1045.67,205.452 1046.14,205.434 1046.55,205.491C1046.73,205.61 1046.52,206.212 1046.96,206.143L1046.97,205.5L1047.12,205.344C1047.5,205.435 1048.28,205.156 1048.54,205.182C1048.61,205.189 1048.59,205.376 1048.67,205.39C1049.18,205.485 1049.53,204.713 1050.04,204.74C1050.17,204.858 1049.48,205.41 1049.88,205.348C1050.24,205.294 1050.62,205.149 1050.95,205.003L1050.97,204.713L1050.45,204.726C1050.23,204.583 1051.83,204.333 1052.02,204.377C1052.12,204.4 1052.14,204.597 1052.26,204.664C1052.62,204.878 1054.13,204.76 1054.31,204.307C1054.4,204.104 1054.25,203.966 1054.27,203.865C1054.33,203.603 1056.07,203.26 1056.31,203.699C1056.42,203.904 1055.95,203.861 1055.9,204.009C1055.73,204.491 1056.19,204.101 1056.28,204.081C1056.83,203.96 1064.43,202.262 1064.81,202.217C1065.4,202.146 1065.14,202.267 1065.77,202.003C1066.17,201.836 1068.53,200.342 1068.86,200.655C1068.91,200.71 1068.68,201.395 1069.42,201.341C1069.61,201.327 1069.79,201.172 1069.96,201.15C1071.82,200.912 1074.74,200.517 1076.34,199.855C1076.51,199.785 1076.75,199.805 1076.92,199.723C1076.88,198.766 1077.72,199.395 1077.81,198.572L1078.01,198.641C1078.03,198.732 1077.95,198.962 1078.16,198.864C1078.41,198.749 1078.26,198.348 1078.33,198.266C1078.35,198.239 1078.91,198.051 1078.99,198.036C1079.08,198.021 1079.16,198.024 1079.24,198.025L1078.95,198.505L1079.04,198.793C1079.58,198.941 1079.78,198.372 1080.38,198.541C1080.52,198.579 1082.45,200.685 1082.23,199.308C1082.19,199.021 1081.58,198.77 1081.82,198.607C1082.23,198.321 1082.79,198.402 1083.2,198.31C1083.36,198.274 1083.46,198.139 1083.62,198.104C1083.98,198.026 1084.56,198.217 1084.7,197.711L1084.54,197.263C1084.63,197.143 1085.96,196.373 1086.11,196.331C1086.74,196.154 1087.32,196.029 1087.94,195.855C1088.21,195.778 1089.55,195.38 1089.63,195.752C1089.63,195.924 1089.02,196.369 1089.47,196.411L1090.21,195.691C1090.86,196.32 1092.11,195.656 1092.77,195.205C1093.06,195.008 1093.14,194.799 1093.3,194.679C1093.65,194.421 1095.65,194.19 1096.24,194.068C1097.9,193.722 1099.57,193.05 1101.2,192.843C1103.02,192.614 1104.57,192.379 1106.33,192.067C1106.81,191.982 1107.69,191.764 1108.09,191.731C1108.71,191.68 1118.46,189.954 1118.68,189.902C1120.18,189.553 1122.43,189.607 1124.03,189.44C1125.85,189.25 1127.82,188.855 1129.58,188.774C1129.99,188.756 1130.18,188.43 1130.41,188.952L1130.56,188.948C1130.32,188.589 1131.67,188.328 1131.87,188.324C1132.08,188.321 1132.12,188.574 1132.34,188.572C1132.63,188.569 1133.1,188.259 1133.41,188.181C1134.31,187.96 1135.33,187.918 1136.25,187.751C1136.37,187.73 1136.48,187.635 1136.58,187.562C1136.72,188.157 1137.47,188.168 1138,188.003C1138.17,187.947 1138.32,187.65 1138.55,187.624C1138.95,187.578 1139.99,188.355 1139.92,187.26C1140.33,187.501 1140.57,187.222 1140.95,187.13C1141.02,187.312 1140.77,187.385 1140.76,187.504C1140.68,187.97 1141.35,187.555 1141.41,187.558C1141.72,187.572 1141.93,187.602 1142.33,187.605C1143,187.61 1144.09,187.812 1144.71,187.733C1145.08,187.685 1145.24,187.404 1145.53,187.393C1145.93,187.378 1146.91,187.711 1147.49,187.654C1147.73,187.63 1147.69,187.366 1147.81,187.333C1148.29,187.202 1150.34,187.24 1150.99,187.239C1151.66,187.237 1152.47,187.366 1153.15,187.373C1153.38,187.376 1153.6,187.226 1153.86,187.259C1154.09,187.288 1154.18,187.56 1154.37,187.552C1154.49,187.547 1155.31,187.157 1155.51,187.15C1155.62,187.146 1156.08,187.33 1156.35,187.349C1156.7,187.374 1157.15,187.265 1157.45,187.268C1157.98,187.273 1158.59,187.408 1159.16,187.311L1159.83,187.394C1159.83,187.394 1161.1,187.837 1161.78,187.432C1162.26,187.147 1162.38,187.5 1162.7,187.499C1162.86,187.499 1163.03,187.373 1163.22,187.391C1163.4,187.408 1165.14,187.591 1166.21,187.308C1167.17,187.055 1168.09,187.565 1168.88,187.541C1169.13,187.534 1169.3,187.342 1169.51,187.314C1169.82,187.274 1170.25,187.475 1170.55,187.456C1170.74,187.443 1170.87,187.3 1171.05,187.275C1171.93,187.15 1171.88,187.441 1172.51,187.605C1172.84,187.69 1173.32,187.694 1173.67,187.698L1173.68,188.19C1173.9,188.278 1174.15,188.391 1174.28,188.122L1174.23,187.583C1174.63,187.015 1175.11,187.714 1175.48,187.749C1175.7,187.771 1175.97,187.631 1176.27,187.632C1176.84,187.634 1186.43,188.635 1186.8,188.637L1187.1,188.932C1187.45,188.614 1187.62,188.804 1187.92,188.784C1189.72,188.665 1191.71,189.43 1193.4,189.835C1194,189.977 1194.78,189.767 1195.03,190.52L1195.23,190.109C1195.4,190.106 1195.46,190.285 1195.65,190.303C1195.88,190.327 1196.15,190.128 1196.35,190.187C1196.48,190.227 1196.47,190.451 1196.59,190.476C1196.7,190.499 1196.86,190.438 1196.97,190.471C1197.58,190.661 1198.23,190.892 1198.89,190.766C1199.1,189.865 1199.4,190.758 1199.6,190.85C1199.76,190.921 1199.92,190.761 1200.05,190.772C1200.13,190.78 1200.16,191.056 1200.42,191.13C1200.79,191.239 1201.25,191.098 1201.68,191.266C1201.92,191.359 1202.09,191.603 1202.36,191.694C1202.71,191.808 1203.25,191.732 1203.51,191.844C1203.64,191.898 1203.73,192.125 1203.9,192.17C1204.16,192.238 1204.43,192.059 1204.7,192.053C1205.31,192.039 1208.12,192.761 1208.76,193.009C1209.06,193.124 1209.47,193.504 1209.56,193.524C1209.75,193.566 1210.16,193.352 1210.55,193.43C1210.86,193.494 1211.56,193.888 1211.82,193.96C1212.08,194.028 1212.41,193.929 1212.7,193.978C1212.97,194.023 1214.86,194.526 1214.92,194.618C1214.99,194.716 1214.89,195.003 1215.1,195.098C1215.65,194.611 1215.65,194.887 1216.15,194.944C1216.78,195.016 1217.76,195.302 1218.19,195.32C1218.67,195.34 1218.97,195.022 1219.5,195.095C1219.95,195.157 1219.76,195.515 1220.04,195.766C1220.65,195.293 1221.37,195.774 1222,195.906C1223.23,196.163 1224.4,196.485 1225.63,196.788C1226.45,196.99 1227.37,197.02 1228.22,197.298C1229.37,197.671 1230.53,198.625 1231.82,198.26L1231.98,198.657C1232.16,198.637 1232.29,198.462 1232.47,198.465C1232.74,198.468 1233.76,198.902 1234.37,199.129C1234.69,198.361 1235.31,199.18 1235.6,199.293C1235.73,199.348 1236.09,199.202 1236.29,199.445C1236.36,199.675 1252.72,205.396 1253.3,205.102L1253.41,205.803C1254.45,205.386 1254.82,207.091 1255.42,207.168C1255.6,207.19 1256.41,207.024 1256.54,206.925C1256.74,206.778 1256.66,206.576 1256.76,206.425C1256.98,206.076 1257.83,205.834 1258.14,206.126C1257.76,206.521 1257.66,207.603 1258.35,206.935C1258.48,206.814 1258.6,206.51 1258.72,206.482C1258.8,206.462 1258.94,206.557 1259.09,206.529C1259.52,206.452 1259.76,206.48 1260.14,206.417C1260.62,206.336 1260.99,205.743 1261.55,206.224C1261.55,206.224 1263.5,206.973 1263.67,207.011C1263.79,207.039 1263.82,236.958 1263.82,236.958ZM1010.44,212.704C1010.55,212.126 1009.52,213.097 1009.52,213.097L1010.44,212.704ZM1137.32,200.802C1136.83,200.731 1136.72,202.558 1137.18,202.214L1137.28,201.609L1137.79,201.589C1137.91,201.346 1137.5,200.829 1137.32,200.802ZM1135.06,202.79C1134.39,202.599 1134.15,203.541 1134.78,203.688C1135.21,203.787 1135.4,202.889 1135.06,202.79ZM1194.7,202.524C1194.84,202.572 1195.16,203.048 1195.52,202.951C1195.6,202.277 1195.06,202.304 1194.69,202.111C1194.54,202.029 1194.52,201.837 1194.41,201.766C1194.02,201.531 1193.3,201.087 1193.26,201.835C1193.48,201.968 1193.75,202.346 1193.9,202.462C1194.22,202.706 1194.53,202.466 1194.7,202.524ZM1195.61,201.59C1195.73,201.669 1195.76,201.843 1195.88,201.929L1196.03,201.926C1195.99,201.526 1196.41,201.445 1196.64,201.148C1197.23,200.399 1197.92,195.281 1196.35,194.957C1192.56,194.178 1188.61,193.7 1184.74,193.16C1184.58,193.171 1183.63,193.666 1183.51,193.786C1183.21,194.065 1183.16,194.692 1183.05,194.773C1182.96,194.838 1182.68,194.646 1182.36,194.971C1182.19,195.151 1182.09,195.405 1182.12,195.65L1182.95,195.525C1183.18,196.441 1182.75,197.545 1183,198.461C1183.14,198.965 1183.63,199.503 1184.15,199.633C1185.63,200.007 1187.41,200.075 1188.95,200.336C1189.87,200.492 1190.77,200.744 1191.68,200.91C1192.38,201.038 1195.22,201.328 1195.61,201.59ZM1031.6,218.535C1032.03,218.841 1046,216.835 1046.15,215.822C1046.23,215.251 1046.3,213.472 1046.26,212.889C1046.22,212.339 1045.74,211.118 1045.22,210.901C1044.87,210.757 1043.36,211.209 1042.88,211.294C1042.02,211.446 1031.87,212.879 1031.87,212.879L1031.6,218.535ZM1027.53,214.747C1027.54,214.315 1027.72,213.843 1027.63,213.382L1012.88,213.925L1012.71,214.168L1012.52,217.564C1012.02,217.416 1011.74,217.599 1011.31,217.673C1011.09,217.711 1010.67,217.519 1010.61,217.915C1010.55,218.256 1010.87,218.364 1010.36,218.588C1010.34,218.801 1011.37,218.875 1010.98,218.216L1011.28,218.206C1011.1,218.98 1012.84,219.246 1012.42,218.377C1012.65,218.182 1013.24,219.099 1013.5,219.257C1013.76,219.413 1014.06,219.378 1014.27,219.587L1013.55,219.913C1013.85,220.581 1014.72,220.069 1015.25,220.108C1015.57,220.132 1015.79,220.38 1016.18,220.395C1016.46,220.406 1016.69,220.289 1016.9,220.29C1017.31,220.293 1018.34,220.484 1018.65,220.229C1019.19,219.661 1018.14,219.678 1018.64,219.209C1018.64,219.209 1027.15,218.999 1027.46,218.218C1027.69,217.64 1027.5,215.534 1027.53,214.747ZM1017.05,219.153C1016.95,219.724 1016.1,219.487 1015.76,219.489C1015.4,219.49 1015.1,219.799 1014.89,219.318L1017.05,219.153ZM991.013,216.973L991.286,217.58C992.242,217.355 991.874,216.788 991.013,216.973ZM1132.57,199.135C1132.36,199.36 1132.4,199.804 1132.78,199.696C1133.32,199.544 1132.91,198.757 1132.57,199.135ZM1139.07,197.605C1139.8,197.489 1140.16,197.092 1140.52,196.466C1140.59,196.343 1141.04,195.415 1141.05,195.355C1141.08,195.211 1140.88,195.045 1140.86,194.864C1140.82,194.493 1141.01,193.962 1140.81,193.51C1140.72,193.31 1139.3,192.514 1139.04,192.469C1138.56,192.388 1137.73,192.479 1137.2,192.495C1137.04,192.5 1136.79,192.617 1136.7,192.598C1136.5,192.557 1136.58,192.102 1135.97,192.12C1135.37,192.137 1135.59,192.418 1135.36,192.656C1135.16,192.864 1133.8,192.774 1133.4,192.808C1132.72,192.866 1132.02,193.01 1131.34,193.073C1129.96,193.203 1127.8,193.116 1126.63,193.932C1126.12,194.284 1126.4,194.725 1126.37,195.193C1126.31,196.067 1126.26,196.951 1126.16,197.823C1126.27,198.429 1126.91,198.527 1127.44,198.553C1128.21,198.592 1131.58,198.062 1131.9,198.24C1132.15,198.376 1132.1,198.924 1132.5,198.113C1132.99,197.93 1133.89,198.203 1134.33,198.148C1134.57,198.118 1134.76,197.878 1135.06,197.918C1135.31,197.951 1135.29,198.163 1135.43,198.26C1136.11,198.73 1135.98,197.963 1136.1,197.889C1136.41,197.704 1138.49,197.698 1139.07,197.605ZM1140.46,197.465C1140.48,197.663 1140.45,198.446 1140.82,198.364C1141.12,198.299 1140.81,197.626 1140.87,197.454L1140.46,197.465ZM1141.08,197.093C1141,197.484 1141.43,197.388 1141.6,197.577C1141.69,197.679 1141.69,197.874 1141.8,197.981C1142.18,198.337 1143.49,198.386 1144,198.464C1144.15,198.43 1144.22,198.162 1144.16,198.071C1144.14,198.041 1143.59,197.906 1143.45,197.824C1143.14,197.634 1143.02,197.431 1142.6,197.272C1142.36,197.183 1141.17,196.796 1141.08,197.093ZM1207.35,205.944C1207.65,205.253 1207.21,205.317 1206.63,205.362C1206.58,205.756 1207,205.978 1207.35,205.944ZM1212.11,204.423C1212.68,204.532 1214.2,205.095 1214.66,204.875C1214.89,204.762 1215.04,204.404 1215.07,204.158C1215.18,203.233 1215.16,201.967 1215.16,201.018C1215.16,200.848 1215.27,200.673 1215.27,200.505C1215.26,200.068 1214.86,199.835 1214.79,199.564C1214.75,199.375 1214.86,199.191 1214.86,199.001C1214.84,198.419 1209.94,197.691 1208.49,197.343C1206.83,196.945 1204.99,196.684 1203.45,196.06L1201.67,196.197L1201.74,196.6C1200.74,196.968 1201.05,197.9 1200.96,198.695C1200.86,199.613 1200.73,200.552 1200.59,201.468L1200.54,201.579C1199.56,201.519 1200.62,202.507 1200.66,202.144L1200.66,201.69L1201.17,202.029L1200.76,202.194C1200.72,202.239 1201.15,203.118 1201.2,203.168C1201.32,203.285 1201.69,203.289 1201.84,203.482C1202.08,203.798 1201.86,204.319 1202.56,204.261C1202.96,204.228 1203.05,204.03 1202.83,203.694C1202.59,203.339 1201.91,203.457 1202.1,202.761C1202.8,202.828 1203.51,202.872 1204.2,203.012C1206.72,203.527 1209.49,203.923 1212.11,204.423ZM1202.31,204.626C1201.86,205.014 1204.37,205.717 1204.14,205.409C1204.03,205.268 1203.94,204.934 1203.86,204.884C1203.73,204.808 1203.51,204.865 1203.34,204.797C1203.1,204.692 1202.84,204.163 1202.31,204.626ZM974.84,209.095C974.777,208.827 960.117,204.903 960.117,204.968L960.132,211.038C960.089,211.258 969.533,214.864 974.444,215.733C974.456,214.637 974.12,209.861 974.84,209.095ZM1232.05,207.204C1232.1,206.66 1232.23,205.455 1232.14,204.982C1232.1,204.705 1231.28,203.52 1231.03,203.371C1230.26,202.912 1227.87,202.311 1226.87,202.014C1224.86,201.418 1222.8,200.929 1220.77,200.408C1219.92,200.758 1219.22,202.304 1219.27,202.378L1219.1,204.927L1220.45,206.5C1224.04,207.349 1227.46,208.645 1230.9,209.901C1231.93,209.964 1231.99,207.895 1232.05,207.204ZM1262.01,218.92C1262.69,218.982 1261.84,212.346 1260.42,212.076L1260.08,211.97L1254.03,210.992L1253.74,215.865C1253.61,216.194 1253.68,216.542 1253.63,216.875C1253.61,217.058 1253.44,217.22 1253.46,217.375C1253.49,217.776 1254.05,217.801 1254.36,217.873C1256.81,218.43 1259.57,218.698 1262.01,218.92ZM1259.48,206.948L1258.65,206.814C1258.3,207.304 1258.11,208.134 1258.97,207.926L1259.48,206.948ZM1211.31,206.537C1211.18,206.828 1211.36,207.117 1211.58,207.296C1211.96,207.485 1212.15,206.93 1212.08,206.634C1211.88,206.596 1211.48,206.287 1211.31,206.537ZM968.851,204.195C968.816,203.935 968.648,202.915 968.384,202.863C967.789,203.12 966.982,203.782 967.795,204.277L968.141,203.875C968.503,203.76 968.242,204.302 968.502,204.369C968.655,204.408 968.785,204.34 968.851,204.195ZM985.131,210.667C985.415,210.074 985.047,209.912 984.566,209.672C984.028,209.958 984.983,210.781 985.131,210.667ZM1174.75,191.402C1175.21,191.251 1174.92,190.523 1174.51,190.822C1174.37,190.926 1174.32,191.542 1174.75,191.402ZM1172.96,189.229C1173.64,189.543 1173.8,188.619 1173.05,188.628L1172.96,189.229ZM990.023,210.626C990.425,210.73 990.691,210.037 990.207,209.927C989.753,209.825 989.775,210.562 990.023,210.626ZM972.163,204.254C972.782,204.386 973.005,203.525 972.498,203.248C972.005,203.419 971.958,203.841 972.163,204.254ZM1189.31,189.523C1189.19,189.402 1189,189.215 1188.82,189.196C1188.77,189.189 1188.72,189.179 1188.66,189.201C1187.8,189.791 1189.32,189.804 1189.31,189.523ZM1158,197.157C1158.76,197.169 1159.47,197.259 1160,196.644C1160.49,196.093 1160.21,196.066 1160.2,195.531C1160.19,194.698 1160.43,192.791 1159.61,192.38C1158.02,191.586 1156,192.092 1154.28,191.909C1154.05,191.885 1153.89,191.714 1153.77,191.717C1153.65,191.72 1153.49,191.9 1153.26,191.939C1152.81,192.014 1152.43,191.861 1152.02,191.864C1150.63,191.873 1148.96,191.865 1147.59,191.991C1146.72,192.072 1145.86,192.35 1145.23,192.977C1145.1,193.491 1145.24,194.03 1145.19,194.546C1145.16,194.769 1145.01,195.668 1144.96,195.846C1144.92,195.986 1144.16,196.868 1144.27,196.949C1144.69,197.089 1145.04,196.737 1145.34,196.706C1145.75,196.666 1146.08,196.955 1146.47,196.989C1148.63,197.18 1151.34,196.708 1153.58,196.777C1155.04,196.821 1156.53,197.135 1158,197.157ZM1097.94,194.38L1097.8,194.047C1096.81,194.509 1097.8,194.96 1097.94,194.38ZM1080.33,208.297C1081.62,207.605 1082.95,205.108 1082.37,203.727C1082.28,203.515 1081.47,202.777 1081.24,202.739C1080.97,202.694 1080.64,202.822 1080.37,202.878C1079.12,203.135 1077.75,203.617 1076.48,203.926C1073.94,204.546 1071.38,205.104 1068.83,205.725C1067.52,206.568 1067.87,208.129 1067.85,209.438C1067.85,209.681 1067.74,209.905 1067.74,210.141C1067.76,210.577 1068.37,211.683 1068.92,211.573C1071.26,211.008 1073.55,210.148 1075.85,209.483C1077.05,209.139 1079.35,208.822 1080.33,208.297ZM1080.91,201.66L1080.64,200.717C1080.38,200.665 1079.82,202.003 1079.97,202.151C1080.47,202.244 1080.45,201.76 1080.91,201.66ZM1073.59,201.968L1073.22,201.546C1072.68,201.468 1072.51,203.305 1073.59,201.968ZM1102.09,201.454C1102.25,200.923 1102.48,198.863 1102.19,198.524C1101.7,197.965 1100.5,197.862 1099.8,197.96C1097.57,198.271 1093.4,199.446 1091.18,200.157C1090.76,200.294 1090.29,200.456 1089.88,200.632C1089.54,200.777 1087.54,201.802 1087.41,201.965C1087.1,202.352 1087.42,203.572 1087.19,204.109C1087.2,204.457 1087.69,205.674 1088.01,205.815C1088.58,206.073 1092.07,205.042 1092.92,204.837C1095.18,204.289 1097.56,203.773 1099.83,203.146C1101.02,202.818 1101.68,202.735 1102.09,201.454ZM1163.7,197.152C1163.74,197.206 1176.49,198.837 1177.43,198.598C1177.56,198.564 1178.23,198.083 1178.27,197.989C1178.36,197.802 1178.37,194.304 1178.32,193.886C1178.27,193.513 1178.17,193.415 1177.87,193.223C1177.02,192.684 1175.56,192.434 1174.54,192.341C1171.57,192.066 1168.38,192.012 1165.37,192.017C1163.1,192.021 1163.85,192.996 1163.81,194.616C1163.8,195.137 1163.46,196.832 1163.7,197.152ZM1122.56,198.335C1122.63,197.946 1122.6,196.353 1122.51,195.955C1122.44,195.641 1121.79,194.425 1121.47,194.375C1121.06,194.312 1120.08,194.392 1119.62,194.427C1116.37,194.675 1112.96,195.794 1109.85,196.024C1109.35,196.06 1108.92,195.822 1108.72,195.848C1108.48,195.878 1108.45,196.173 1108.23,196.299C1107.92,196.468 1106.45,196.739 1106.32,196.853L1106.02,200.925L1107.5,201.549C1110.69,200.967 1113.89,200.406 1117.11,200.063C1117.16,200.109 1117,200.582 1117.26,200.463C1117.49,200.262 1117.69,199.939 1118.01,199.856C1119.04,199.587 1120.46,199.8 1121.45,199.401C1121.73,199.287 1122.5,198.622 1122.56,198.335ZM1170.36,190.608C1170.48,190.403 1170.09,189.525 1170.02,189.527C1169.69,189.703 1169.66,190.804 1169.92,190.844C1170.01,190.814 1170.34,190.648 1170.36,190.608ZM1167.6,190L1166.99,190.018C1166.96,190.19 1166.96,190.683 1167.24,190.617C1167.36,190.548 1167.7,190.082 1167.6,190ZM1107.4,204.593C1107.74,204.484 1107.39,203.54 1106.93,203.8C1107.04,204.089 1106.93,204.67 1107.4,204.593ZM1173.26,190.545C1172.86,190.52 1172.71,190.758 1172.5,191.032C1172.46,191.087 1172.06,191.339 1172.49,191.375L1173.26,190.545ZM1004.43,213.55C1004.28,213.54 1002.5,213.905 1002.63,213.349C1002.71,213.009 1001.32,212.91 1001.09,212.837C1001.06,213.004 1001.35,212.943 1001.39,213.082C1001.44,213.209 1001.37,213.392 1001.23,213.43C1001.12,213.459 999.213,213.256 999.153,213.173C999.114,213.119 999.023,212.646 999.069,212.587C999.558,212.45 997.957,212.714 997.484,212.636L997.687,212.074L997.379,211.574L996.866,211.844C996.832,211.669 996.778,211.503 996.556,211.551C996.382,211.847 996.413,212.519 996.258,212.732C996.009,213.075 995.54,212.564 995.331,212.965C995.523,213.748 995.256,214.581 995.13,215.373L994.728,215.461C994.606,215.961 994.241,216.389 994.929,216.514C994.943,217.055 994.533,217.517 994.795,218.054C994.97,218.413 995.713,218.467 995.952,218.704C996.248,218.995 996.256,220.186 997.03,220.038C997.664,219.461 997.897,220.596 998.482,219.794C998.692,219.376 997.77,219.386 997.555,219.419C997.375,219.447 997.201,219.731 996.985,219.483C996.624,219.07 997.045,218.916 997.447,218.902C999.423,218.833 1002.02,219.498 1004.14,219.525C1004.56,219.531 1005.73,219.523 1006.09,219.48C1006.65,219.413 1006.6,218.993 1007.24,219.725C1007.87,219.257 1008.07,219.599 1008.69,219.672C1009.31,219.744 1009.95,219.824 1010.57,219.643C1010.21,219.228 1009.55,218.715 1009.02,219.183C1008.77,218.447 1010.11,218.492 1010.21,218.346C1010.47,217.556 1009.88,217.484 1009.22,217.558L1009.3,217.86L1009.74,218.101C1009.21,218.894 1009.18,217.964 1009.11,217.882C1009.04,217.804 1008.24,217.797 1008.19,217.623L1008.45,215.859L1008.65,215.749C1008.65,215.749 1009.27,215.389 1009.25,215.167C1009.23,215.02 1009.34,214.847 1009.32,214.677C1009.19,213.136 1008.31,214.252 1007.57,213.914C1007.25,213.769 1007.39,213.082 1007,213.061C1006.76,213.048 1005.86,213.771 1005.46,213.828C1004.85,213.916 1004.72,213.568 1004.43,213.55ZM1007.42,218.624C1007.27,217.996 1008.9,218.248 1009.01,218.385L1009.02,218.677C1008.79,218.697 1008.58,218.569 1008.35,218.584C1008.17,218.595 1008.21,218.751 1008.17,218.771C1007.95,218.902 1007.6,218.768 1007.42,218.624ZM1062.54,205.388C1062.96,205.258 1062.43,204.365 1061.97,204.596C1061.91,204.859 1062.21,205.491 1062.54,205.388ZM992.097,206.741C992.233,206.96 992.826,207.177 992.826,207.177C992.594,207.04 992.687,206.575 992.574,206.494C992.349,206.334 991.68,206.436 991.86,206.629C991.918,206.677 992.068,206.694 992.097,206.741ZM1161.43,191.04L1161.67,191.272C1162.25,190.722 1162.79,191.663 1163.49,191.434C1163.67,191.285 1162.63,190.596 1162.38,190.571C1162.24,190.557 1161.45,190.946 1161.43,191.04ZM1200.47,209.487C1199.85,209.206 1199.56,210.691 1199.76,210.822C1200.16,211.09 1200.48,209.737 1200.47,209.487ZM991.237,212.844C990.952,212.276 990.123,212.899 990.077,212.851L990.588,211.927C990.191,212.134 990.102,211.855 989.796,211.766C988.43,211.371 986.866,211.228 985.446,210.958L985.44,210.558L985.108,210.852L979.054,209.874L978.762,214.747C978.638,215.076 978.702,215.424 978.658,215.757C978.634,215.94 978.468,216.102 978.48,216.257C978.512,216.658 979.07,216.683 979.384,216.754C981.831,217.312 984.59,217.579 987.037,217.802C987.719,217.864 988.901,218.082 989.523,218.037C989.709,218.024 989.874,218.036 989.985,217.863L989.98,215.839L990.193,215.721C990.607,215.997 991.042,215.793 990.655,215.355C990.349,215.009 990.149,215.293 990.385,214.467L989.979,214.322C990.166,213.979 990.847,214.009 991.009,213.891C991.125,213.808 991.332,213.035 991.237,212.844ZM1063.01,212.593C1063.11,212.443 1063.9,210.843 1063.93,210.742C1063.96,210.588 1063.83,210.422 1063.85,210.267C1063.88,210.022 1064.02,209.784 1064.02,209.546C1064.04,209.066 1063.86,208.377 1063.91,207.848C1063.71,207.595 1063.31,207.114 1062.96,207.111C1062.44,207.107 1055.9,208.931 1054.53,208.763L1051.11,209.692C1050.62,210.665 1050.13,211.252 1050.05,212.374C1049.99,213.298 1049.9,214.728 1050.58,215.396C1051.06,215.87 1051.6,215.431 1052.2,215.328C1053.84,215.046 1061.12,213.912 1061.66,213.833C1061.87,213.801 1062.31,214.048 1062.4,213.727C1062.43,213.604 1062.29,213.451 1062.35,213.288C1062.4,213.166 1062.86,212.807 1063.01,212.593ZM1110.98,202.155C1111.27,202.054 1111.11,201.391 1111.14,201.147C1111.02,201.165 1110.85,201.116 1110.75,201.177C1110.57,201.285 1110.28,202.404 1110.98,202.155ZM1235.24,213.046C1239.82,214.737 1244.59,215.996 1249.42,216.851C1249.43,215.755 1249.4,214.656 1249.41,213.559C1249.41,213.266 1249.52,212.982 1249.52,212.649C1249.52,211.78 1249.1,210.979 1249.82,210.213C1249.75,209.945 1245.09,209.051 1244.41,208.805C1244.11,208.697 1241.82,207.512 1241.3,207.387C1240.91,207.292 1236.99,206.458 1236.74,206.349C1236.71,206.57 1236.69,206.791 1236.68,207.02L1235.96,206.281L1236.15,206.113C1235.9,206.021 1235.68,205.948 1235.51,205.926C1235.52,206.122 1235.54,206.309 1235.57,206.473C1235.64,206.815 1235.99,206.988 1235.97,207.394C1235.95,207.854 1235.55,207.856 1235.36,208.133C1235.24,208.302 1235.19,208.576 1235.1,208.822L1235.1,209.287L1235.35,209.487L1235.66,209.074C1235.95,209.557 1235.55,209.843 1235.47,210.17C1235.43,210.383 1235.57,210.552 1235.54,210.724C1235.45,211.168 1235.17,211.717 1235.18,212.194C1235.19,212.477 1235.22,212.759 1235.24,213.046Z" style="fill:rgb(51,49,50);"/>
        </g>
    </g>
</svg>
