<?xml version="1.0" encoding="UTF-8" standalone="no"?>
<!DOCTYPE svg PUBLIC "-//W3C//DTD SVG 1.1//EN" "http://www.w3.org/Graphics/SVG/1.1/DTD/svg11.dtd">
<svg width="100%" height="100%" viewBox="0 0 2560 652" version="1.1" xmlns="http://www.w3.org/2000/svg" xmlns:xlink="http://www.w3.org/1999/xlink" xml:space="preserve" xmlns:serif="http://www.serif.com/" style="fill-rule:evenodd;clip-rule:evenodd;stroke-linejoin:round;stroke-miterlimit:2;">
    <g transform="matrix(8.33333,0,0,8.33333,-7971.79,-1559.42)">
        <g>
            <path d="M1264.11,206.959C1264.39,207.006 1264.65,259.968 1264.25,260.079C1264.25,260.079 1263.55,261.392 1263.27,261.785C1263.18,261.926 1263.23,262.17 1263.07,262.302C1262.86,262.48 1262.48,262.356 1262.4,262.422C1262.35,262.462 1262.37,262.819 1262.27,262.901C1262.17,262.973 1261.48,263.06 1261.31,263.057C1261.01,263.053 1260.55,262.836 1260.4,262.866C1260.29,262.888 1260.36,263.247 1259.87,263.198C1259.44,263.153 1259.8,262.457 1259.24,262.425C1258.89,262.407 1258.8,262.732 1258.69,262.982L1258.54,263.034C1258.38,263 1258.28,262.869 1258.12,262.844C1257.04,262.673 1256.49,262.45 1255.36,262.411C1255,262.399 1254.46,262.108 1254.1,262.05C1252,261.712 1249.64,261.596 1247.57,261.175C1247.36,261.132 1245.99,260.77 1245.92,260.715C1245.79,260.606 1245.82,260.414 1245.82,260.261C1245.52,260.181 1245.33,260.487 1245.08,260.47C1244.87,260.456 1243.65,260.049 1243.5,259.927C1243.38,259.828 1243.33,259.583 1243.18,259.538C1243.03,259.496 1242.58,259.656 1242.29,259.646C1240.86,259.599 1238.23,258.752 1236.84,258.27C1236.12,258.02 1234.46,257.174 1233.9,257.086C1233.46,257.015 1233.2,257.255 1232.66,257.133C1232.09,257 1231.83,256.667 1231.72,256.246C1231.7,256.243 1231.68,256.241 1231.65,256.239C1231.67,256.191 1231.68,256.147 1231.69,256.104C1231.67,255.999 1231.66,255.888 1231.66,255.775C1231.46,255.406 1230.7,255.44 1230.32,255.311C1229.98,255.197 1229.79,254.739 1229.39,254.786C1229.61,254.236 1229.63,253.956 1229.11,253.594C1228.46,253.569 1228.55,254.257 1228.37,254.672L1227.33,254.745C1227.29,254.471 1227.82,254.251 1227.48,254.033C1226.81,254.419 1226.87,254.101 1226.37,253.944C1225.59,253.697 1224.8,253.876 1224.11,253.729C1224,253.706 1222.58,252.907 1222.32,252.782C1222.09,252.672 1221.47,252.334 1221.28,252.307C1220.85,252.248 1220.78,252.549 1220.56,252.596C1220.38,252.636 1220.21,252.492 1220,252.547C1219.81,252.594 1219.64,252.905 1219.37,252.841C1219.17,252.793 1219.15,252.531 1219.02,252.451C1218.38,252.063 1212.22,250.211 1211.47,249.999C1210.16,249.633 1209.45,249.305 1208.03,249.229C1207.71,249.212 1207.42,248.925 1206.95,249.218C1206.78,249.323 1206.75,249.757 1206.4,249.675C1205.96,249.571 1205.97,249 1205.82,248.737C1205.51,248.205 1204.81,248.242 1204.27,248.381L1204.01,248.844L1203.75,248.145C1203.6,248.111 1203.68,248.29 1203.58,248.353C1203.01,248.72 1203.17,248.098 1202.77,248.068C1202.4,248.063 1202.25,248.447 1201.86,248.405C1201.47,248.364 1201.57,248.007 1201.42,247.9C1200.85,247.489 1183.05,245.147 1182.73,245.087C1182.49,245.042 1181.94,244.759 1181.76,244.752C1181.61,244.746 1181.5,244.959 1181.38,244.94C1181.28,244.923 1181.2,244.742 1181.11,244.701C1181.03,244.669 1179.62,244.404 1179.51,244.395C1179.08,244.361 1178.91,244.706 1178.71,244.702C1178.12,244.691 1177.7,243.261 1176.94,244.366L1176.79,244.369C1176.77,244.007 1176.46,244.08 1176.25,243.975C1176.17,243.937 1176.17,243.799 1176.1,243.786C1175.58,243.693 1175.35,244.282 1174.53,243.772C1174.27,243.61 1174.39,243.258 1173.76,243.556L1173.65,243.345L1172.84,243.681C1172.8,243.289 1172.28,243.712 1172.26,243.442C1172.26,243.349 1173.32,242.189 1172.41,242.067C1171.68,241.969 1172.15,242.734 1171.74,242.949C1171.15,243.261 1171.51,243.114 1171.23,243.368C1171.04,243.545 1169.34,243.787 1169.03,243.781C1168.79,243.778 1168.56,243.6 1168.3,243.601C1168.06,243.601 1167.81,243.762 1167.6,243.714C1167.44,243.676 1167.02,243.236 1167.01,243.037L1166.86,243.043C1166.05,244.074 1166.03,243.285 1165.71,243.191C1165.24,243.055 1156.64,243.006 1156.64,243.006C1155.76,243.378 1154.62,242.735 1153.79,242.916C1153.44,242.994 1153.32,243.468 1152.97,243.543C1152.73,243.593 1152.44,243.54 1152.2,243.567C1152.25,243.312 1151.12,243.081 1151.06,243.397C1150.73,243.372 1150.31,243.22 1149.98,243.227C1149.3,243.241 1128.46,244.694 1128.2,244.697C1127.12,244.713 1114.98,246.943 1114.74,247.012C1114.36,247.123 1113.59,247.35 1113.26,247.423C1112.81,247.523 1112.43,247.344 1112.03,247.358C1111.41,247.38 1107.89,248.278 1107.22,248.54C1104.61,249.564 1101.42,249.651 1098.67,250.186C1097.95,250.325 1097.01,250.756 1096.28,250.844C1095.55,250.932 1094.41,250.395 1094.12,251.326C1093.44,251.371 1092.64,251.139 1091.98,251.284C1091.7,251.344 1091.66,251.577 1091.51,251.649C1091.19,251.801 1090.71,251.621 1090.43,252.031L1090.22,251.832C1089.51,251.986 1088.78,252.108 1088.08,251.994C1087.89,252.842 1086.91,252.34 1086.4,252.382C1086.24,252.395 1086.12,252.561 1085.91,252.581C1085.05,252.659 1084.48,252.512 1083.47,252.771C1082.86,252.927 1078.02,254.496 1077.63,254.587C1077.37,254.647 1077.1,254.47 1076.78,254.575C1076.59,254.637 1076.5,254.91 1076.32,254.956C1075.62,255.147 1074.95,255.342 1074.25,255.587C1074.15,255.62 1074,255.531 1073.9,255.565C1073.71,255.626 1073.69,255.918 1073.52,256.014C1073.45,256.049 1072.61,256.268 1072.51,256.278C1072.16,256.312 1071.57,255.91 1071.17,255.913L1070.68,254.328C1070.48,254.048 1070.22,254.37 1070.04,254.42C1069.92,254.451 1069.79,254.376 1069.7,254.411C1069.3,254.583 1069.61,255.194 1069.6,255.431C1069.59,256.008 1067.64,256.214 1067.35,256.398C1067.19,256.496 1067.05,257.295 1066.46,257.37L1065.74,256.609L1060.87,257.95C1060.62,257.959 1060.36,257.98 1060.11,257.96C1059.8,257.936 1059.21,257.695 1059.06,257.701C1058.86,257.709 1058.28,258.738 1058.29,257.873C1058.29,257.465 1055.63,258.167 1055.63,258.167L1056.24,259.197L1055.21,259.531L1055.62,258.913C1055.28,259.176 1054.87,258.777 1054.65,258.843C1054.32,258.949 1054.62,259.749 1054.43,259.863C1053.77,260.169 1053.02,259.774 1052.38,259.916C1052.1,259.98 1052.13,260.259 1051.96,260.319C1051.81,260.37 1050.76,260.59 1050.64,260.571C1050.46,260.542 1050.34,260.37 1050.12,260.376C1049.87,260.383 1049.74,260.639 1049.41,260.612C1049.31,260.603 1045.37,260.005 1045.65,260.921C1044.86,261.099 1043.9,260.854 1043.33,261.504L1042.92,261.306C1042.65,261.479 1042.89,261.669 1042.87,261.912C1042.85,261.947 1042.07,262.025 1042.01,262.012C1041.86,261.98 1041.77,261.764 1041.69,261.766C1041.62,261.767 1041.55,261.943 1041.38,261.96C1041.3,261.967 1041.39,261.642 1041.12,261.762L1041.23,262.061C1040.95,261.978 1040.64,262.284 1040.45,262.283C1040.4,262.282 1039.61,262.138 1039.43,262.11C1039.21,262.076 1039.09,261.885 1038.89,261.844C1038.06,261.679 1037.96,262.409 1037.77,262.459C1037.65,262.489 1037.44,262.288 1037.26,262.277C1037.22,262.274 1036.48,262.334 1036.44,262.343C1036.24,262.387 1036.19,262.808 1035.81,262.906C1035.57,262.964 1034.9,263.067 1034.94,262.759L1034.75,262.756C1034.74,262.884 1034.71,262.985 1034.58,263.045C1034.22,263.204 1032.78,263.397 1032.33,263.436C1030.51,263.597 1028.48,263.462 1026.78,263.649C1026.34,263.697 1026.22,263.749 1025.84,263.817C1025.07,263.958 1024.97,263.744 1024.41,263.36L1023.69,263.782L1019.32,264.011C1019.57,263.081 1018.82,263.253 1018.63,264.036C1017.46,264.268 1016.33,264.067 1015.15,264.132L1014.89,263.986C1015.31,263.124 1012.54,263.968 1012.46,264.013L1008.46,264.225C1007.98,263.916 1007.31,262.641 1007.28,262.474L1007.59,261.88C1006.99,261.518 1006.72,261.412 1006.86,260.63L1006.35,260.91L1006.61,261.242L1006.55,261.5C1005.36,261.451 1005.86,261.864 1005.84,262.526C1005.83,262.85 1005.64,263.232 1005.74,263.596C1004.17,263.803 1002.68,263.585 1001.14,263.432C1000.95,263.414 1000.77,263.538 1000.65,263.519C1000.58,263.507 1000.22,263.207 999.966,263.219L999.763,262.454C999.657,262.381 998.758,263.258 998.475,263.304C998.262,263.339 998.058,263.21 997.858,263.212C997.309,263.218 997.217,263.179 996.732,263.144C996.154,263.103 995.282,263.531 994.933,262.845C994.64,262.669 993.87,263.65 993.491,262.989L992.931,262.758C992.626,263.184 991.299,262.328 990.813,262.51L990.813,262.105L990.196,262.122C989.999,261.71 990.291,261.337 990.292,261.074C990.293,260.866 989.971,260.016 990.087,259.901C990.208,259.907 990.309,259.84 990.403,259.955C990.875,260.529 991.971,259.512 991.067,260.075L990.91,259.829C991.294,259.266 991.877,259.388 992.454,259.279C992.844,258.831 992.064,258.964 992.292,258.519C992.426,258.258 992.815,258.299 993.066,258.296C992.668,257.928 993.122,257.403 993.043,257.056C993.004,256.885 992.687,256.669 992.748,256.388C991.626,256.331 990.979,257.556 990.241,258.079C990.086,258.189 989.861,258.169 989.771,258.239C989.642,258.339 989.672,258.85 989.269,258.961L989.675,259.81C989.211,259.957 988.572,260.274 988.298,260.667C988.2,260.808 988.249,261.052 988.095,261.184C987.887,261.362 987.504,261.238 987.425,261.304C987.377,261.344 987.398,261.701 987.291,261.783C987.199,261.855 986.501,261.942 986.335,261.939C986.037,261.935 985.57,261.718 985.424,261.748C985.315,261.77 985.381,262.129 984.897,262.08C984.464,262.035 984.822,261.339 984.26,261.307C983.919,261.289 983.824,261.614 983.718,261.864L983.561,261.916C983.404,261.882 983.302,261.751 983.141,261.726C982.061,261.555 981.512,261.332 980.379,261.293C980.024,261.281 974.668,260.478 972.593,260.057C972.382,260.014 971.012,259.652 970.947,259.597C970.813,259.488 970.844,259.296 970.844,259.143C970.545,259.063 970.354,259.369 970.101,259.352C969.898,259.338 968.678,258.931 968.526,258.809C968.402,258.71 968.356,258.465 968.202,258.42C968.056,258.378 967.606,258.538 967.309,258.528C965.882,258.481 963.256,257.634 961.864,257.152C961.142,256.902 959.487,256.056 958.929,255.968C958.486,255.897 958.222,256.137 957.687,256.015C956.286,255.694 957.019,245.01 957.385,244.66C957.737,244.575 958.024,245.634 958.106,245.759C958.171,245.86 958.352,245.735 958.518,245.83C958.692,245.93 960.227,247.456 960.277,247.605C960.372,248.704 959.997,249.855 960.175,250.955L967.284,253.275L967.435,253.273C967.651,252.039 968.216,252.886 968.674,253.182C968.834,253.285 969.018,253.299 969.177,253.381C969.521,253.559 969.597,253.875 970.215,253.697L970.216,254.103C970.608,254.191 970.511,253.847 970.794,253.694C971.738,254.063 972.536,254.153 973.509,253.756L973.561,253.496C971.844,252.904 973.275,250.401 974.49,252.05C975.018,251.75 974.188,249.672 974.424,250.135L972.881,250.281C973.042,249.444 973.106,248.61 972.712,247.867C972.712,247.867 962.068,244.837 961.069,244.578C960.689,244.63 960.715,245.013 960.213,244.882L960.213,244.475L959.535,244.398C959.452,244.283 959.638,244.093 959.548,243.892C959.496,243.777 958.426,242.605 958.326,242.624L957.842,242.824C957.774,242.489 956.824,198.09 957.22,197.513C957.351,197.505 958.903,197.782 959.376,198.055C959.696,197.213 960.331,198.06 960.619,198.175C960.758,198.23 961.117,198.084 961.314,198.327C961.386,198.557 962.728,199.393 962.728,199.393L962.989,199.724L962.68,200.137C963.007,200.598 963.679,200.2 964.118,200.046C963.974,200.401 964.202,201.107 964.676,200.93C964.738,200.907 964.994,200.39 965.251,200.62C965.464,200.811 964.942,201.056 964.936,201.092C964.865,201.515 965.902,201.89 966.282,201.803C966.415,201.676 965.746,201.168 966.386,200.842C967.036,200.51 967.108,201.697 967.544,201.896C967.988,202.099 968.006,201.678 968.399,201.547C968.902,201.38 969.027,201.608 969.321,201.612C969.519,201.615 969.678,201.472 969.905,201.516C970.014,201.537 970.844,201.948 970.912,202.025C971.182,202.33 970.876,202.959 971.271,202.979C971.812,203.007 971.566,203.043 972.212,202.953C973.105,202.83 973.591,203.502 974.065,204.105L975.592,203.348C975.86,203.979 976.243,203.669 976.781,203.625C976.604,204.216 976.661,204.688 977.409,204.474C977.526,203.629 977.748,204.278 978.325,203.984L978.435,204.685C979.474,204.268 984.786,205.362 985.164,205.299C985.645,205.218 991.267,206.253 991.327,206.241C991.364,206.233 991.528,205.905 991.969,205.928C992.461,205.954 992.882,206.485 993.353,206.281C993.181,206.406 992.66,206.924 993.099,206.997C993.168,207.008 994.227,206.476 994.376,206.393C994.49,206.329 994.468,206.096 994.75,206.07C994.851,206.06 995.347,206.101 995.438,206.124C995.505,206.142 995.67,206.459 996,206.487C996.438,206.524 997.015,206.244 997.334,206.184C997.455,206.161 997.577,206.336 997.729,206.353C998.092,206.395 998.456,206.206 998.701,206.581C998.261,206.686 999.484,207.207 999.217,206.415C1000.46,205.979 1000.9,206.581 1000.97,206.263C1001.56,206.334 1004.39,206.278 1004.67,206.513C1004.79,206.612 1005.91,207.253 1006.28,207.128C1006.87,206.928 1008.58,207.053 1008.58,207.053C1008.62,207.013 1009.93,206.903 1010.38,206.89C1011.01,206.873 1015.62,207.197 1015.88,207.404C1016.06,207.541 1015.97,207.738 1016.35,207.75C1016.89,207.768 1017.55,207.512 1018,207.484C1019.28,207.403 1020.89,207.803 1022.21,207.776C1023.32,207.753 1024.59,207.561 1025.7,207.476C1026.29,207.48 1026.36,208.014 1026.55,208.047C1027.24,207.458 1027.49,207.168 1028.49,207.293C1028.71,207.321 1029.06,207.557 1029.21,207.535C1029.35,207.516 1029.45,207.212 1029.73,207.151C1031.21,206.828 1033.58,206.925 1035.18,206.793C1038.58,206.513 1041.97,205.748 1045.26,205.486C1045.67,205.452 1046.14,205.434 1046.55,205.491C1046.73,205.61 1046.52,206.212 1046.96,206.143L1046.97,205.5L1047.12,205.344C1047.5,205.435 1048.28,205.156 1048.54,205.182C1048.61,205.189 1048.59,205.376 1048.67,205.39C1049.18,205.485 1049.53,204.713 1050.04,204.74C1050.17,204.858 1049.48,205.41 1049.88,205.348C1050.24,205.294 1050.62,205.149 1050.95,205.003L1050.97,204.713L1050.45,204.726C1050.23,204.583 1051.83,204.333 1052.02,204.377C1052.12,204.4 1052.14,204.597 1052.26,204.664C1052.62,204.878 1054.13,204.76 1054.31,204.307C1054.4,204.104 1054.25,203.966 1054.27,203.865C1054.33,203.603 1056.07,203.26 1056.31,203.699C1056.42,203.904 1055.95,203.861 1055.9,204.009C1055.73,204.491 1056.19,204.101 1056.28,204.081C1056.83,203.96 1064.43,202.262 1064.81,202.217C1065.4,202.146 1065.14,202.267 1065.77,202.003C1066.17,201.836 1068.53,200.342 1068.86,200.655C1068.91,200.71 1068.68,201.395 1069.42,201.341C1069.61,201.327 1069.79,201.172 1069.96,201.15C1071.82,200.912 1074.74,200.517 1076.34,199.855C1076.51,199.785 1076.75,199.805 1076.92,199.723C1076.88,198.766 1077.72,199.395 1077.81,198.572L1078.01,198.641C1078.03,198.732 1077.95,198.962 1078.16,198.864C1078.41,198.749 1078.26,198.348 1078.33,198.266C1078.35,198.239 1078.91,198.051 1078.99,198.036C1079.08,198.021 1079.16,198.024 1079.24,198.025L1078.95,198.505L1079.04,198.793C1079.58,198.941 1079.78,198.372 1080.38,198.541C1080.52,198.579 1082.45,200.685 1082.23,199.308C1082.19,199.021 1081.58,198.77 1081.82,198.607C1082.23,198.321 1082.79,198.402 1083.2,198.31C1083.36,198.274 1083.46,198.139 1083.62,198.104C1083.98,198.026 1084.56,198.217 1084.7,197.711L1084.54,197.263C1084.63,197.143 1085.96,196.373 1086.11,196.331C1086.74,196.154 1087.32,196.029 1087.94,195.855C1088.21,195.778 1089.55,195.38 1089.63,195.752C1089.63,195.924 1089.02,196.369 1089.47,196.411L1090.21,195.691C1090.86,196.32 1092.11,195.656 1092.77,195.205C1093.06,195.008 1093.14,194.799 1093.3,194.679C1093.65,194.421 1095.65,194.19 1096.24,194.068C1097.9,193.722 1099.57,193.05 1101.2,192.843C1103.02,192.614 1104.57,192.379 1106.33,192.067C1106.81,191.982 1107.69,191.764 1108.09,191.731C1108.71,191.68 1118.46,189.954 1118.68,189.902C1120.18,189.553 1122.43,189.607 1124.03,189.44C1125.85,189.25 1127.82,188.855 1129.58,188.774C1129.99,188.756 1130.18,188.43 1130.41,188.952L1130.56,188.948C1130.32,188.589 1131.67,188.328 1131.87,188.324C1132.08,188.321 1132.12,188.574 1132.34,188.572C1132.63,188.569 1133.1,188.259 1133.41,188.181C1134.31,187.96 1135.33,187.918 1136.25,187.751C1136.37,187.73 1136.48,187.635 1136.58,187.562C1136.72,188.157 1137.47,188.168 1138,188.003C1138.17,187.947 1138.32,187.65 1138.55,187.624C1138.95,187.578 1139.99,188.355 1139.92,187.26C1140.33,187.501 1140.57,187.222 1140.95,187.13C1141.02,187.312 1140.77,187.385 1140.76,187.504C1140.68,187.97 1141.35,187.555 1141.41,187.558C1141.72,187.572 1141.93,187.602 1142.33,187.605C1143,187.61 1144.09,187.812 1144.71,187.733C1145.08,187.685 1145.24,187.404 1145.53,187.393C1145.93,187.378 1146.91,187.711 1147.49,187.654C1147.73,187.63 1147.69,187.366 1147.81,187.333C1148.29,187.202 1150.34,187.24 1150.99,187.239C1151.66,187.237 1152.47,187.366 1153.15,187.373C1153.38,187.376 1153.6,187.226 1153.86,187.259C1154.09,187.288 1154.18,187.56 1154.37,187.552C1154.49,187.547 1155.31,187.157 1155.51,187.15C1155.62,187.146 1156.08,187.33 1156.35,187.349C1156.7,187.374 1157.15,187.265 1157.45,187.268C1157.98,187.273 1158.59,187.408 1159.16,187.311L1159.83,187.394C1159.83,187.394 1161.1,187.837 1161.78,187.432C1162.26,187.147 1162.38,187.5 1162.7,187.499C1162.86,187.499 1163.03,187.373 1163.22,187.391C1163.4,187.408 1165.14,187.591 1166.21,187.308C1167.17,187.055 1168.09,187.565 1168.88,187.541C1169.13,187.534 1169.3,187.342 1169.51,187.314C1169.82,187.274 1170.25,187.475 1170.55,187.456C1170.74,187.443 1170.87,187.3 1171.05,187.275C1171.93,187.15 1171.88,187.441 1172.51,187.605C1172.84,187.69 1173.32,187.694 1173.67,187.698L1173.68,188.19C1173.9,188.278 1174.15,188.391 1174.28,188.122L1174.23,187.583C1174.63,187.015 1175.11,187.714 1175.48,187.749C1175.7,187.771 1175.97,187.631 1176.27,187.632C1176.84,187.634 1186.43,188.635 1186.8,188.637L1187.1,188.932C1187.45,188.614 1187.62,188.804 1187.92,188.784C1189.72,188.665 1191.71,189.43 1193.4,189.835C1194,189.977 1194.78,189.767 1195.03,190.52L1195.23,190.109C1195.4,190.106 1195.46,190.285 1195.65,190.303C1195.88,190.327 1196.15,190.128 1196.35,190.187C1196.48,190.227 1196.47,190.451 1196.59,190.476C1196.7,190.499 1196.86,190.438 1196.97,190.471C1197.58,190.661 1198.23,190.892 1198.89,190.766C1199.1,189.865 1199.4,190.758 1199.6,190.85C1199.76,190.921 1199.92,190.761 1200.05,190.772C1200.13,190.78 1200.16,191.056 1200.42,191.13C1200.79,191.239 1201.25,191.098 1201.68,191.266C1201.92,191.359 1202.09,191.603 1202.36,191.694C1202.71,191.808 1203.25,191.732 1203.51,191.844C1203.64,191.898 1203.73,192.125 1203.9,192.17C1204.16,192.238 1204.43,192.059 1204.7,192.053C1205.31,192.039 1208.12,192.761 1208.76,193.009C1209.06,193.124 1209.47,193.504 1209.56,193.524C1209.75,193.566 1210.16,193.352 1210.55,193.43C1210.86,193.494 1211.56,193.888 1211.82,193.96C1212.08,194.028 1212.41,193.929 1212.7,193.978C1212.97,194.023 1214.86,194.526 1214.92,194.618C1214.99,194.716 1214.89,195.003 1215.1,195.098C1215.65,194.611 1215.65,194.887 1216.15,194.944C1216.78,195.016 1217.76,195.302 1218.19,195.32C1218.67,195.34 1218.97,195.022 1219.5,195.095C1219.95,195.157 1219.76,195.515 1220.04,195.766C1220.65,195.293 1221.37,195.774 1222,195.906C1223.23,196.163 1224.4,196.485 1225.63,196.788C1226.45,196.99 1227.37,197.02 1228.22,197.298C1229.37,197.671 1230.53,198.625 1231.82,198.26L1231.98,198.657C1232.16,198.637 1232.29,198.462 1232.47,198.465C1232.74,198.468 1233.76,198.902 1234.37,199.129C1234.69,198.361 1235.31,199.18 1235.6,199.293C1235.73,199.348 1236.09,199.202 1236.29,199.445C1236.36,199.675 1252.72,205.396 1253.3,205.102L1253.41,205.803C1254.45,205.386 1254.82,207.091 1255.42,207.168C1255.6,207.19 1256.41,207.024 1256.54,206.925C1256.74,206.778 1256.66,206.576 1256.76,206.425C1256.98,206.076 1257.83,205.834 1258.14,206.126C1257.76,206.521 1257.66,207.603 1258.35,206.935C1258.48,206.814 1258.6,206.51 1258.72,206.482C1258.8,206.462 1258.94,206.557 1259.09,206.529C1259.52,206.452 1259.76,206.48 1260.14,206.417C1260.62,206.336 1260.99,205.743 1261.55,206.224C1261.55,206.224 1263.5,206.973 1263.67,207.011C1263.79,207.039 1263.94,206.93 1264.11,206.959ZM1204.87,244.408C1204.78,244.523 1204.72,244.732 1204.79,244.857C1204.85,244.942 1205.19,245.107 1205.35,244.97C1205.62,244.729 1205.42,244.533 1205.39,244.252C1205.71,244.373 1205.69,244.845 1206.11,244.737C1206.07,244.357 1206.06,244.246 1206.42,244.07C1206.34,243.958 1206.31,243.958 1206.18,243.953C1206.1,243.95 1205.6,243.952 1205.57,243.96C1205.52,243.97 1204.89,244.376 1204.87,244.408ZM1039.63,258.972C1039.3,259.051 1039.6,260.175 1040.09,259.969C1040.19,259.74 1039.96,258.889 1039.63,258.972ZM1114.88,235.239C1114.5,235.146 1114.49,235.609 1114.52,235.856C1114.9,235.982 1115.25,235.329 1114.88,235.239ZM1010.44,212.704C1010.55,212.126 1009.52,213.097 1009.52,213.097L1010.44,212.704ZM970.122,257.898C970.254,258.31 971.58,257.781 971.251,257.21C971.153,257.114 969.999,257.513 970.122,257.898ZM1262.62,259.048C1263.19,258.921 1263.05,258.086 1262.84,258.048C1262.33,258.182 1261.77,259.235 1262.62,259.048ZM1263.47,258.698C1263.08,259.074 1262.79,259.703 1263.03,259.64C1263.28,259.577 1263.48,259.279 1263.57,259.272C1263.63,259.267 1263.82,259.509 1264.01,259.309L1264.09,258.619L1263.67,258.436C1263.59,258.459 1263.55,258.628 1263.47,258.698ZM1049.76,258.274C1049.66,258.637 1050.61,258.719 1050.68,258.65C1050.76,258.068 1050.12,258.287 1049.76,258.274ZM991.57,255.308C991.391,255.708 991.696,255.962 992.032,255.748C992.131,255.685 993.077,254.529 993.049,254.412C992.98,254.297 992.8,254.189 992.672,254.174C992.435,254.147 991.668,255.089 991.57,255.308ZM1011.43,260.337C1011.25,260.506 1011.54,261.593 1012,261.332C1012.54,261.025 1012.2,260.713 1012.23,260.344C1012.25,260.078 1012.64,259.738 1012.16,259.667C1011.95,259.927 1011.67,260.115 1011.43,260.337ZM994.396,258.806C994.196,258.97 996.182,258.841 995.715,258.726C995.608,258.7 995.553,258.405 995.334,258.428L995.43,258.175L999.446,258.619L999.29,258.927L998.893,258.741C998.565,258.945 1001.17,259.556 1001.47,258.873L1003.19,258.927C1003.74,259.323 1006.03,259.338 1006.03,259.338C1007.3,259.149 1006.92,259.663 1007.08,260.507C1007.42,260.624 1007.87,260.399 1008.15,260.402C1008.43,260.406 1008.73,260.786 1009.03,260.424C1009.14,260.28 1009.15,260.08 1009.12,259.911C1008.99,259.201 1008.46,259.933 1008.19,259.78C1008.3,259.593 1008.23,259.449 1007.99,259.484L1007.94,259.786L1007.37,259.601C1007.27,259.26 1007.86,259.216 1007.89,259.121L1007.88,257.565C1007.44,257.491 1007.36,258.066 1006.96,258.096C1007.04,257.715 1006.99,256.321 1007.33,256.182C1008.09,256.09 1008.78,255.922 1009.38,255.402C1009.54,255.361 1009.64,255.632 1009.8,255.674C1010.25,255.796 1010.52,255.11 1010.83,255.072C1011.19,255.027 1011.67,255.12 1012.09,254.96C1012.27,255.068 1012.08,255.788 1012,255.986C1011.72,256.193 1011.03,255.775 1010.83,255.781C1010.46,255.794 1009.93,256.302 1010.04,256.693C1009.61,256.552 1009.03,256.634 1009.47,257.117L1009.37,257.32C1009.15,257.101 1008.86,257.24 1008.71,257.188C1008.53,257.13 1008.46,256.728 1008.19,257.1C1008.21,257.305 1009.25,257.667 1009.46,257.627C1009.54,257.61 1009.55,257.413 1009.7,257.331C1009.85,257.25 1010.17,257.216 1010.35,257.19C1009.97,257.425 1010.03,257.645 1009.88,257.902C1009.8,258.035 1009.24,258.62 1009.69,258.726C1009.94,258.787 1010.34,258.27 1010.57,258.155C1011.05,257.913 1011.32,258.017 1011.79,258.161C1011.86,258.867 1010.7,258.591 1010.87,259.4L1011.44,259.176L1011.75,259.479C1012.31,259.351 1013.33,259.228 1013.88,259.334C1014.2,259.396 1014.3,259.681 1014.47,259.75C1014.69,259.838 1014.91,259.751 1015.12,259.802C1015.37,259.867 1015.5,260.295 1016.06,260.255C1017,260.187 1016.58,259.352 1016.9,259.239L1018.69,259.174C1018.48,259.792 1018.6,259.989 1019.25,259.973C1020.21,259.951 1019.62,259.4 1019.92,259.181C1020.42,259.09 1021.46,258.898 1021.33,259.66C1021.32,259.722 1021.88,259.082 1021.88,259.082C1023.26,259.147 1024.62,259.072 1026,258.917C1026.2,258.773 1026.05,257.723 1026.1,257.395C1026.21,256.639 1026.34,255.65 1026.37,254.852C1026.38,254.552 1026.2,254.103 1026.28,253.749C1026.74,253.678 1026.7,253.16 1027.01,252.812C1026.57,252.343 1026.53,253.071 1026.18,253.238C1025.8,253.422 1025.59,253.225 1025.36,252.96L1026.08,252.635C1026.08,252.635 1025.76,252.391 1025.72,252.393C1025.36,252.403 1024.43,252.359 1024.17,252.437C1023.7,252.584 1024.03,253.146 1024.33,253.293C1024.33,253.524 1012.57,253.294 1012.57,253.294C1012.15,253.415 1012.36,254.269 1012.13,254.31C1011.37,254.032 1010.53,254.131 1009.73,254.127C1009.35,253.96 1009.68,253.284 1009.35,253.182L1009.01,253.187C1008.87,253.602 1008.93,253.689 1009.21,253.983C1009.14,254.031 1008.46,253.969 1008.36,253.91C1008.24,253.843 1008.28,253.662 1008.18,253.562C1007.47,252.862 994.579,251.925 993.97,252.142C993.781,252.281 993.903,254.471 993.88,254.883C993.829,255.787 993.654,256.723 993.494,257.618C993.587,258.014 995.125,257.78 995.129,258.286C995.132,258.634 994.619,258.623 994.396,258.806ZM1011.43,257.26C1012.27,257.146 1011.11,258.267 1010.97,257.476C1011.14,257.468 1011.27,257.282 1011.43,257.26ZM1060.96,254.913C1060.79,255.89 1061.79,255.471 1061.43,254.993L1060.96,254.913ZM1104.86,242.004C1103.85,241.724 1104,242.863 1104.9,242.319C1105.42,242.975 1105.6,243.04 1106.46,242.968C1109.4,242.724 1112.97,241.825 1115.94,241.293C1117.26,241.057 1118.27,241.135 1119.52,240.468C1120.43,239.987 1120.02,239.756 1120.31,238.997C1120.41,238.749 1120.6,238.624 1120.67,238.433C1120.81,238.101 1120.84,236.65 1120.9,236.581C1121.92,236.968 1122.82,235.633 1121.31,236.266C1121.29,236.053 1121.51,235.444 1121.57,235.354C1121.65,235.221 1121.91,235.195 1121.99,234.936C1122.09,234.559 1121.83,233.255 1122.65,234.361L1122.8,234.403C1122.85,234.403 1123.47,234.118 1123.51,234.086C1123.62,233.983 1123.52,233.798 1123.63,233.764C1124,233.649 1124.65,233.98 1125.11,233.728C1125.23,233.84 1124.86,234.581 1124.84,234.715C1124.79,235.057 1124.95,235.845 1124.92,236.318C1124.87,237.038 1124.49,238.915 1124.81,239.459C1125,239.77 1125.62,240.079 1125.99,240.068C1127.03,240.036 1128.41,239.681 1129.5,239.572C1132.2,239.301 1134.9,239.12 1137.6,238.906L1138.11,238.587C1138.35,237.591 1139.13,236.479 1139.22,235.498C1139.25,235.091 1139.28,233.39 1139.19,233.088C1139.12,232.881 1138.58,232.45 1138.33,232.44C1136.07,232.418 1133.79,232.4 1131.54,232.632C1129.48,232.845 1127.44,233.388 1125.37,233.62C1124.88,233.537 1125.42,233.023 1124.7,232.88C1124.21,232.781 1124.03,232.955 1123.62,232.965C1123.1,232.976 1121.82,232.278 1121.67,232.317C1121.56,232.345 1121.06,235.024 1120.75,235.045C1120.36,235.072 1119.93,234.247 1119.62,234.287C1119.07,234.358 1119.46,234.907 1119.15,235.06C1116.86,235.872 1114.48,236.344 1112.09,236.723C1110.63,236.955 1109.14,237.054 1107.68,237.269C1107.24,237.335 1105.53,237.556 1105.27,237.693C1105.14,237.754 1105.08,237.876 1105.06,238.005L1104.86,242.004ZM1117.41,241.693C1117.29,241.279 1116.47,241.766 1116.7,242.066C1116.82,242.223 1117.54,242.092 1117.41,241.693ZM1118.28,243.141C1117.85,243.014 1117.58,243.655 1117.83,243.809C1118.4,244.164 1118.69,243.261 1118.28,243.141ZM1137.32,200.802C1136.83,200.731 1136.72,202.558 1137.18,202.214L1137.28,201.609L1137.79,201.589C1137.91,201.346 1137.5,200.829 1137.32,200.802ZM1135.06,202.79C1134.39,202.599 1134.15,203.541 1134.78,203.688C1135.21,203.787 1135.4,202.889 1135.06,202.79ZM1180.32,232.325C1180.93,232.264 1180.85,231.078 1180.55,230.922C1180.04,230.658 1179.74,232.138 1180.32,232.325ZM1181.5,238.727C1181.51,239.149 1182.07,239.265 1182.41,239.326C1186.03,239.97 1189.91,240.052 1193.51,240.943C1194.1,240.765 1195.08,240.774 1195.19,240.039C1195.33,239.119 1195.35,236.806 1194.96,236.021C1194.85,235.803 1194.46,235.335 1194.25,235.222C1193.63,234.896 1191.75,234.787 1190.94,234.626C1188.76,234.192 1185.9,233.815 1183.86,233.191C1183.65,233.128 1183.46,232.887 1183.27,232.864C1183.14,232.849 1181.72,233.646 1181.62,233.882L1181.5,238.727ZM1194.7,202.524C1194.84,202.572 1195.16,203.048 1195.52,202.951C1195.6,202.277 1195.06,202.304 1194.69,202.111C1194.54,202.029 1194.52,201.837 1194.41,201.766C1194.02,201.531 1193.3,201.087 1193.26,201.835C1193.48,201.968 1193.75,202.346 1193.9,202.462C1194.22,202.706 1194.53,202.466 1194.7,202.524ZM1195.61,201.59C1195.73,201.669 1195.76,201.843 1195.88,201.929L1196.03,201.926C1195.99,201.526 1196.41,201.445 1196.64,201.148C1197.23,200.399 1197.92,195.281 1196.35,194.957C1192.56,194.178 1188.61,193.7 1184.74,193.16C1184.58,193.171 1183.63,193.666 1183.51,193.786C1183.21,194.065 1183.16,194.692 1183.05,194.773C1182.96,194.838 1182.68,194.646 1182.36,194.971C1182.19,195.151 1182.09,195.405 1182.12,195.65L1182.95,195.525C1183.18,196.441 1182.75,197.545 1183,198.461C1183.14,198.965 1183.63,199.503 1184.15,199.633C1185.63,200.007 1187.41,200.075 1188.95,200.336C1189.87,200.492 1190.77,200.744 1191.68,200.91C1192.38,201.038 1195.22,201.328 1195.61,201.59ZM1031.6,218.535C1032.03,218.841 1046,216.835 1046.15,215.822C1046.23,215.251 1046.3,213.472 1046.26,212.889C1046.22,212.339 1045.74,211.118 1045.22,210.901C1044.87,210.757 1043.36,211.209 1042.88,211.294C1042.02,211.446 1031.87,212.879 1031.87,212.879L1031.6,218.535ZM1025.6,261.719C1025.33,262.787 1026.56,261.823 1026.31,261.584L1025.6,261.719ZM1027.53,214.747C1027.54,214.315 1027.72,213.843 1027.63,213.382L1012.88,213.925L1012.71,214.168L1012.52,217.564C1012.02,217.416 1011.74,217.599 1011.31,217.673C1011.09,217.711 1010.67,217.519 1010.61,217.915C1010.55,218.256 1010.87,218.364 1010.36,218.588C1010.34,218.801 1011.37,218.875 1010.98,218.216L1011.28,218.206C1011.1,218.98 1012.84,219.246 1012.42,218.377C1012.65,218.182 1013.24,219.099 1013.5,219.257C1013.76,219.413 1014.06,219.378 1014.27,219.587L1013.55,219.913C1013.85,220.581 1014.72,220.069 1015.25,220.108C1015.57,220.132 1015.79,220.38 1016.18,220.395C1016.46,220.406 1016.69,220.289 1016.9,220.29C1017.31,220.293 1018.34,220.484 1018.65,220.229C1019.19,219.661 1018.14,219.678 1018.64,219.209C1018.64,219.209 1027.15,218.999 1027.46,218.218C1027.69,217.64 1027.5,215.534 1027.53,214.747ZM1017.05,219.153C1016.95,219.724 1016.1,219.487 1015.76,219.489C1015.4,219.49 1015.1,219.799 1014.89,219.318L1017.05,219.153ZM1026.62,255.031C1027.1,255.923 1027.76,255.332 1027.42,254.468C1027.21,254.442 1026.87,254.559 1026.73,254.721C1026.66,254.812 1026.62,254.913 1026.62,255.031ZM991.013,216.973L991.286,217.58C992.242,217.355 991.874,216.788 991.013,216.973ZM1045.06,254.662C1044.78,255.099 1046.07,255.874 1046.16,254.846C1046.28,254.753 1046.67,254.988 1046.95,254.849C1047.08,254.782 1047.19,254.31 1047.58,254.239L1047.32,253.899C1047.12,253.86 1046.73,254.28 1046.5,254.32C1046.21,254.37 1045.95,254.194 1045.71,254.26C1045.66,254.273 1045.08,254.63 1045.06,254.662ZM1070.01,251.918C1069.72,252.545 1070.43,253.329 1071.08,253.089C1071.2,253.045 1071.21,252.882 1071.28,252.827C1071.38,252.753 1071.62,252.758 1071.66,252.626C1071.82,252.109 1070.34,252.086 1070.01,251.918ZM1029.48,254.711C1029.26,254.761 1029.84,255.084 1030.26,255.289L1030.2,256.404L1029.69,256.578L1030.2,256.718C1030.25,257.302 1029.86,257.978 1030.31,258.484L1036.07,257.962C1035.9,258.575 1035.93,259.155 1035.36,259.551L1035.77,259.794L1035.61,260.203C1035.72,260.436 1037.38,260.787 1037.52,260.651C1037.52,260.268 1037.27,259.943 1037,259.704C1036.9,259.462 1037.48,259.588 1037.41,259.29C1037.34,258.969 1036.65,259.319 1036.59,259.261C1036.52,258.754 1036.95,258.447 1036.69,257.944C1036.83,257.939 1036.99,257.952 1037.13,257.907C1038.16,257.579 1039.17,257.6 1040.24,257.434C1040.85,257.339 1043.09,257.039 1043.42,256.73C1043.6,256.557 1043.75,256.093 1043.92,255.943C1044.03,255.84 1044.28,255.822 1044.36,255.699C1044.4,255.635 1044.28,254.502 1044.29,254.228C1044.32,253.48 1044.48,252.677 1044.39,251.901L1043.56,250.916C1041.62,250.867 1031.29,252.519 1030.31,252.775L1030.36,254.286C1030.22,254.512 1029.62,254.14 1029.38,254.21L1029.48,254.711ZM1132.57,199.135C1132.36,199.36 1132.4,199.804 1132.78,199.696C1133.32,199.544 1132.91,198.757 1132.57,199.135ZM1139.07,197.605C1139.8,197.489 1140.16,197.092 1140.52,196.466C1140.59,196.343 1141.04,195.415 1141.05,195.355C1141.08,195.211 1140.88,195.045 1140.86,194.864C1140.82,194.493 1141.01,193.962 1140.81,193.51C1140.72,193.31 1139.3,192.514 1139.04,192.469C1138.56,192.388 1137.73,192.479 1137.2,192.495C1137.04,192.5 1136.79,192.617 1136.7,192.598C1136.5,192.557 1136.58,192.102 1135.97,192.12C1135.37,192.137 1135.59,192.418 1135.36,192.656C1135.16,192.864 1133.8,192.774 1133.4,192.808C1132.72,192.866 1132.02,193.01 1131.34,193.073C1129.96,193.203 1127.8,193.116 1126.63,193.932C1126.12,194.284 1126.4,194.725 1126.37,195.193C1126.31,196.067 1126.26,196.951 1126.16,197.823C1126.27,198.429 1126.91,198.527 1127.44,198.553C1128.21,198.592 1131.58,198.062 1131.9,198.24C1132.15,198.376 1132.1,198.924 1132.5,198.113C1132.99,197.93 1133.89,198.203 1134.33,198.148C1134.57,198.118 1134.76,197.878 1135.06,197.918C1135.31,197.951 1135.29,198.163 1135.43,198.26C1136.11,198.73 1135.98,197.963 1136.1,197.889C1136.41,197.704 1138.49,197.698 1139.07,197.605ZM1140.46,197.465C1140.48,197.663 1140.45,198.446 1140.82,198.364C1141.12,198.299 1140.81,197.626 1140.87,197.454L1140.46,197.465ZM1141.08,197.093C1141,197.484 1141.43,197.388 1141.6,197.577C1141.69,197.679 1141.69,197.874 1141.8,197.981C1142.18,198.337 1143.49,198.386 1144,198.464C1144.15,198.43 1144.22,198.162 1144.16,198.071C1144.14,198.041 1143.59,197.906 1143.45,197.824C1143.14,197.634 1143.02,197.431 1142.6,197.272C1142.36,197.183 1141.17,196.796 1141.08,197.093ZM1144.26,234.644C1144.15,236.034 1143.39,238.386 1145.44,238.506C1148.2,238.666 1151.56,238.283 1154.4,238.238C1155.38,238.222 1156.47,238.381 1157.49,238.259C1157.96,238.201 1158.92,237.613 1159.07,237.138C1159.38,236.149 1159.08,234.549 1159.37,233.494C1159.36,231.377 1156.43,231.883 1154.99,231.854C1153.96,231.834 1152.92,231.793 1151.88,231.768C1150.12,231.954 1147.74,231.601 1146.05,231.914C1145.47,232.021 1145.65,232.429 1145.38,232.583C1145.14,232.718 1144.63,232.661 1144.39,232.858C1144.12,233.093 1144.29,234.227 1144.26,234.644ZM1163.32,236.392C1163.48,237.34 1164.52,238.283 1165.45,238.483C1165.82,238.562 1165.95,238.408 1166.22,238.415C1169.33,238.49 1173.37,238.691 1176.48,238.921C1176.48,238.921 1176.82,238.047 1176.77,237.65C1176.59,236.391 1177.4,234.165 1176.66,233.196C1175.73,231.988 1174.65,232.41 1173.31,232.33C1170.65,232.17 1167.96,231.86 1165.29,231.851C1164.48,231.847 1163.98,232.136 1163.46,232.743L1163.32,236.392ZM1207.35,205.944C1207.65,205.253 1207.21,205.317 1206.63,205.362C1206.58,205.756 1207,205.978 1207.35,205.944ZM1212.11,204.423C1212.68,204.532 1214.2,205.095 1214.66,204.875C1214.89,204.762 1215.04,204.404 1215.07,204.158C1215.18,203.233 1215.16,201.967 1215.16,201.018C1215.16,200.848 1215.27,200.673 1215.27,200.505C1215.26,200.068 1214.86,199.835 1214.79,199.564C1214.75,199.375 1214.86,199.191 1214.86,199.001C1214.84,198.419 1209.94,197.691 1208.49,197.343C1206.83,196.945 1204.99,196.684 1203.45,196.06L1201.67,196.197L1201.74,196.6C1200.74,196.968 1201.05,197.9 1200.96,198.695C1200.86,199.613 1200.73,200.552 1200.59,201.468L1200.54,201.579C1199.56,201.519 1200.62,202.507 1200.66,202.144L1200.66,201.69L1201.17,202.029L1200.76,202.194C1200.72,202.239 1201.15,203.118 1201.2,203.168C1201.32,203.285 1201.69,203.289 1201.84,203.482C1202.08,203.798 1201.86,204.319 1202.56,204.261C1202.96,204.228 1203.05,204.03 1202.83,203.694C1202.59,203.339 1201.91,203.457 1202.1,202.761C1202.8,202.828 1203.51,202.872 1204.2,203.012C1206.72,203.527 1209.49,203.923 1212.11,204.423ZM1202.31,204.626C1201.86,205.014 1204.37,205.717 1204.14,205.409C1204.03,205.268 1203.94,204.934 1203.86,204.884C1203.73,204.808 1203.51,204.865 1203.34,204.797C1203.1,204.692 1202.84,204.163 1202.31,204.626ZM974.84,209.095C974.777,208.827 960.117,204.903 960.117,204.968L960.132,211.038C960.089,211.258 969.533,214.864 974.444,215.733C974.456,214.637 974.12,209.861 974.84,209.095ZM995.199,250.941C995.493,250.082 993.865,250.537 993.868,250.936C993.871,251.393 994.946,250.983 995.199,250.941ZM1017.26,260.539C1016.92,261.24 1017.66,261.983 1018.38,261.914L1017.26,260.539ZM986.532,257.78C986.328,258.115 985.009,261.046 986.023,260.828C986.555,260.714 987.261,259.611 987.513,259.672C987.551,259.176 986.618,257.778 986.532,257.78ZM1232.05,207.204C1232.1,206.66 1232.23,205.455 1232.14,204.982C1232.1,204.705 1231.28,203.52 1231.03,203.371C1230.26,202.912 1227.87,202.311 1226.87,202.014C1224.86,201.418 1222.8,200.929 1220.77,200.408C1219.92,200.758 1219.22,202.304 1219.27,202.378L1219.1,204.927L1220.45,206.5C1224.04,207.349 1227.46,208.645 1230.9,209.901C1231.93,209.964 1231.99,207.895 1232.05,207.204ZM1037.83,259.791L1038.03,260.637C1038.33,260.684 1038.62,260.491 1038.9,260.51C1039.22,260.532 1039.51,261.038 1039.73,260.586C1040.12,259.78 1038.77,260.218 1038.65,260.112L1038.85,259.552L1038.62,259.421L1037.83,259.791ZM1218.14,242.012C1218.23,242.989 1218.11,246.138 1218.77,246.754C1219.23,247.194 1221.01,247.398 1221.19,247.635C1221.4,247.891 1220.63,248.068 1220.88,248.557C1221.26,249.277 1221.83,247.878 1222.21,247.913C1224.33,248.308 1226.49,249.505 1228.57,249.888C1229.7,250.096 1230.36,250.008 1231.32,249.311C1231.36,249.258 1231.61,248.22 1231.63,248.087C1231.7,247.448 1231.74,245.898 1231.7,245.273C1231.68,245.086 1231.43,244.363 1231.29,244.24C1231.08,244.063 1230.57,244.015 1230.39,243.679C1230.68,243.487 1230.93,242.956 1230.41,242.938C1230.06,242.926 1230.08,243.25 1229.75,243.227C1229.25,243.193 1228.98,242.609 1228.78,242.577C1228.63,242.554 1228.44,242.799 1228.1,242.766C1227.81,242.739 1227.55,242.51 1227.3,242.451C1226.15,242.174 1224.98,241.88 1223.82,241.621C1222.69,241.368 1220.8,240.888 1219.7,240.821C1219.19,240.789 1218.38,241.56 1218.14,242.012ZM1033.61,260.41L1034.54,260.636C1034.61,259.656 1034.07,259.596 1033.61,260.41ZM1224.93,250.728C1224.94,250.872 1224.81,251.054 1224.86,251.211C1224.95,251.502 1225.73,251.313 1225.98,251.344C1225.86,251.062 1225.99,250.536 1225.94,250.33C1225.9,250.162 1225.31,249.192 1225.11,249.245C1224.98,249.433 1224.67,249.831 1224.64,250.026C1224.59,250.398 1224.9,250.506 1224.93,250.728ZM1262.01,218.92C1262.69,218.982 1261.84,212.346 1260.42,212.076L1260.08,211.97L1254.03,210.992L1253.74,215.865C1253.61,216.194 1253.68,216.542 1253.63,216.875C1253.61,217.058 1253.44,217.22 1253.46,217.375C1253.49,217.776 1254.05,217.801 1254.36,217.873C1256.81,218.43 1259.57,218.698 1262.01,218.92ZM1245.67,256.516C1246.03,256.613 1246.32,256.027 1245.84,255.921C1245.42,255.826 1245.31,256.419 1245.67,256.516ZM1250.91,256.057C1251.45,256.205 1251.49,255.522 1251.21,255.452C1250.86,255.365 1250.54,255.954 1250.91,256.057ZM1252.5,256.174L1258.26,257.17L1258.2,257.677C1258.38,257.86 1258.89,257.984 1258.98,257.691L1258.88,257.253C1259.28,257.138 1259.6,257.592 1259.86,257.629C1260.23,257.682 1260.64,257.428 1261.04,257.595C1260.89,257.891 1261.32,257.888 1261.72,257.689C1262.55,257.696 1263.34,258.212 1264.13,258.01C1263.77,258.902 1264.56,257.697 1264.02,257.767L1263.94,257.649C1263.88,255.888 1264.46,254.011 1263.91,252.302L1264.16,251.737C1263.94,251.697 1263.66,252.309 1263.34,252.369C1263.11,252.412 1262.05,252.231 1261.73,252.185C1259.86,251.923 1257.73,251.363 1255.88,250.916C1255.44,250.81 1252.86,249.977 1252.69,250.146L1252.5,256.174ZM1259.48,206.948L1258.65,206.814C1258.3,207.304 1258.11,208.134 1258.97,207.926L1259.48,206.948ZM1236.05,245.696C1235.66,245.748 1235.07,251.588 1235.15,252.073L1242.26,254.393L1242.41,254.391C1242.63,253.157 1243.19,254.004 1243.65,254.3C1243.81,254.403 1243.99,254.417 1244.15,254.499C1244.5,254.677 1244.57,254.993 1245.19,254.815L1245.19,255.221C1245.58,255.309 1245.49,254.965 1245.77,254.812C1246.71,255.181 1247.51,255.271 1248.49,254.874L1248.54,254.615C1246.82,254.022 1247.86,251.399 1247.86,251.399C1248.02,250.562 1248.08,249.728 1247.69,248.985L1241.13,247.425C1240.82,247.337 1241.07,247.094 1241.06,246.889C1241.03,246.346 1240.52,246.905 1240.37,246.934C1240.32,246.943 1239.46,246.899 1239.36,246.884C1238.39,246.725 1237.04,245.955 1236.05,245.696ZM1211.31,206.537C1211.18,206.828 1211.36,207.117 1211.58,207.296C1211.96,207.485 1212.15,206.93 1212.08,206.634C1211.88,206.596 1211.48,206.287 1211.31,206.537ZM968.851,204.195C968.816,203.935 968.648,202.915 968.384,202.863C967.789,203.12 966.982,203.782 967.795,204.277L968.141,203.875C968.503,203.76 968.242,204.302 968.502,204.369C968.655,204.408 968.785,204.34 968.851,204.195ZM1067.23,250.132C1067.22,250.602 1066.97,251.1 1067.25,251.579C1067.58,251.775 1068.88,251.163 1069.36,251.135C1069.63,251.118 1069.89,251.269 1070.14,251.191C1070.29,251.144 1070.4,250.916 1070.6,250.815C1071.41,250.404 1074.21,249.599 1075.25,249.286C1076.34,248.956 1077.62,248.685 1078.58,248.414C1079.23,248.229 1080.83,248.084 1081.15,247.54C1081.66,246.683 1081,244.149 1081.38,243.211C1081.44,243.041 1081.67,243.151 1081.61,242.933C1081.47,242.737 1081.27,242.779 1081.06,242.803C1079.69,242.963 1077.89,243.602 1076.49,243.91C1073.51,244.566 1070.52,245.14 1067.53,245.772C1067.37,245.884 1067.34,246.102 1067.32,246.278C1067.19,247.432 1067.26,248.943 1067.23,250.132ZM985.131,210.667C985.415,210.074 985.047,209.912 984.566,209.672C984.028,209.958 984.983,210.781 985.131,210.667ZM989.658,255.202C989.367,255.559 989.706,255.94 990.078,255.704L990.281,255.242L989.658,255.202ZM1174.75,191.402C1175.21,191.251 1174.92,190.523 1174.51,190.822C1174.37,190.926 1174.32,191.542 1174.75,191.402ZM1172.96,189.229C1173.64,189.543 1173.8,188.619 1173.05,188.628L1172.96,189.229ZM1169.55,242.812C1169.55,242.908 1169.16,243.239 1169.28,243.476C1169.77,243.536 1170.34,242.966 1169.71,242.713L1169.79,242.35C1169.08,242.375 1169.55,242.694 1169.55,242.812ZM1170.61,241.82C1170.56,242.11 1171.32,242.411 1171.43,242.301C1171.7,242.037 1170.85,241.663 1170.61,241.82ZM1072.69,254.877C1072.57,255.022 1072.57,255.822 1072.85,255.68C1073.1,255.469 1073.11,254.848 1072.69,254.877ZM990.023,210.626C990.425,210.73 990.691,210.037 990.207,209.927C989.753,209.825 989.775,210.562 990.023,210.626ZM975.939,254.939C976.471,255.087 976.512,254.404 976.231,254.334C975.887,254.247 975.567,254.836 975.939,254.939ZM972.163,204.254C972.782,204.386 973.005,203.525 972.498,203.248C972.005,203.419 971.958,203.841 972.163,204.254ZM1189.31,189.523C1189.19,189.402 1189,189.215 1188.82,189.196C1188.77,189.189 1188.72,189.179 1188.66,189.201C1187.8,189.791 1189.32,189.804 1189.31,189.523ZM1158,197.157C1158.76,197.169 1159.47,197.259 1160,196.644C1160.49,196.093 1160.21,196.066 1160.2,195.531C1160.19,194.698 1160.43,192.791 1159.61,192.38C1158.02,191.586 1156,192.092 1154.28,191.909C1154.05,191.885 1153.89,191.714 1153.77,191.717C1153.65,191.72 1153.49,191.9 1153.26,191.939C1152.81,192.014 1152.43,191.861 1152.02,191.864C1150.63,191.873 1148.96,191.865 1147.59,191.991C1146.72,192.072 1145.86,192.35 1145.23,192.977C1145.1,193.491 1145.24,194.03 1145.19,194.546C1145.16,194.769 1145.01,195.668 1144.96,195.846C1144.92,195.986 1144.16,196.868 1144.27,196.949C1144.69,197.089 1145.04,196.737 1145.34,196.706C1145.75,196.666 1146.08,196.955 1146.47,196.989C1148.63,197.18 1151.34,196.708 1153.58,196.777C1155.04,196.821 1156.53,197.135 1158,197.157ZM1097.94,194.38L1097.8,194.047C1096.81,194.509 1097.8,194.96 1097.94,194.38ZM1080.33,208.297C1081.62,207.605 1082.95,205.108 1082.37,203.727C1082.28,203.515 1081.47,202.777 1081.24,202.739C1080.97,202.694 1080.64,202.822 1080.37,202.878C1079.12,203.135 1077.75,203.617 1076.48,203.926C1073.94,204.546 1071.38,205.104 1068.83,205.725C1067.52,206.568 1067.87,208.129 1067.85,209.438C1067.85,209.681 1067.74,209.905 1067.74,210.141C1067.76,210.577 1068.37,211.683 1068.92,211.573C1071.26,211.008 1073.55,210.148 1075.85,209.483C1077.05,209.139 1079.35,208.822 1080.33,208.297ZM1082.14,245.137C1081.94,245.236 1081.92,245.925 1081.97,246.008C1082.21,246.365 1082.94,245.71 1082.83,245.495C1082.59,245.399 1082.58,244.911 1082.14,245.137ZM1080.91,201.66L1080.64,200.717C1080.38,200.665 1079.82,202.003 1079.97,202.151C1080.47,202.244 1080.45,201.76 1080.91,201.66ZM1073.59,201.968L1073.22,201.546C1072.68,201.468 1072.51,203.305 1073.59,201.968ZM1084.74,248.68C1084.68,248.793 1084.73,248.94 1084.71,249.064C1085.27,248.933 1085.55,249.349 1085.54,249.85L1085.85,249.84C1085.51,249.293 1086.28,248.953 1086,248.519C1085.95,248.432 1085.52,248.241 1085.4,248.256C1085.34,248.264 1084.76,248.646 1084.74,248.68ZM1086.12,247.288C1086.16,247.293 1086.85,247.255 1086.9,247.245C1087.03,247.22 1087.16,247.082 1087.32,247.048C1091.29,246.205 1095.31,245.493 1099.21,244.339L1100.74,241.764C1100.87,240.848 1100.7,239.691 1100.75,238.829C1100.76,238.662 1100.97,238.539 1100.95,238.326C1100.93,238.011 1100.49,237.944 1100.23,238.099L1100.43,238.793L1096.88,239.511L1096.47,239.213C1096.27,239.432 1096.13,239.6 1095.83,239.71C1095,240.011 1093.69,240.07 1092.8,240.255C1090.46,240.74 1088.12,241.274 1085.79,241.755L1085.62,242.006C1085.66,243.456 1085.36,245.134 1085.53,246.564C1085.57,246.882 1085.76,247.239 1086.12,247.288ZM1101.48,242.975L1101.78,243.207L1101.79,242.912L1102.19,242.891C1102.16,242.177 1101.69,242.533 1101.48,242.975ZM1102.09,201.454C1102.25,200.923 1102.48,198.863 1102.19,198.524C1101.7,197.965 1100.5,197.862 1099.8,197.96C1097.57,198.271 1093.4,199.446 1091.18,200.157C1090.76,200.294 1090.29,200.456 1089.88,200.632C1089.54,200.777 1087.54,201.802 1087.41,201.965C1087.1,202.352 1087.42,203.572 1087.19,204.109C1087.2,204.457 1087.69,205.674 1088.01,205.815C1088.58,206.073 1092.07,205.042 1092.92,204.837C1095.18,204.289 1097.56,203.773 1099.83,203.146C1101.02,202.818 1101.68,202.735 1102.09,201.454ZM1175.65,241.977C1175.09,241.807 1175.18,242.807 1175.39,242.792C1175.61,242.585 1175.65,242.254 1175.65,241.977ZM1163.7,197.152C1163.74,197.206 1176.49,198.837 1177.43,198.598C1177.56,198.564 1178.23,198.083 1178.27,197.989C1178.36,197.802 1178.37,194.304 1178.32,193.886C1178.27,193.513 1178.17,193.415 1177.87,193.223C1177.02,192.684 1175.56,192.434 1174.54,192.341C1171.57,192.066 1168.38,192.012 1165.37,192.017C1163.1,192.021 1163.85,192.996 1163.81,194.616C1163.8,195.137 1163.46,196.832 1163.7,197.152ZM1178.69,238.649C1178.4,238.43 1177.52,238.136 1177.74,238.783C1177.85,239.081 1178.17,239.555 1178.5,239.235C1178.58,239.157 1178.76,238.76 1178.69,238.649ZM1122.56,198.335C1122.63,197.946 1122.6,196.353 1122.51,195.955C1122.44,195.641 1121.79,194.425 1121.47,194.375C1121.06,194.312 1120.08,194.392 1119.62,194.427C1116.37,194.675 1112.96,195.794 1109.85,196.024C1109.35,196.06 1108.92,195.822 1108.72,195.848C1108.48,195.878 1108.45,196.173 1108.23,196.299C1107.92,196.468 1106.45,196.739 1106.32,196.853L1106.02,200.925L1107.5,201.549C1110.69,200.967 1113.89,200.406 1117.11,200.063C1117.16,200.109 1117,200.582 1117.26,200.463C1117.49,200.262 1117.69,199.939 1118.01,199.856C1119.04,199.587 1120.46,199.8 1121.45,199.401C1121.73,199.287 1122.5,198.622 1122.56,198.335ZM1170.36,190.608C1170.48,190.403 1170.09,189.525 1170.02,189.527C1169.69,189.703 1169.66,190.804 1169.92,190.844C1170.01,190.814 1170.34,190.648 1170.36,190.608ZM1167.6,190L1166.99,190.018C1166.96,190.19 1166.96,190.683 1167.24,190.617C1167.36,190.548 1167.7,190.082 1167.6,190ZM1107.4,204.593C1107.74,204.484 1107.39,203.54 1106.93,203.8C1107.04,204.089 1106.93,204.67 1107.4,204.593ZM1118.15,232.023C1117.96,231.97 1117.44,231.999 1117.5,232.278C1117.66,232.498 1117.87,232.581 1118.15,232.5C1118.39,232.419 1118.39,232.093 1118.15,232.023ZM1173.26,190.545C1172.86,190.52 1172.71,190.758 1172.5,191.032C1172.46,191.087 1172.06,191.339 1172.49,191.375L1173.26,190.545ZM1060.98,247.028C1060.53,246.905 1059.71,247.886 1060.43,247.697C1060.71,247.626 1061.63,247.203 1060.98,247.028ZM1004.43,213.55C1004.28,213.54 1002.5,213.905 1002.63,213.349C1002.71,213.009 1001.32,212.91 1001.09,212.837C1001.06,213.004 1001.35,212.943 1001.39,213.082C1001.44,213.209 1001.37,213.392 1001.23,213.43C1001.12,213.459 999.213,213.256 999.153,213.173C999.114,213.119 999.023,212.646 999.069,212.587C999.558,212.45 997.957,212.714 997.484,212.636L997.687,212.074L997.379,211.574L996.866,211.844C996.832,211.669 996.778,211.503 996.556,211.551C996.382,211.847 996.413,212.519 996.258,212.732C996.009,213.075 995.54,212.564 995.331,212.965C995.523,213.748 995.256,214.581 995.13,215.373L994.728,215.461C994.606,215.961 994.241,216.389 994.929,216.514C994.943,217.055 994.533,217.517 994.795,218.054C994.97,218.413 995.713,218.467 995.952,218.704C996.248,218.995 996.256,220.186 997.03,220.038C997.664,219.461 997.897,220.596 998.482,219.794C998.692,219.376 997.77,219.386 997.555,219.419C997.375,219.447 997.201,219.731 996.985,219.483C996.624,219.07 997.045,218.916 997.447,218.902C999.423,218.833 1002.02,219.498 1004.14,219.525C1004.56,219.531 1005.73,219.523 1006.09,219.48C1006.65,219.413 1006.6,218.993 1007.24,219.725C1007.87,219.257 1008.07,219.599 1008.69,219.672C1009.31,219.744 1009.95,219.824 1010.57,219.643C1010.21,219.228 1009.55,218.715 1009.02,219.183C1008.77,218.447 1010.11,218.492 1010.21,218.346C1010.47,217.556 1009.88,217.484 1009.22,217.558L1009.3,217.86L1009.74,218.101C1009.21,218.894 1009.18,217.964 1009.11,217.882C1009.04,217.804 1008.24,217.797 1008.19,217.623L1008.45,215.859L1008.65,215.749C1008.65,215.749 1009.27,215.389 1009.25,215.167C1009.23,215.02 1009.34,214.847 1009.32,214.677C1009.19,213.136 1008.31,214.252 1007.57,213.914C1007.25,213.769 1007.39,213.082 1007,213.061C1006.76,213.048 1005.86,213.771 1005.46,213.828C1004.85,213.916 1004.72,213.568 1004.43,213.55ZM1007.42,218.624C1007.27,217.996 1008.9,218.248 1009.01,218.385L1009.02,218.677C1008.79,218.697 1008.58,218.569 1008.35,218.584C1008.17,218.595 1008.21,218.751 1008.17,218.771C1007.95,218.902 1007.6,218.768 1007.42,218.624ZM1062.54,205.388C1062.96,205.258 1062.43,204.365 1061.97,204.596C1061.91,204.859 1062.21,205.491 1062.54,205.388ZM992.097,206.741C992.233,206.96 992.826,207.177 992.826,207.177C992.594,207.04 992.687,206.575 992.574,206.494C992.349,206.334 991.68,206.436 991.86,206.629C991.918,206.677 992.068,206.694 992.097,206.741ZM1027.57,255.979L1027.74,256.584C1027.88,256.709 1028.56,256.185 1028.41,255.954C1028.15,255.713 1027.85,255.777 1027.57,255.979ZM1072.38,251.952C1072.43,252.788 1073.56,252.29 1074.13,252.305C1074.12,251.824 1073.62,252.154 1073.25,252.135C1072.94,252.118 1072.71,251.882 1072.38,251.952ZM1161.43,191.04L1161.67,191.272C1162.25,190.722 1162.79,191.663 1163.49,191.434C1163.67,191.285 1162.63,190.596 1162.38,190.571C1162.24,190.557 1161.45,190.946 1161.43,191.04ZM1200.47,209.487C1199.85,209.206 1199.56,210.691 1199.76,210.822C1200.16,211.09 1200.48,209.737 1200.47,209.487ZM1067.65,254.01L1068.16,253.944C1068.41,253.486 1069.32,253.179 1068.84,252.652C1067.85,252.213 1067.63,253.296 1067.65,254.01ZM977.521,255.056C977.521,255.056 984.624,256.473 984.886,256.511C985.255,256.564 985.663,256.31 986.067,256.477C985.919,256.773 986.111,257.055 986.071,257.331C986.027,257.631 985.534,257.736 985.917,257.998L986.643,257.576C986.785,257.382 986.346,256.77 986.743,256.571C987.571,256.578 988.368,257.094 989.153,256.892C988.797,257.784 989.482,252.893 988.931,251.184L989.343,250.967L989.188,250.619C988.969,250.579 988.687,251.191 988.362,251.251C988.132,251.294 987.076,251.113 986.749,251.067C984.881,250.805 982.749,250.245 980.904,249.798C980.468,249.692 977.883,248.859 977.714,249.028L977.521,255.056ZM970.695,255.398C971.054,255.495 971.342,254.909 970.865,254.803C970.442,254.708 970.335,255.301 970.695,255.398ZM1047.58,252.118C1047.9,252.323 1048.23,251.942 1048.46,251.938C1049.18,251.924 1048.56,253.525 1048.63,253.881C1048.64,253.922 1048.95,254.584 1048.98,254.646C1049.18,254.981 1049.7,255.074 1049.55,255.649L1060.91,253.103C1061.36,253.093 1061.37,253.514 1061.58,253.732C1062.09,254.262 1063.08,254.81 1062.56,253.549C1062.43,253.239 1062.1,253.152 1062.09,252.858C1062.37,252.916 1063.06,252.097 1063.1,251.948C1063.14,251.787 1062.99,251.562 1063,251.363C1063.06,250.389 1063.18,249.418 1063.22,248.427C1063.22,248.193 1063.27,247.409 1063.11,247.304C1063,247.234 1062.89,247.272 1062.77,247.291C1061.98,247.419 1060.81,247.935 1059.95,248.14C1059.08,248.345 1058.38,248.401 1057.58,248.711C1056.88,248.982 1049.1,250.073 1048.85,250.816L1047.75,250.858C1047.43,250.972 1047.66,251.331 1047.64,251.509C1047.61,251.69 1047.33,251.963 1047.58,252.118ZM991.237,212.844C990.952,212.276 990.123,212.899 990.077,212.851L990.588,211.927C990.191,212.134 990.102,211.855 989.796,211.766C988.43,211.371 986.866,211.228 985.446,210.958L985.44,210.558L985.108,210.852L979.054,209.874L978.762,214.747C978.638,215.076 978.702,215.424 978.658,215.757C978.634,215.94 978.468,216.102 978.48,216.257C978.512,216.658 979.07,216.683 979.384,216.754C981.831,217.312 984.59,217.579 987.037,217.802C987.719,217.864 988.901,218.082 989.523,218.037C989.709,218.024 989.874,218.036 989.985,217.863L989.98,215.839L990.193,215.721C990.607,215.997 991.042,215.793 990.655,215.355C990.349,215.009 990.149,215.293 990.385,214.467L989.979,214.322C990.166,213.979 990.847,214.009 991.009,213.891C991.125,213.808 991.332,213.035 991.237,212.844ZM1063.01,212.593C1063.11,212.443 1063.9,210.843 1063.93,210.742C1063.96,210.588 1063.83,210.422 1063.85,210.267C1063.88,210.022 1064.02,209.784 1064.02,209.546C1064.04,209.066 1063.86,208.377 1063.91,207.848C1063.71,207.595 1063.31,207.114 1062.96,207.111C1062.44,207.107 1055.9,208.931 1054.53,208.763L1051.11,209.692C1050.62,210.665 1050.13,211.252 1050.05,212.374C1049.99,213.298 1049.9,214.728 1050.58,215.396C1051.06,215.87 1051.6,215.431 1052.2,215.328C1053.84,215.046 1061.12,213.912 1061.66,213.833C1061.87,213.801 1062.31,214.048 1062.4,213.727C1062.43,213.604 1062.29,213.451 1062.35,213.288C1062.4,213.166 1062.86,212.807 1063.01,212.593ZM1110.98,202.155C1111.27,202.054 1111.11,201.391 1111.14,201.147C1111.02,201.165 1110.85,201.116 1110.75,201.177C1110.57,201.285 1110.28,202.404 1110.98,202.155ZM1244.46,247.906C1245.19,248.714 1245.63,247.703 1244.9,247.663C1244.73,247.654 1244.56,247.784 1244.46,247.906ZM1245.1,259.016C1245.23,259.428 1246.56,258.899 1246.23,258.328C1246.13,258.232 1244.98,258.631 1245.1,259.016ZM1235.24,213.046C1239.82,214.737 1244.59,215.996 1249.42,216.851C1249.43,215.755 1249.4,214.656 1249.41,213.559C1249.41,213.266 1249.52,212.982 1249.52,212.649C1249.52,211.78 1249.1,210.979 1249.82,210.213C1249.75,209.945 1245.09,209.051 1244.41,208.805C1244.11,208.697 1241.82,207.512 1241.3,207.387C1240.91,207.292 1236.99,206.458 1236.74,206.349C1236.71,206.57 1236.69,206.791 1236.68,207.02L1235.96,206.281L1236.15,206.113C1235.9,206.021 1235.68,205.948 1235.51,205.926C1235.52,206.122 1235.54,206.309 1235.57,206.473C1235.64,206.815 1235.99,206.988 1235.97,207.394C1235.95,207.854 1235.55,207.856 1235.36,208.133C1235.24,208.302 1235.19,208.576 1235.1,208.822L1235.1,209.287L1235.35,209.487L1235.66,209.074C1235.95,209.557 1235.55,209.843 1235.47,210.17C1235.43,210.383 1235.57,210.552 1235.54,210.724C1235.45,211.168 1235.17,211.717 1235.18,212.194C1235.19,212.477 1235.22,212.759 1235.24,213.046ZM1198.81,240.927L1199.83,242.031C1203.09,242.813 1206.36,243.547 1209.6,244.387C1210.65,244.657 1211.84,245.169 1212.92,245.285C1214.22,245.424 1213.87,243.352 1213.93,242.538C1213.99,241.656 1214.32,241.078 1213.94,240.192C1213.88,240.057 1213.32,239.103 1213.25,239.06C1212.99,238.873 1211.23,238.618 1210.73,238.481C1207.96,237.725 1206.1,237.197 1203.19,236.796C1202.54,236.706 1201.79,236.462 1201.18,236.406C1200.64,236.358 1200.26,236.448 1199.82,236.78C1198.6,237.707 1199.08,239.617 1198.81,240.927ZM960.474,245.985C960.716,246.364 960.49,247.053 959.908,246.357C959.843,246.279 959.349,245.552 959.392,245.512C959.495,245.417 960.418,245.897 960.474,245.985Z" style="fill:rgb(51,49,50);"/>
        </g>
    </g>
</svg>
